STARTFONT 2.1
COMMENT
COMMENT Converted from OpenType font "ibmplex_regular.ttf" by "otf2bdf 3.0".
COMMENT
FONT -FreeType-IBM Plex Sans Thin-Medium-R-Normal--22-160-100-100-P-98-ISO10646-1
SIZE 16 100 100
FONTBOUNDINGBOX 29 29 -3 -5
STARTPROPERTIES 19
FOUNDRY "FreeType"
FAMILY_NAME "IBM Plex Sans Thin"
WEIGHT_NAME "Medium"
SLANT "R"
SETWIDTH_NAME "Normal"
ADD_STYLE_NAME ""
PIXEL_SIZE 22
POINT_SIZE 160
RESOLUTION_X 100
RESOLUTION_Y 100
SPACING "P"
AVERAGE_WIDTH 98
CHARSET_REGISTRY "ISO10646"
CHARSET_ENCODING "1"
FONT_ASCENT 22
FONT_DESCENT 6
COPYRIGHT "Copyright 2018 IBM Corp. All rights reserved."
_OTF_FONTFILE "ibmplex_regular.ttf"
_OTF_PSNAME "IBMPlexSans-Thin"
ENDPROPERTIES
CHARS 826
STARTCHAR 0000
ENCODING 0
SWIDTH 0 0
DWIDTH 0 0
BBX 0 0 0 0
BITMAP
ENDCHAR
STARTCHAR 000D
ENCODING 13
SWIDTH 225 0
DWIDTH 5 0
BBX 0 0 0 0
BITMAP
ENDCHAR
STARTCHAR 0020
ENCODING 32
SWIDTH 225 0
DWIDTH 5 0
BBX 0 0 0 0
BITMAP
ENDCHAR
STARTCHAR 0021
ENCODING 33
SWIDTH 225 0
DWIDTH 5 0
BBX 1 15 2 1
BITMAP
80
80
80
80
80
80
80
80
80
80
00
00
00
00
80
ENDCHAR
STARTCHAR 0022
ENCODING 34
SWIDTH 360 0
DWIDTH 8 0
BBX 4 5 2 11
BITMAP
80
90
90
90
80
ENDCHAR
STARTCHAR 0023
ENCODING 35
SWIDTH 675 0
DWIDTH 15 0
BBX 12 16 2 0
BITMAP
0040
0840
0880
0880
1080
FFF0
1080
1080
1100
1100
2100
7FC0
2100
2100
2200
2000
ENDCHAR
STARTCHAR 0024
ENCODING 36
SWIDTH 540 0
DWIDTH 12 0
BBX 10 17 1 -1
BITMAP
0400
7B80
8840
8800
8800
8800
4800
3800
0F00
0880
0840
0840
0840
8840
4880
3B00
0C00
ENDCHAR
STARTCHAR 0025
ENCODING 37
SWIDTH 855 0
DWIDTH 19 0
BBX 16 16 2 0
BITMAP
3000
C808
8410
8420
8420
8440
8480
8880
713E
0222
0441
0441
0841
1041
1022
203E
ENDCHAR
STARTCHAR 0026
ENCODING 38
SWIDTH 675 0
DWIDTH 15 0
BBX 12 16 2 0
BITMAP
1C00
6300
4100
4100
4100
4100
2200
1C00
2830
C440
8240
8140
8080
8040
81A0
7E10
ENDCHAR
STARTCHAR 0027
ENCODING 39
SWIDTH 180 0
DWIDTH 4 0
BBX 1 5 2 11
BITMAP
80
80
80
80
80
ENDCHAR
STARTCHAR 0028
ENCODING 40
SWIDTH 315 0
DWIDTH 7 0
BBX 5 20 2 -3
BITMAP
08
10
20
40
40
40
80
80
80
80
80
80
80
80
80
40
40
20
10
10
ENDCHAR
STARTCHAR 0029
ENCODING 41
SWIDTH 315 0
DWIDTH 7 0
BBX 4 19 1 -2
BITMAP
80
40
40
20
20
10
10
10
10
10
10
10
10
20
20
20
40
80
80
ENDCHAR
STARTCHAR 002A
ENCODING 42
SWIDTH 360 0
DWIDTH 8 0
BBX 6 6 1 11
BITMAP
20
20
EC
10
70
48
ENDCHAR
STARTCHAR 002B
ENCODING 43
SWIDTH 585 0
DWIDTH 13 0
BBX 9 11 2 1
BITMAP
0800
0800
0800
0800
0800
FF80
0800
0800
0800
0800
0800
ENDCHAR
STARTCHAR 002C
ENCODING 44
SWIDTH 225 0
DWIDTH 5 0
BBX 1 3 2 -3
BITMAP
80
80
80
ENDCHAR
STARTCHAR 002D
ENCODING 45
SWIDTH 360 0
DWIDTH 8 0
BBX 3 1 3 6
BITMAP
E0
ENDCHAR
STARTCHAR 002E
ENCODING 46
SWIDTH 225 0
DWIDTH 5 0
BBX 1 1 2 0
BITMAP
80
ENDCHAR
STARTCHAR 002F
ENCODING 47
SWIDTH 270 0
DWIDTH 6 0
BBX 6 18 0 -3
BITMAP
04
08
08
08
08
10
10
10
10
20
20
20
20
40
40
40
80
80
ENDCHAR
STARTCHAR 0030
ENCODING 48
SWIDTH 585 0
DWIDTH 13 0
BBX 10 16 2 0
BITMAP
1C00
6300
8080
8080
8080
8040
8040
8040
8040
8040
8040
8080
8080
8080
4100
3E00
ENDCHAR
STARTCHAR 0031
ENCODING 49
SWIDTH 585 0
DWIDTH 13 0
BBX 9 15 2 1
BITMAP
1800
2800
4800
8800
0800
0800
0800
0800
0800
0800
0800
0800
0800
0800
7F80
ENDCHAR
STARTCHAR 0032
ENCODING 50
SWIDTH 585 0
DWIDTH 13 0
BBX 9 16 2 0
BITMAP
1C00
6300
8100
0080
0080
0080
0100
0100
0200
0200
0400
0800
1000
2000
4000
FF80
ENDCHAR
STARTCHAR 0033
ENCODING 51
SWIDTH 585 0
DWIDTH 13 0
BBX 9 16 2 0
BITMAP
3C00
4300
8100
0080
0080
0100
0100
0600
1A00
0100
0080
0080
0080
0080
8100
7E00
ENDCHAR
STARTCHAR 0034
ENCODING 52
SWIDTH 585 0
DWIDTH 13 0
BBX 10 16 1 0
BITMAP
0080
0180
0280
0480
0480
0880
1080
1080
2080
4080
4080
8080
7FC0
0080
0080
0080
ENDCHAR
STARTCHAR 0035
ENCODING 53
SWIDTH 585 0
DWIDTH 13 0
BBX 9 16 2 0
BITMAP
7F80
8000
8000
8000
8000
8000
8000
BE00
4100
0080
0080
0080
0080
0080
8100
7E00
ENDCHAR
STARTCHAR 0036
ENCODING 54
SWIDTH 585 0
DWIDTH 13 0
BBX 9 16 2 0
BITMAP
0200
0C00
1000
2000
4000
4000
8000
BE00
C180
8080
8080
8080
8080
8080
8100
7E00
ENDCHAR
STARTCHAR 0037
ENCODING 55
SWIDTH 585 0
DWIDTH 13 0
BBX 9 16 2 0
BITMAP
FF80
8080
8080
8100
0100
0200
0200
0400
0400
0400
0800
0800
1000
1000
2000
2000
ENDCHAR
STARTCHAR 0038
ENCODING 56
SWIDTH 585 0
DWIDTH 13 0
BBX 10 16 2 0
BITMAP
1E00
6100
8080
8080
8080
8080
8100
6200
5D00
8080
8040
8040
8040
8080
8080
7F00
ENDCHAR
STARTCHAR 0039
ENCODING 57
SWIDTH 585 0
DWIDTH 13 0
BBX 9 16 2 0
BITMAP
1E00
6100
8080
8080
8080
8080
8080
8080
4180
3E80
0100
0100
0200
0400
0800
1000
ENDCHAR
STARTCHAR 003A
ENCODING 58
SWIDTH 225 0
DWIDTH 5 0
BBX 1 11 2 0
BITMAP
80
00
00
00
00
00
00
00
00
00
80
ENDCHAR
STARTCHAR 003B
ENCODING 59
SWIDTH 225 0
DWIDTH 5 0
BBX 1 13 2 -3
BITMAP
80
00
00
00
00
00
00
00
00
00
80
80
80
ENDCHAR
STARTCHAR 003C
ENCODING 60
SWIDTH 585 0
DWIDTH 13 0
BBX 9 11 2 2
BITMAP
0100
0200
0C00
3000
4000
8000
6000
1000
0C00
0300
0080
ENDCHAR
STARTCHAR 003D
ENCODING 61
SWIDTH 585 0
DWIDTH 13 0
BBX 9 4 2 5
BITMAP
FF80
0000
0000
FF80
ENDCHAR
STARTCHAR 003E
ENCODING 62
SWIDTH 585 0
DWIDTH 13 0
BBX 9 11 2 2
BITMAP
4000
3000
0800
0600
0180
0080
0100
0600
1800
2000
C000
ENDCHAR
STARTCHAR 003F
ENCODING 63
SWIDTH 450 0
DWIDTH 10 0
BBX 8 16 1 0
BITMAP
3C
42
81
01
01
01
01
02
1C
10
10
10
00
00
00
10
ENDCHAR
STARTCHAR 0040
ENCODING 64
SWIDTH 855 0
DWIDTH 19 0
BBX 16 19 2 -3
BITMAP
03C0
1C30
200C
4002
8002
87C1
8821
8821
9021
9021
9021
8821
8822
8452
838C
4000
2000
1000
0FF8
ENDCHAR
STARTCHAR 0041
ENCODING 65
SWIDTH 585 0
DWIDTH 13 0
BBX 11 16 1 0
BITMAP
0400
0C00
0A00
0A00
1200
1100
1100
2080
2080
2080
3FC0
4040
8040
8020
8020
8020
ENDCHAR
STARTCHAR 0042
ENCODING 66
SWIDTH 585 0
DWIDTH 13 0
BBX 10 16 2 0
BITMAP
FC00
8380
8080
8080
8040
8080
8080
8100
FE80
8040
8040
8040
8040
8040
8040
FF80
ENDCHAR
STARTCHAR 0043
ENCODING 67
SWIDTH 585 0
DWIDTH 13 0
BBX 10 16 2 0
BITMAP
1E00
6180
8040
8000
8000
8000
8000
8000
8000
8000
8000
8000
8000
8040
4080
3F00
ENDCHAR
STARTCHAR 0044
ENCODING 68
SWIDTH 630 0
DWIDTH 14 0
BBX 11 16 2 0
BITMAP
F800
8780
8040
8040
8020
8020
8020
8020
8020
8020
8020
8020
8040
8040
8080
FF00
ENDCHAR
STARTCHAR 0045
ENCODING 69
SWIDTH 540 0
DWIDTH 12 0
BBX 9 16 2 0
BITMAP
FF80
8000
8000
8000
8000
8000
8000
8000
FF00
8000
8000
8000
8000
8000
8000
FF00
ENDCHAR
STARTCHAR 0046
ENCODING 70
SWIDTH 495 0
DWIDTH 11 0
BBX 9 16 2 0
BITMAP
FF80
8000
8000
8000
8000
8000
8000
8000
FE00
8000
8000
8000
8000
8000
8000
8000
ENDCHAR
STARTCHAR 0047
ENCODING 71
SWIDTH 630 0
DWIDTH 14 0
BBX 11 16 2 0
BITMAP
0E00
3180
4040
8000
8000
8000
8000
8000
8000
80E0
8020
8020
8020
8060
4060
3F80
ENDCHAR
STARTCHAR 0048
ENCODING 72
SWIDTH 675 0
DWIDTH 15 0
BBX 11 16 2 0
BITMAP
8020
8020
8020
8020
8020
8020
8020
8020
FFE0
8020
8020
8020
8020
8020
8020
8020
ENDCHAR
STARTCHAR 0049
ENCODING 73
SWIDTH 360 0
DWIDTH 8 0
BBX 5 16 2 0
BITMAP
F8
40
40
40
40
40
40
40
40
40
40
40
40
40
40
70
ENDCHAR
STARTCHAR 004A
ENCODING 74
SWIDTH 450 0
DWIDTH 10 0
BBX 8 16 0 0
BITMAP
3F
01
01
01
01
01
01
01
01
01
01
01
01
81
81
7E
ENDCHAR
STARTCHAR 004B
ENCODING 75
SWIDTH 540 0
DWIDTH 12 0
BBX 10 16 2 0
BITMAP
8000
80C0
8100
8200
8200
8400
8800
9800
A800
C400
8200
8200
8100
8080
8080
8040
ENDCHAR
STARTCHAR 004C
ENCODING 76
SWIDTH 450 0
DWIDTH 10 0
BBX 7 16 2 0
BITMAP
80
80
80
80
80
80
80
80
80
80
80
80
80
80
80
FE
ENDCHAR
STARTCHAR 004D
ENCODING 77
SWIDTH 765 0
DWIDTH 17 0
BBX 13 16 2 0
BITMAP
8000
C018
C018
A028
9028
9048
8888
8888
8508
8308
8008
8008
8008
8008
8008
8000
ENDCHAR
STARTCHAR 004E
ENCODING 78
SWIDTH 675 0
DWIDTH 15 0
BBX 11 16 2 0
BITMAP
8000
C020
C020
A020
9020
9020
8820
8820
8420
8220
8220
8120
80A0
80A0
8060
8020
ENDCHAR
STARTCHAR 004F
ENCODING 79
SWIDTH 675 0
DWIDTH 15 0
BBX 12 16 2 0
BITMAP
0F00
3080
4040
8020
8020
8020
8020
8010
8010
8010
8020
8020
8020
8020
4040
3F80
ENDCHAR
STARTCHAR 0050
ENCODING 80
SWIDTH 585 0
DWIDTH 13 0
BBX 10 16 2 0
BITMAP
FE00
8180
8040
8040
8040
8040
8040
8080
FF00
8000
8000
8000
8000
8000
8000
8000
ENDCHAR
STARTCHAR 0051
ENCODING 81
SWIDTH 675 0
DWIDTH 15 0
BBX 12 19 2 -3
BITMAP
0F00
3080
4040
8020
8020
8020
8020
8010
8010
8010
8020
8020
8020
8040
4040
3080
0F00
0400
0600
ENDCHAR
STARTCHAR 0052
ENCODING 82
SWIDTH 630 0
DWIDTH 14 0
BBX 10 16 2 0
BITMAP
FE00
8180
8040
8040
8040
8040
8040
8080
FF00
8200
8200
8100
8100
8080
8040
8040
ENDCHAR
STARTCHAR 0053
ENCODING 83
SWIDTH 540 0
DWIDTH 12 0
BBX 10 16 1 0
BITMAP
1E00
6180
8000
8000
8000
8000
4000
3000
0F00
0080
0040
0040
0040
0040
8080
7F00
ENDCHAR
STARTCHAR 0054
ENCODING 84
SWIDTH 540 0
DWIDTH 12 0
BBX 12 15 0 0
BITMAP
FFF0
0400
0400
0400
0400
0400
0400
0400
0400
0400
0400
0400
0400
0400
0400
ENDCHAR
STARTCHAR 0055
ENCODING 85
SWIDTH 630 0
DWIDTH 14 0
BBX 10 16 2 0
BITMAP
8000
8040
8040
8040
8040
8040
8040
8040
8040
8040
8040
8040
8040
8040
4080
3F00
ENDCHAR
STARTCHAR 0056
ENCODING 86
SWIDTH 540 0
DWIDTH 12 0
BBX 11 16 1 0
BITMAP
0020
8020
8040
8040
4040
4080
4080
2080
2100
2100
1100
1200
1200
0A00
0C00
0400
ENDCHAR
STARTCHAR 0057
ENCODING 87
SWIDTH 855 0
DWIDTH 19 0
BBX 18 16 1 0
BITMAP
008040
808080
814080
814080
814080
424100
422100
422100
422100
241200
241200
241200
281200
180C00
180C00
080400
ENDCHAR
STARTCHAR 0058
ENCODING 88
SWIDTH 540 0
DWIDTH 12 0
BBX 11 16 1 0
BITMAP
0020
8040
4080
4080
2100
1200
1200
0C00
0400
0C00
1200
2100
2100
4080
8040
8040
ENDCHAR
STARTCHAR 0059
ENCODING 89
SWIDTH 540 0
DWIDTH 12 0
BBX 12 15 0 0
BITMAP
8010
4020
4040
2040
2080
1080
0900
0A00
0600
0400
0400
0400
0400
0400
0400
ENDCHAR
STARTCHAR 005A
ENCODING 90
SWIDTH 540 0
DWIDTH 12 0
BBX 10 16 1 0
BITMAP
FFC0
0040
0080
0080
0100
0200
0200
0400
0800
0800
1000
2000
4000
4000
8000
FFC0
ENDCHAR
STARTCHAR 005B
ENCODING 91
SWIDTH 270 0
DWIDTH 6 0
BBX 3 20 2 -3
BITMAP
E0
80
80
80
80
80
80
80
80
80
80
80
80
80
80
80
80
80
80
C0
ENDCHAR
STARTCHAR 005C
ENCODING 92
SWIDTH 270 0
DWIDTH 6 0
BBX 5 18 1 -3
BITMAP
80
80
80
80
40
40
40
40
20
20
20
20
10
10
10
08
08
08
ENDCHAR
STARTCHAR 005D
ENCODING 93
SWIDTH 270 0
DWIDTH 6 0
BBX 2 20 2 -3
BITMAP
C0
40
40
40
40
40
40
40
40
40
40
40
40
40
40
40
40
40
40
40
ENDCHAR
STARTCHAR 005E
ENCODING 94
SWIDTH 585 0
DWIDTH 13 0
BBX 10 9 2 7
BITMAP
0800
1400
1400
2200
2200
4100
8080
8080
0040
ENDCHAR
STARTCHAR 005F
ENCODING 95
SWIDTH 540 0
DWIDTH 12 0
BBX 9 1 2 -3
BITMAP
FF80
ENDCHAR
STARTCHAR 0060
ENCODING 96
SWIDTH 585 0
DWIDTH 13 0
BBX 2 3 5 14
BITMAP
80
80
40
ENDCHAR
STARTCHAR 0061
ENCODING 97
SWIDTH 495 0
DWIDTH 11 0
BBX 9 12 1 0
BITMAP
0800
7600
0100
0100
0100
0100
3F00
C100
8100
8100
8100
7E80
ENDCHAR
STARTCHAR 0062
ENCODING 98
SWIDTH 540 0
DWIDTH 12 0
BBX 9 16 2 0
BITMAP
8000
8000
8000
8000
8800
F700
8100
8080
8080
8080
8080
8080
8080
8080
8100
FE00
ENDCHAR
STARTCHAR 0063
ENCODING 99
SWIDTH 450 0
DWIDTH 10 0
BBX 9 11 1 1
BITMAP
3F00
4080
8000
8000
8000
8000
8000
8000
8000
4080
3F00
ENDCHAR
STARTCHAR 0064
ENCODING 100
SWIDTH 540 0
DWIDTH 12 0
BBX 9 15 1 1
BITMAP
0080
0080
0080
0080
3F80
4080
8080
8080
8080
8080
8080
8080
8080
4080
3F00
ENDCHAR
STARTCHAR 0065
ENCODING 101
SWIDTH 495 0
DWIDTH 11 0
BBX 9 11 1 1
BITMAP
3F00
4080
8080
8080
8080
FF00
8000
8000
8000
4080
3F00
ENDCHAR
STARTCHAR 0066
ENCODING 102
SWIDTH 270 0
DWIDTH 6 0
BBX 3 15 2 0
BITMAP
60
80
80
80
80
E0
80
80
80
80
80
80
80
80
80
ENDCHAR
STARTCHAR 0067
ENCODING 103
SWIDTH 495 0
DWIDTH 11 0
BBX 10 17 1 -5
BITMAP
0980
3700
4100
4080
4080
4080
4100
3200
6C00
4000
4000
7F80
8040
8040
8040
8080
7F00
ENDCHAR
STARTCHAR 0068
ENCODING 104
SWIDTH 540 0
DWIDTH 12 0
BBX 8 16 2 0
BITMAP
80
80
80
80
88
F6
81
81
81
81
81
81
81
81
81
80
ENDCHAR
STARTCHAR 0069
ENCODING 105
SWIDTH 225 0
DWIDTH 5 0
BBX 1 16 2 0
BITMAP
80
00
00
00
00
80
80
80
80
80
80
80
80
80
80
80
ENDCHAR
STARTCHAR 006A
ENCODING 106
SWIDTH 225 0
DWIDTH 5 0
BBX 2 20 1 -4
BITMAP
40
00
00
00
00
40
40
40
40
40
40
40
40
40
40
40
40
40
40
C0
ENDCHAR
STARTCHAR 006B
ENCODING 107
SWIDTH 450 0
DWIDTH 10 0
BBX 8 16 2 0
BITMAP
80
80
80
80
80
82
84
88
90
A0
D0
88
84
84
82
81
ENDCHAR
STARTCHAR 006C
ENCODING 108
SWIDTH 225 0
DWIDTH 5 0
BBX 2 16 2 0
BITMAP
80
80
80
80
80
80
80
80
80
80
80
80
80
80
80
C0
ENDCHAR
STARTCHAR 006D
ENCODING 109
SWIDTH 855 0
DWIDTH 19 0
BBX 15 12 2 0
BITMAP
0810
F6EC
8102
8102
8102
8102
8102
8102
8102
8102
8102
8000
ENDCHAR
STARTCHAR 006E
ENCODING 110
SWIDTH 540 0
DWIDTH 12 0
BBX 8 12 2 0
BITMAP
08
F6
81
81
81
81
81
81
81
81
81
80
ENDCHAR
STARTCHAR 006F
ENCODING 111
SWIDTH 540 0
DWIDTH 12 0
BBX 10 11 1 1
BITMAP
3F00
4080
8080
8040
8040
8040
8040
8080
8080
4080
3F00
ENDCHAR
STARTCHAR 0070
ENCODING 112
SWIDTH 540 0
DWIDTH 12 0
BBX 9 16 2 -4
BITMAP
0800
F700
8100
8080
8080
8080
8080
8080
8080
8080
8100
E200
9C00
8000
8000
8000
ENDCHAR
STARTCHAR 0071
ENCODING 113
SWIDTH 540 0
DWIDTH 12 0
BBX 9 14 1 -3
BITMAP
3F00
4080
8080
8080
8080
8080
8080
8080
8080
4080
2180
1E80
0080
0080
ENDCHAR
STARTCHAR 0072
ENCODING 114
SWIDTH 315 0
DWIDTH 7 0
BBX 4 11 2 0
BITMAP
B0
C0
80
80
80
80
80
80
80
80
80
ENDCHAR
STARTCHAR 0073
ENCODING 115
SWIDTH 450 0
DWIDTH 10 0
BBX 8 12 1 0
BITMAP
08
76
80
80
80
40
3C
02
01
01
81
7E
ENDCHAR
STARTCHAR 0074
ENCODING 116
SWIDTH 270 0
DWIDTH 6 0
BBX 3 13 2 1
BITMAP
80
80
E0
80
80
80
80
80
80
80
80
80
60
ENDCHAR
STARTCHAR 0075
ENCODING 117
SWIDTH 540 0
DWIDTH 12 0
BBX 8 11 2 0
BITMAP
80
81
81
81
81
81
81
81
81
83
7E
ENDCHAR
STARTCHAR 0076
ENCODING 118
SWIDTH 450 0
DWIDTH 10 0
BBX 8 10 1 1
BITMAP
81
82
82
42
44
24
24
28
18
10
ENDCHAR
STARTCHAR 0077
ENCODING 119
SWIDTH 720 0
DWIDTH 16 0
BBX 14 11 1 0
BITMAP
0100
8304
8508
8508
4488
4888
4890
2850
2850
3060
1020
ENDCHAR
STARTCHAR 0078
ENCODING 120
SWIDTH 450 0
DWIDTH 10 0
BBX 8 11 1 0
BITMAP
81
42
42
24
18
08
18
24
42
81
81
ENDCHAR
STARTCHAR 0079
ENCODING 121
SWIDTH 450 0
DWIDTH 10 0
BBX 8 14 1 -3
BITMAP
81
82
82
42
44
24
24
28
18
08
10
10
20
60
ENDCHAR
STARTCHAR 007A
ENCODING 122
SWIDTH 405 0
DWIDTH 9 0
BBX 7 11 1 0
BITMAP
7E
02
04
08
10
10
20
40
40
80
FE
ENDCHAR
STARTCHAR 007B
ENCODING 123
SWIDTH 315 0
DWIDTH 7 0
BBX 4 20 1 -3
BITMAP
30
40
40
40
40
40
40
40
40
80
80
40
40
40
40
40
40
40
40
20
ENDCHAR
STARTCHAR 007C
ENCODING 124
SWIDTH 225 0
DWIDTH 5 0
BBX 1 20 2 -3
BITMAP
80
80
80
80
80
80
80
80
80
80
80
80
80
80
80
80
80
80
80
80
ENDCHAR
STARTCHAR 007D
ENCODING 125
SWIDTH 315 0
DWIDTH 7 0
BBX 4 20 2 -3
BITMAP
C0
40
40
40
40
40
40
40
40
30
10
20
40
40
40
40
40
40
40
40
ENDCHAR
STARTCHAR 007E
ENCODING 126
SWIDTH 585 0
DWIDTH 13 0
BBX 10 2 2 6
BITMAP
F000
0FC0
ENDCHAR
STARTCHAR 00A0
ENCODING 160
SWIDTH 225 0
DWIDTH 5 0
BBX 0 0 0 0
BITMAP
ENDCHAR
STARTCHAR 00A1
ENCODING 161
SWIDTH 225 0
DWIDTH 5 0
BBX 1 14 2 -4
BITMAP
80
00
00
00
00
80
80
80
80
80
80
80
80
80
ENDCHAR
STARTCHAR 00A2
ENCODING 162
SWIDTH 495 0
DWIDTH 11 0
BBX 9 15 1 -2
BITMAP
0800
0800
3F00
4880
8800
8800
8800
8800
8800
8800
8800
4880
2900
1E00
0800
ENDCHAR
STARTCHAR 00A3
ENCODING 163
SWIDTH 540 0
DWIDTH 12 0
BBX 9 16 2 0
BITMAP
1E00
6100
4080
8000
8000
8000
8000
4000
4000
7C00
4000
4000
4000
4000
8000
FF00
ENDCHAR
STARTCHAR 00A4
ENCODING 164
SWIDTH 585 0
DWIDTH 13 0
BBX 11 11 1 3
BITMAP
8E20
71C0
4080
4040
4040
4040
4040
4080
2080
5140
8E20
ENDCHAR
STARTCHAR 00A5
ENCODING 165
SWIDTH 540 0
DWIDTH 12 0
BBX 11 16 1 0
BITMAP
8020
8040
4040
4080
2100
1100
1200
0C00
7FC0
0400
0400
0400
3F80
0400
0400
0400
ENDCHAR
STARTCHAR 00A6
ENCODING 166
SWIDTH 225 0
DWIDTH 5 0
BBX 1 20 2 -3
BITMAP
80
80
80
80
80
80
80
80
00
00
00
00
80
80
80
80
80
80
80
80
ENDCHAR
STARTCHAR 00A7
ENCODING 167
SWIDTH 540 0
DWIDTH 12 0
BBX 9 19 2 -3
BITMAP
1C00
6300
8000
8000
8000
4000
7800
8600
8100
8080
8080
8100
6100
1E00
0200
0100
0100
0100
7E00
ENDCHAR
STARTCHAR 00A8
ENCODING 168
SWIDTH 585 0
DWIDTH 13 0
BBX 5 1 4 14
BITMAP
88
ENDCHAR
STARTCHAR 00A9
ENCODING 169
SWIDTH 675 0
DWIDTH 15 0
BBX 14 16 1 0
BITMAP
0780
3860
4010
8008
8788
8804
9004
9004
9004
9004
9004
8808
8788
4010
2010
1FE0
ENDCHAR
STARTCHAR 00AA
ENCODING 170
SWIDTH 315 0
DWIDTH 7 0
BBX 6 8 1 8
BITMAP
30
C8
08
08
F8
88
88
F4
ENDCHAR
STARTCHAR 00AB
ENCODING 171
SWIDTH 450 0
DWIDTH 10 0
BBX 8 8 1 3
BITMAP
33
44
88
90
88
44
22
11
ENDCHAR
STARTCHAR 00AC
ENCODING 172
SWIDTH 585 0
DWIDTH 13 0
BBX 10 5 2 2
BITMAP
FFC0
0040
0040
0040
0040
ENDCHAR
STARTCHAR 00AD
ENCODING 173
SWIDTH 360 0
DWIDTH 8 0
BBX 3 1 3 6
BITMAP
E0
ENDCHAR
STARTCHAR 00AE
ENCODING 174
SWIDTH 450 0
DWIDTH 10 0
BBX 9 9 1 7
BITMAP
1C00
6200
9900
A500
A480
B880
8500
8100
7E00
ENDCHAR
STARTCHAR 00AF
ENCODING 175
SWIDTH 585 0
DWIDTH 13 0
BBX 4 1 5 14
BITMAP
F0
ENDCHAR
STARTCHAR 00B0
ENCODING 176
SWIDTH 450 0
DWIDTH 10 0
BBX 7 8 2 8
BITMAP
38
C4
82
82
82
84
84
78
ENDCHAR
STARTCHAR 00B1
ENCODING 177
SWIDTH 585 0
DWIDTH 13 0
BBX 9 13 2 0
BITMAP
0800
0800
0800
0800
0800
FF80
0800
0800
0800
0800
0000
0000
FF80
ENDCHAR
STARTCHAR 00B2
ENCODING 178
SWIDTH 315 0
DWIDTH 7 0
BBX 6 9 1 7
BITMAP
30
C8
08
08
08
10
20
C0
FC
ENDCHAR
STARTCHAR 00B3
ENCODING 179
SWIDTH 315 0
DWIDTH 7 0
BBX 5 9 1 7
BITMAP
30
C8
08
08
30
08
08
08
F0
ENDCHAR
STARTCHAR 00B4
ENCODING 180
SWIDTH 585 0
DWIDTH 13 0
BBX 3 4 6 13
BITMAP
20
40
80
80
ENDCHAR
STARTCHAR 00B5
ENCODING 181
SWIDTH 540 0
DWIDTH 12 0
BBX 8 15 2 -4
BITMAP
80
81
81
81
81
81
81
81
81
81
E2
9C
80
80
80
ENDCHAR
STARTCHAR 00B6
ENCODING 182
SWIDTH 585 0
DWIDTH 13 0
BBX 10 18 1 -3
BITMAP
0FC0
3900
7900
F900
F900
F900
7900
7900
1900
0900
0900
0900
0900
0900
0900
0900
0900
0900
ENDCHAR
STARTCHAR 00B7
ENCODING 183
SWIDTH 270 0
DWIDTH 6 0
BBX 1 1 3 6
BITMAP
80
ENDCHAR
STARTCHAR 00B8
ENCODING 184
SWIDTH 585 0
DWIDTH 13 0
BBX 3 4 6 -4
BITMAP
80
80
60
E0
ENDCHAR
STARTCHAR 00B9
ENCODING 185
SWIDTH 360 0
DWIDTH 8 0
BBX 6 9 1 7
BITMAP
10
70
90
10
10
10
10
10
FC
ENDCHAR
STARTCHAR 00BA
ENCODING 186
SWIDTH 360 0
DWIDTH 8 0
BBX 6 8 1 8
BITMAP
30
C8
84
84
84
84
84
78
ENDCHAR
STARTCHAR 00BB
ENCODING 187
SWIDTH 450 0
DWIDTH 10 0
BBX 9 8 1 2
BITMAP
8800
4400
2200
1100
0880
1100
2200
4400
ENDCHAR
STARTCHAR 00BC
ENCODING 188
SWIDTH 810 0
DWIDTH 18 0
BBX 16 16 1 0
BITMAP
1000
7004
9008
1008
1010
1020
1020
1040
FC81
0087
0105
0209
0211
0421
041F
0801
ENDCHAR
STARTCHAR 00BD
ENCODING 189
SWIDTH 855 0
DWIDTH 19 0
BBX 17 16 1 0
BITMAP
100000
700400
900800
100800
101000
102000
102000
104000
FC8F80
008080
010080
020080
020100
040200
040400
080F80
ENDCHAR
STARTCHAR 00BE
ENCODING 190
SWIDTH 810 0
DWIDTH 18 0
BBX 15 15 1 0
BITMAP
3004
C808
0810
0810
3020
0840
0840
0880
F086
0106
020A
0212
0422
0842
083E
ENDCHAR
STARTCHAR 00BF
ENCODING 191
SWIDTH 450 0
DWIDTH 10 0
BBX 8 16 1 -5
BITMAP
08
00
00
00
08
08
08
38
40
80
80
80
80
81
42
34
ENDCHAR
STARTCHAR 00C0
ENCODING 192
SWIDTH 585 0
DWIDTH 13 0
BBX 11 20 1 1
BITMAP
0800
0800
0400
0000
0400
0C00
0A00
0A00
1200
1100
1100
2080
2080
2080
3FC0
4040
8040
8020
8020
8020
ENDCHAR
STARTCHAR 00C1
ENCODING 193
SWIDTH 585 0
DWIDTH 13 0
BBX 11 21 1 0
BITMAP
0100
0200
0400
0400
0000
0400
0C00
0A00
0A00
1200
1100
1100
2080
2080
2080
3FC0
4040
8040
8020
8020
8020
ENDCHAR
STARTCHAR 00C2
ENCODING 194
SWIDTH 585 0
DWIDTH 13 0
BBX 11 21 1 0
BITMAP
0400
0A00
1100
0080
0000
0400
0C00
0A00
0A00
1200
1100
1100
2080
2080
2080
3FC0
4040
8040
8020
8020
8020
ENDCHAR
STARTCHAR 00C3
ENCODING 195
SWIDTH 585 0
DWIDTH 13 0
BBX 11 20 1 0
BITMAP
1800
0680
0100
0000
0400
0C00
0A00
0A00
1200
1100
1100
2080
2080
2080
3FC0
4040
8040
8020
8020
8020
ENDCHAR
STARTCHAR 00C4
ENCODING 196
SWIDTH 585 0
DWIDTH 13 0
BBX 11 19 1 0
BITMAP
1100
0000
0000
0400
0C00
0A00
0A00
1200
1100
1100
2080
2080
2080
3FC0
4040
8040
8020
8020
8020
ENDCHAR
STARTCHAR 00C5
ENCODING 197
SWIDTH 585 0
DWIDTH 13 0
BBX 11 21 1 0
BITMAP
0E00
1100
1100
0A00
0400
0400
0C00
0A00
0A00
1200
1100
1100
2080
2080
2080
3FC0
4040
8040
8020
8020
8020
ENDCHAR
STARTCHAR 00C6
ENCODING 198
SWIDTH 855 0
DWIDTH 19 0
BBX 18 16 0 0
BITMAP
007FC0
00C000
014000
024000
024000
044000
044000
084000
087F00
104000
1FC000
204000
204000
404000
804000
807F80
ENDCHAR
STARTCHAR 00C7
ENCODING 199
SWIDTH 585 0
DWIDTH 13 0
BBX 10 20 2 -4
BITMAP
1E00
6180
8040
8000
8000
8000
8000
8000
8000
8000
8000
8000
8000
8040
4080
2100
1E00
0800
0600
0600
ENDCHAR
STARTCHAR 00C8
ENCODING 200
SWIDTH 540 0
DWIDTH 12 0
BBX 9 20 2 1
BITMAP
1000
1000
0800
0000
FF80
8000
8000
8000
8000
8000
8000
8000
FF00
8000
8000
8000
8000
8000
8000
FF00
ENDCHAR
STARTCHAR 00C9
ENCODING 201
SWIDTH 540 0
DWIDTH 12 0
BBX 9 21 2 0
BITMAP
0200
0400
0800
0800
0000
FF80
8000
8000
8000
8000
8000
8000
8000
FF00
8000
8000
8000
8000
8000
8000
FF00
ENDCHAR
STARTCHAR 00CA
ENCODING 202
SWIDTH 540 0
DWIDTH 12 0
BBX 9 21 2 0
BITMAP
0800
1400
2200
0100
0000
FF80
8000
8000
8000
8000
8000
8000
8000
FF00
8000
8000
8000
8000
8000
8000
FF00
ENDCHAR
STARTCHAR 00CB
ENCODING 203
SWIDTH 540 0
DWIDTH 12 0
BBX 9 19 2 0
BITMAP
2200
0000
0000
FF80
8000
8000
8000
8000
8000
8000
8000
FF00
8000
8000
8000
8000
8000
8000
FF00
ENDCHAR
STARTCHAR 00CC
ENCODING 204
SWIDTH 360 0
DWIDTH 8 0
BBX 5 21 2 0
BITMAP
80
80
40
20
00
F8
40
40
40
40
40
40
40
40
40
40
40
40
40
40
70
ENDCHAR
STARTCHAR 00CD
ENCODING 205
SWIDTH 360 0
DWIDTH 8 0
BBX 5 20 2 1
BITMAP
10
20
00
00
F8
40
40
40
40
40
40
40
40
40
40
40
40
40
40
70
ENDCHAR
STARTCHAR 00CE
ENCODING 206
SWIDTH 360 0
DWIDTH 8 0
BBX 6 20 1 1
BITMAP
30
48
84
00
7C
20
20
20
20
20
20
20
20
20
20
20
20
20
20
38
ENDCHAR
STARTCHAR 00CF
ENCODING 207
SWIDTH 360 0
DWIDTH 8 0
BBX 5 19 2 0
BITMAP
88
00
00
F8
40
40
40
40
40
40
40
40
40
40
40
40
40
40
70
ENDCHAR
STARTCHAR 00D0
ENCODING 208
SWIDTH 630 0
DWIDTH 14 0
BBX 11 16 2 0
BITMAP
F800
8380
8040
8040
8020
8020
8020
8020
F020
8020
8020
8020
8040
8040
8080
FF00
ENDCHAR
STARTCHAR 00D1
ENCODING 209
SWIDTH 675 0
DWIDTH 15 0
BBX 11 20 2 0
BITMAP
1800
0680
0100
0000
8000
C020
C020
A020
9020
9020
8820
8820
8420
8220
8220
8120
80A0
80A0
8060
8020
ENDCHAR
STARTCHAR 00D2
ENCODING 210
SWIDTH 675 0
DWIDTH 15 0
BBX 12 21 2 0
BITMAP
1000
0800
0800
0400
0000
0F00
3080
4040
8020
8020
8020
8020
8010
8010
8010
8020
8020
8020
8020
4040
3F80
ENDCHAR
STARTCHAR 00D3
ENCODING 211
SWIDTH 675 0
DWIDTH 15 0
BBX 12 21 2 0
BITMAP
0100
0200
0400
0400
0000
0F00
3080
4040
8020
8020
8020
8020
8010
8010
8010
8020
8020
8020
8020
4040
3F80
ENDCHAR
STARTCHAR 00D4
ENCODING 212
SWIDTH 675 0
DWIDTH 15 0
BBX 12 21 2 0
BITMAP
0400
0A00
1100
0080
0000
0F00
3080
4040
8020
8020
8020
8020
8010
8010
8010
8020
8020
8020
8020
4040
3F80
ENDCHAR
STARTCHAR 00D5
ENCODING 213
SWIDTH 675 0
DWIDTH 15 0
BBX 12 20 2 0
BITMAP
1800
2480
0300
0000
0F00
3080
4040
8020
8020
8020
8020
8010
8010
8010
8020
8020
8020
8020
4040
3F80
ENDCHAR
STARTCHAR 00D6
ENCODING 214
SWIDTH 675 0
DWIDTH 15 0
BBX 12 19 2 0
BITMAP
1100
0000
0000
0F00
3080
4040
8020
8020
8020
8020
8010
8010
8010
8020
8020
8020
8020
4040
3F80
ENDCHAR
STARTCHAR 00D7
ENCODING 215
SWIDTH 585 0
DWIDTH 13 0
BBX 9 9 2 2
BITMAP
8080
4100
2200
1400
0800
1400
2200
4100
0080
ENDCHAR
STARTCHAR 00D8
ENCODING 216
SWIDTH 675 0
DWIDTH 15 0
BBX 12 17 2 -1
BITMAP
0F20
30A0
4040
80A0
8120
8120
8220
8410
8410
8810
9020
9020
A020
C020
4040
B080
0F00
ENDCHAR
STARTCHAR 00D9
ENCODING 217
SWIDTH 630 0
DWIDTH 14 0
BBX 10 21 2 0
BITMAP
1000
1000
0800
0400
0000
8000
8040
8040
8040
8040
8040
8040
8040
8040
8040
8040
8040
8040
8040
4080
3F00
ENDCHAR
STARTCHAR 00DA
ENCODING 218
SWIDTH 630 0
DWIDTH 14 0
BBX 10 20 2 1
BITMAP
0200
0400
0000
0000
8000
8040
8040
8040
8040
8040
8040
8040
8040
8040
8040
8040
8040
8040
4080
3F00
ENDCHAR
STARTCHAR 00DB
ENCODING 219
SWIDTH 630 0
DWIDTH 14 0
BBX 10 21 2 0
BITMAP
0400
0C00
1200
2100
0000
8000
8040
8040
8040
8040
8040
8040
8040
8040
8040
8040
8040
8040
8040
4080
3F00
ENDCHAR
STARTCHAR 00DC
ENCODING 220
SWIDTH 630 0
DWIDTH 14 0
BBX 10 19 2 0
BITMAP
1100
0000
0000
8000
8040
8040
8040
8040
8040
8040
8040
8040
8040
8040
8040
8040
8040
4080
3F00
ENDCHAR
STARTCHAR 00DD
ENCODING 221
SWIDTH 540 0
DWIDTH 12 0
BBX 12 19 0 1
BITMAP
0100
0200
0000
0000
8010
4020
4040
2040
2080
1080
0900
0A00
0600
0400
0400
0400
0400
0400
0400
ENDCHAR
STARTCHAR 00DE
ENCODING 222
SWIDTH 585 0
DWIDTH 13 0
BBX 10 16 2 0
BITMAP
8000
8000
8000
8000
FF80
8040
8040
8040
8040
8040
8040
8080
FF00
8000
8000
8000
ENDCHAR
STARTCHAR 00DF
ENCODING 223
SWIDTH 630 0
DWIDTH 14 0
BBX 11 17 2 0
BITMAP
0E00
3100
4080
4080
8040
8040
8380
8C00
8800
8800
8400
8380
8060
8020
8020
9020
0FC0
ENDCHAR
STARTCHAR 00E0
ENCODING 224
SWIDTH 495 0
DWIDTH 11 0
BBX 9 17 1 0
BITMAP
2000
1000
1000
0800
0000
0800
7600
0100
0100
0100
0100
3F00
C100
8100
8100
8100
7E80
ENDCHAR
STARTCHAR 00E1
ENCODING 225
SWIDTH 495 0
DWIDTH 11 0
BBX 9 17 1 0
BITMAP
0200
0400
0800
0800
0000
0800
7600
0100
0100
0100
0100
3F00
C100
8100
8100
8100
7E80
ENDCHAR
STARTCHAR 00E2
ENCODING 226
SWIDTH 495 0
DWIDTH 11 0
BBX 9 17 1 0
BITMAP
0800
1400
2200
0100
0000
0800
7600
0100
0100
0100
0100
3F00
C100
8100
8100
8100
7E80
ENDCHAR
STARTCHAR 00E3
ENCODING 227
SWIDTH 495 0
DWIDTH 11 0
BBX 9 16 1 0
BITMAP
3000
4900
0600
0000
0800
7600
0100
0100
0100
0100
3F00
C100
8100
8100
8100
7E80
ENDCHAR
STARTCHAR 00E4
ENCODING 228
SWIDTH 495 0
DWIDTH 11 0
BBX 9 15 1 0
BITMAP
2200
0000
0000
0800
7600
0100
0100
0100
0100
3F00
C100
8100
8100
8100
7E80
ENDCHAR
STARTCHAR 00E5
ENCODING 229
SWIDTH 495 0
DWIDTH 11 0
BBX 9 17 1 0
BITMAP
1C00
2200
2400
1400
0800
0800
7600
0100
0100
0100
0100
3F00
C100
8100
8100
8100
7E80
ENDCHAR
STARTCHAR 00E6
ENCODING 230
SWIDTH 855 0
DWIDTH 19 0
BBX 17 12 1 0
BITMAP
080800
767600
018100
010100
010080
010080
3FFF00
C10000
810000
808080
818100
7E7E00
ENDCHAR
STARTCHAR 00E7
ENCODING 231
SWIDTH 450 0
DWIDTH 10 0
BBX 9 15 1 -3
BITMAP
3F00
4080
8000
8000
8000
8000
8000
8000
8000
4080
2100
1E00
0800
0600
0E00
ENDCHAR
STARTCHAR 00E8
ENCODING 232
SWIDTH 495 0
DWIDTH 11 0
BBX 9 16 1 1
BITMAP
1000
0800
0400
0000
0000
3F00
4080
8080
8080
8080
FF00
8000
8000
8000
4080
3F00
ENDCHAR
STARTCHAR 00E9
ENCODING 233
SWIDTH 495 0
DWIDTH 11 0
BBX 9 16 1 1
BITMAP
0600
0400
0800
0000
0000
3F00
4080
8080
8080
8080
FF00
8000
8000
8000
4080
3F00
ENDCHAR
STARTCHAR 00EA
ENCODING 234
SWIDTH 495 0
DWIDTH 11 0
BBX 9 16 1 1
BITMAP
1C00
2200
0100
0000
0000
3F00
4080
8080
8080
8080
FF00
8000
8000
8000
4080
3F00
ENDCHAR
STARTCHAR 00EB
ENCODING 235
SWIDTH 495 0
DWIDTH 11 0
BBX 9 15 1 0
BITMAP
2000
0000
0000
0000
3F00
4080
8080
8080
8080
FF00
8000
8000
8000
4080
3F00
ENDCHAR
STARTCHAR 00EC
ENCODING 236
SWIDTH 225 0
DWIDTH 5 0
BBX 2 16 1 1
BITMAP
80
80
40
00
00
40
40
40
40
40
40
40
40
40
40
40
ENDCHAR
STARTCHAR 00ED
ENCODING 237
SWIDTH 225 0
DWIDTH 5 0
BBX 3 17 2 0
BITMAP
20
40
80
80
00
00
80
80
80
80
80
80
80
80
80
80
80
ENDCHAR
STARTCHAR 00EE
ENCODING 238
SWIDTH 225 0
DWIDTH 5 0
BBX 6 17 0 0
BITMAP
20
50
88
04
00
00
20
20
20
20
20
20
20
20
20
20
20
ENDCHAR
STARTCHAR 00EF
ENCODING 239
SWIDTH 225 0
DWIDTH 5 0
BBX 5 15 0 0
BITMAP
88
00
00
00
20
20
20
20
20
20
20
20
20
20
20
ENDCHAR
STARTCHAR 00F0
ENCODING 240
SWIDTH 540 0
DWIDTH 12 0
BBX 10 17 1 0
BITMAP
0100
1A00
0400
1A00
0200
0100
1E80
6180
8080
8080
8040
8040
8040
8080
8080
4080
3F00
ENDCHAR
STARTCHAR 00F1
ENCODING 241
SWIDTH 540 0
DWIDTH 12 0
BBX 8 16 2 0
BITMAP
20
1A
04
00
08
F6
81
81
81
81
81
81
81
81
81
80
ENDCHAR
STARTCHAR 00F2
ENCODING 242
SWIDTH 540 0
DWIDTH 12 0
BBX 10 16 1 1
BITMAP
1000
0800
0400
0000
0000
3F00
4080
8080
8040
8040
8040
8040
8080
8080
4080
3F00
ENDCHAR
STARTCHAR 00F3
ENCODING 243
SWIDTH 540 0
DWIDTH 12 0
BBX 10 16 1 1
BITMAP
0600
0400
0800
0000
0000
3F00
4080
8080
8040
8040
8040
8040
8080
8080
4080
3F00
ENDCHAR
STARTCHAR 00F4
ENCODING 244
SWIDTH 540 0
DWIDTH 12 0
BBX 10 16 1 1
BITMAP
1C00
2200
0100
0000
0000
3F00
4080
8080
8040
8040
8040
8040
8080
8080
4080
3F00
ENDCHAR
STARTCHAR 00F5
ENCODING 245
SWIDTH 540 0
DWIDTH 12 0
BBX 10 16 1 0
BITMAP
1000
0D00
0200
0000
0000
3F00
4080
8080
8040
8040
8040
8040
8080
8080
4080
3F00
ENDCHAR
STARTCHAR 00F6
ENCODING 246
SWIDTH 540 0
DWIDTH 12 0
BBX 10 15 1 0
BITMAP
0100
0000
0000
0000
3F00
4080
8080
8040
8040
8040
8040
8080
8080
4080
3F00
ENDCHAR
STARTCHAR 00F7
ENCODING 247
SWIDTH 585 0
DWIDTH 13 0
BBX 9 10 2 2
BITMAP
0800
0800
0000
0000
0000
FF80
0000
0000
0000
0800
ENDCHAR
STARTCHAR 00F8
ENCODING 248
SWIDTH 540 0
DWIDTH 12 0
BBX 10 13 1 -1
BITMAP
0440
3B80
4080
8180
8240
8440
8840
9040
9040
A080
4080
A100
1E00
ENDCHAR
STARTCHAR 00F9
ENCODING 249
SWIDTH 540 0
DWIDTH 12 0
BBX 8 16 2 1
BITMAP
20
10
08
00
00
80
81
81
81
81
81
81
81
81
83
7E
ENDCHAR
STARTCHAR 00FA
ENCODING 250
SWIDTH 540 0
DWIDTH 12 0
BBX 8 16 2 1
BITMAP
04
08
00
00
00
80
81
81
81
81
81
81
81
81
83
7E
ENDCHAR
STARTCHAR 00FB
ENCODING 251
SWIDTH 540 0
DWIDTH 12 0
BBX 8 16 2 1
BITMAP
38
44
02
00
00
80
81
81
81
81
81
81
81
81
83
7E
ENDCHAR
STARTCHAR 00FC
ENCODING 252
SWIDTH 540 0
DWIDTH 12 0
BBX 8 15 2 0
BITMAP
22
00
00
00
80
81
81
81
81
81
81
81
81
83
7E
ENDCHAR
STARTCHAR 00FD
ENCODING 253
SWIDTH 450 0
DWIDTH 10 0
BBX 8 20 1 -3
BITMAP
04
08
00
00
00
00
81
82
82
42
44
24
24
28
18
08
10
10
20
60
ENDCHAR
STARTCHAR 00FE
ENCODING 254
SWIDTH 540 0
DWIDTH 12 0
BBX 9 20 2 -4
BITMAP
8000
8000
8000
8000
8800
F700
8100
8080
8080
8080
8080
8080
8080
8080
8100
E200
9C00
8000
8000
8000
ENDCHAR
STARTCHAR 00FF
ENCODING 255
SWIDTH 450 0
DWIDTH 10 0
BBX 8 19 1 -4
BITMAP
22
00
00
00
00
81
82
82
42
44
24
24
28
18
08
10
10
20
60
ENDCHAR
STARTCHAR 0100
ENCODING 256
SWIDTH 585 0
DWIDTH 13 0
BBX 11 19 1 0
BITMAP
0F00
0000
0000
0400
0C00
0A00
0A00
1200
1100
1100
2080
2080
2080
3FC0
4040
8040
8020
8020
8020
ENDCHAR
STARTCHAR 0101
ENCODING 257
SWIDTH 495 0
DWIDTH 11 0
BBX 9 15 1 0
BITMAP
1C00
0000
0000
0800
7600
0100
0100
0100
0100
3F00
C100
8100
8100
8100
7E80
ENDCHAR
STARTCHAR 0102
ENCODING 258
SWIDTH 585 0
DWIDTH 13 0
BBX 11 19 1 1
BITMAP
1100
0E00
0000
0400
0C00
0A00
0A00
1200
1100
1100
2080
2080
2080
3FC0
4040
8040
8020
8020
8020
ENDCHAR
STARTCHAR 0103
ENCODING 259
SWIDTH 495 0
DWIDTH 11 0
BBX 9 15 1 1
BITMAP
2200
1C00
0000
0800
7600
0100
0100
0100
0100
3F00
C100
8100
8100
8100
7E80
ENDCHAR
STARTCHAR 0104
ENCODING 260
SWIDTH 585 0
DWIDTH 13 0
BBX 11 20 1 -4
BITMAP
0400
0C00
0A00
0A00
1200
1100
1100
2080
2080
2080
3FC0
4040
8040
8020
8020
8020
0020
0040
0080
00E0
ENDCHAR
STARTCHAR 0105
ENCODING 261
SWIDTH 495 0
DWIDTH 11 0
BBX 10 16 1 -4
BITMAP
0800
7600
8100
0100
0100
0100
3F00
C100
8100
8100
8100
4300
3CC0
0100
0200
0180
ENDCHAR
STARTCHAR 0106
ENCODING 262
SWIDTH 585 0
DWIDTH 13 0
BBX 10 20 2 1
BITMAP
0200
0400
0000
0000
1E00
6180
8040
8000
8000
8000
8000
8000
8000
8000
8000
8000
8000
8040
4080
3F00
ENDCHAR
STARTCHAR 0107
ENCODING 263
SWIDTH 450 0
DWIDTH 10 0
BBX 9 16 1 1
BITMAP
0600
0400
0800
0000
0000
3F00
4080
8000
8000
8000
8000
8000
8000
8000
4080
3F00
ENDCHAR
STARTCHAR 0108
ENCODING 264
SWIDTH 585 0
DWIDTH 13 0
BBX 10 21 2 0
BITMAP
0400
0A00
1100
2000
0000
1E00
6180
8040
8000
8000
8000
8000
8000
8000
8000
8000
8000
8000
8040
4080
3F00
ENDCHAR
STARTCHAR 0109
ENCODING 265
SWIDTH 450 0
DWIDTH 10 0
BBX 9 16 1 1
BITMAP
1C00
2200
0100
0000
0000
3F00
4080
8000
8000
8000
8000
8000
8000
8000
4080
3F00
ENDCHAR
STARTCHAR 010A
ENCODING 266
SWIDTH 585 0
DWIDTH 13 0
BBX 10 19 2 0
BITMAP
0400
0000
0000
1E00
6180
8040
8000
8000
8000
8000
8000
8000
8000
8000
8000
8000
8040
4080
3F00
ENDCHAR
STARTCHAR 010B
ENCODING 267
SWIDTH 450 0
DWIDTH 10 0
BBX 9 11 1 4
BITMAP
3F00
4080
8000
8000
8000
8000
8000
8000
8000
4080
3F00
ENDCHAR
STARTCHAR 010C
ENCODING 268
SWIDTH 585 0
DWIDTH 13 0
BBX 10 21 2 0
BITMAP
2000
1100
0A00
0400
0000
1E00
6180
8040
8000
8000
8000
8000
8000
8000
8000
8000
8000
8000
8040
4080
3F00
ENDCHAR
STARTCHAR 010D
ENCODING 269
SWIDTH 450 0
DWIDTH 10 0
BBX 9 16 1 1
BITMAP
2300
1400
0800
0000
0000
3F00
4080
8000
8000
8000
8000
8000
8000
8000
4080
3F00
ENDCHAR
STARTCHAR 010E
ENCODING 270
SWIDTH 630 0
DWIDTH 14 0
BBX 11 21 2 0
BITMAP
0100
2200
1400
0800
0000
F800
8780
8040
8040
8020
8020
8020
8020
8020
8020
8020
8020
8040
8040
8080
FF00
ENDCHAR
STARTCHAR 010F
ENCODING 271
SWIDTH 540 0
DWIDTH 12 0
BBX 12 16 1 0
BITMAP
0010
0090
0090
0080
0080
3F80
4080
8080
8080
8080
8080
8080
8080
8080
4080
3F00
ENDCHAR
STARTCHAR 0110
ENCODING 272
SWIDTH 630 0
DWIDTH 14 0
BBX 11 16 2 0
BITMAP
F800
8380
8040
8040
8020
8020
8020
8020
F020
8020
8020
8020
8040
8040
8080
FF00
ENDCHAR
STARTCHAR 0111
ENCODING 273
SWIDTH 540 0
DWIDTH 12 0
BBX 10 15 1 1
BITMAP
0080
03C0
0080
0080
3F80
4080
8080
8080
8080
8080
8080
8080
8080
4080
3F00
ENDCHAR
STARTCHAR 0112
ENCODING 274
SWIDTH 540 0
DWIDTH 12 0
BBX 9 19 2 0
BITMAP
1E00
0000
0000
FF80
8000
8000
8000
8000
8000
8000
8000
FF00
8000
8000
8000
8000
8000
8000
FF00
ENDCHAR
STARTCHAR 0113
ENCODING 275
SWIDTH 495 0
DWIDTH 11 0
BBX 9 15 1 0
BITMAP
1E00
0000
0000
0000
3F00
4080
8080
8080
8080
FF00
8000
8000
8000
4080
3F00
ENDCHAR
STARTCHAR 0114
ENCODING 276
SWIDTH 540 0
DWIDTH 12 0
BBX 9 19 2 1
BITMAP
2200
1C00
0000
FF80
8000
8000
8000
8000
8000
8000
8000
FF00
8000
8000
8000
8000
8000
8000
FF00
ENDCHAR
STARTCHAR 0115
ENCODING 277
SWIDTH 495 0
DWIDTH 11 0
BBX 9 16 1 0
BITMAP
2100
2200
1C00
0000
0000
3F00
4080
8080
8080
8080
FF00
8000
8000
8000
4080
3F00
ENDCHAR
STARTCHAR 0116
ENCODING 278
SWIDTH 540 0
DWIDTH 12 0
BBX 9 19 2 0
BITMAP
0800
0000
0000
FF80
8000
8000
8000
8000
8000
8000
8000
FF00
8000
8000
8000
8000
8000
8000
FF00
ENDCHAR
STARTCHAR 0117
ENCODING 279
SWIDTH 495 0
DWIDTH 11 0
BBX 9 11 1 4
BITMAP
3F00
4080
8080
8080
8080
FF00
8000
8000
8000
4080
3F00
ENDCHAR
STARTCHAR 0118
ENCODING 280
SWIDTH 540 0
DWIDTH 12 0
BBX 9 20 2 -4
BITMAP
FF80
8000
8000
8000
8000
8000
8000
8000
FF00
8000
8000
8000
8000
8000
8000
8000
7F00
0200
0400
0700
ENDCHAR
STARTCHAR 0119
ENCODING 281
SWIDTH 495 0
DWIDTH 11 0
BBX 9 15 1 -3
BITMAP
3F00
4080
8080
8080
8080
FF00
8000
8000
8000
4080
2100
1E00
0800
0800
0E00
ENDCHAR
STARTCHAR 011A
ENCODING 282
SWIDTH 540 0
DWIDTH 12 0
BBX 9 21 2 0
BITMAP
0100
2200
1400
0800
0000
FF80
8000
8000
8000
8000
8000
8000
8000
FF00
8000
8000
8000
8000
8000
8000
FF00
ENDCHAR
STARTCHAR 011B
ENCODING 283
SWIDTH 495 0
DWIDTH 11 0
BBX 9 16 1 1
BITMAP
2300
1400
0800
0000
0000
3F00
4080
8080
8080
8080
FF00
8000
8000
8000
4080
3F00
ENDCHAR
STARTCHAR 011C
ENCODING 284
SWIDTH 630 0
DWIDTH 14 0
BBX 11 21 2 0
BITMAP
0400
0A00
1100
0080
0000
0E00
3180
4040
8000
8000
8000
8000
8000
8000
80E0
8020
8020
8020
8060
4060
3F80
ENDCHAR
STARTCHAR 011D
ENCODING 285
SWIDTH 495 0
DWIDTH 11 0
BBX 10 21 1 -4
BITMAP
1C00
2200
0100
0000
0800
3780
4100
4080
4080
4080
4100
3200
6C00
4000
4000
7F80
8040
8040
8040
8080
7F00
ENDCHAR
STARTCHAR 011E
ENCODING 286
SWIDTH 630 0
DWIDTH 14 0
BBX 11 19 2 1
BITMAP
1100
0E00
0000
0E00
3180
4040
8000
8000
8000
8000
8000
8000
80E0
8020
8020
8020
8060
4060
3F80
ENDCHAR
STARTCHAR 011F
ENCODING 287
SWIDTH 495 0
DWIDTH 11 0
BBX 10 21 1 -5
BITMAP
2100
2200
1C00
0000
0800
3780
4100
4080
4080
4080
4100
3200
6C00
4000
4000
7F80
8040
8040
8040
8080
7F00
ENDCHAR
STARTCHAR 0120
ENCODING 288
SWIDTH 630 0
DWIDTH 14 0
BBX 11 19 2 0
BITMAP
0400
0000
0000
0E00
3180
4040
8000
8000
8000
8000
8000
8000
80E0
8020
8020
8020
8060
4060
3F80
ENDCHAR
STARTCHAR 0121
ENCODING 289
SWIDTH 495 0
DWIDTH 11 0
BBX 10 20 1 -5
BITMAP
0800
0000
0000
0800
3780
4100
4080
4080
4080
4100
3200
6C00
4000
4000
7F80
8040
8040
8040
8080
7F00
ENDCHAR
STARTCHAR 0122
ENCODING 290
SWIDTH 630 0
DWIDTH 14 0
BBX 11 20 2 -5
BITMAP
0E00
3180
4040
8000
8000
8000
8000
8000
8000
80E0
8020
8020
8020
8060
4060
3080
0F00
0400
0400
0400
ENDCHAR
STARTCHAR 0123
ENCODING 291
SWIDTH 495 0
DWIDTH 11 0
BBX 10 22 1 -5
BITMAP
0400
0800
0800
0800
0000
0800
3780
4100
4080
4080
4080
4100
3200
6C00
4000
4000
7F80
8040
8040
8040
8080
7F00
ENDCHAR
STARTCHAR 0124
ENCODING 292
SWIDTH 675 0
DWIDTH 15 0
BBX 11 21 2 0
BITMAP
0400
0A00
1100
0080
0000
8020
8020
8020
8020
8020
8020
8020
8020
FFE0
8020
8020
8020
8020
8020
8020
8020
ENDCHAR
STARTCHAR 0125
ENCODING 293
SWIDTH 540 0
DWIDTH 12 0
BBX 11 20 -1 0
BITMAP
3000
4800
8400
0000
1000
1000
1000
1000
1100
1EC0
1020
1020
1020
1020
1020
1020
1020
1020
1020
1000
ENDCHAR
STARTCHAR 0126
ENCODING 294
SWIDTH 675 0
DWIDTH 15 0
BBX 12 16 2 0
BITMAP
8000
8020
8020
8020
FFF0
8020
8020
8020
FFE0
8020
8020
8020
8020
8020
8020
8020
ENDCHAR
STARTCHAR 0127
ENCODING 295
SWIDTH 540 0
DWIDTH 12 0
BBX 8 16 2 0
BITMAP
80
80
E0
80
88
F6
81
81
81
81
81
81
81
81
81
80
ENDCHAR
STARTCHAR 0128
ENCODING 296
SWIDTH 360 0
DWIDTH 8 0
BBX 5 20 2 0
BITMAP
80
68
10
00
F8
40
40
40
40
40
40
40
40
40
40
40
40
40
40
70
ENDCHAR
STARTCHAR 0129
ENCODING 297
SWIDTH 225 0
DWIDTH 5 0
BBX 7 16 -1 0
BITMAP
60
9A
04
00
00
10
10
10
10
10
10
10
10
10
10
10
ENDCHAR
STARTCHAR 012A
ENCODING 298
SWIDTH 360 0
DWIDTH 8 0
BBX 5 19 2 0
BITMAP
F0
00
00
F8
40
40
40
40
40
40
40
40
40
40
40
40
40
40
70
ENDCHAR
STARTCHAR 012B
ENCODING 299
SWIDTH 225 0
DWIDTH 5 0
BBX 3 15 1 0
BITMAP
E0
00
00
00
40
40
40
40
40
40
40
40
40
40
40
ENDCHAR
STARTCHAR 012C
ENCODING 300
SWIDTH 360 0
DWIDTH 8 0
BBX 5 20 2 0
BITMAP
08
90
60
00
F8
40
40
40
40
40
40
40
40
40
40
40
40
40
40
70
ENDCHAR
STARTCHAR 012D
ENCODING 301
SWIDTH 225 0
DWIDTH 5 0
BBX 5 15 0 1
BITMAP
88
70
00
00
20
20
20
20
20
20
20
20
20
20
20
ENDCHAR
STARTCHAR 012E
ENCODING 302
SWIDTH 360 0
DWIDTH 8 0
BBX 5 20 2 -4
BITMAP
F8
40
40
40
40
40
40
40
40
40
40
40
40
40
40
40
30
20
40
70
ENDCHAR
STARTCHAR 012F
ENCODING 303
SWIDTH 225 0
DWIDTH 5 0
BBX 3 20 0 -4
BITMAP
20
00
00
00
00
20
20
20
20
20
20
20
20
20
20
20
40
80
80
E0
ENDCHAR
STARTCHAR 0130
ENCODING 304
SWIDTH 360 0
DWIDTH 8 0
BBX 5 19 2 0
BITMAP
20
00
00
F8
40
40
40
40
40
40
40
40
40
40
40
40
40
40
70
ENDCHAR
STARTCHAR 0131
ENCODING 305
SWIDTH 225 0
DWIDTH 5 0
BBX 1 11 2 0
BITMAP
80
80
80
80
80
80
80
80
80
80
80
ENDCHAR
STARTCHAR 0132
ENCODING 306
SWIDTH 630 0
DWIDTH 14 0
BBX 10 16 2 0
BITMAP
87C0
8040
8040
8040
8040
8040
8040
8040
8040
8040
0040
0040
0040
8040
8080
7F00
ENDCHAR
STARTCHAR 0133
ENCODING 307
SWIDTH 450 0
DWIDTH 10 0
BBX 6 20 2 -4
BITMAP
84
00
00
00
00
84
84
84
84
84
84
84
84
84
84
84
04
04
04
04
ENDCHAR
STARTCHAR 0134
ENCODING 308
SWIDTH 450 0
DWIDTH 10 0
BBX 8 20 0 1
BITMAP
0C
12
21
00
3F
01
01
01
01
01
01
01
01
01
01
01
01
81
81
7E
ENDCHAR
STARTCHAR 0135
ENCODING 309
SWIDTH 225 0
DWIDTH 5 0
BBX 6 21 0 -4
BITMAP
20
50
88
04
00
00
20
20
20
20
20
20
20
20
20
20
20
20
20
20
60
ENDCHAR
STARTCHAR 0136
ENCODING 310
SWIDTH 540 0
DWIDTH 12 0
BBX 10 21 2 -5
BITMAP
8000
80C0
8100
8200
8200
8400
8800
9800
A800
C400
8200
8200
8100
8080
8080
8040
0000
0000
0800
0800
0800
ENDCHAR
STARTCHAR 0137
ENCODING 311
SWIDTH 450 0
DWIDTH 10 0
BBX 8 21 2 -5
BITMAP
80
80
80
80
80
82
84
88
90
A0
D0
88
84
84
82
81
00
00
10
10
10
ENDCHAR
STARTCHAR 0138
ENCODING 312
SWIDTH 450 0
DWIDTH 10 0
BBX 8 11 2 0
BITMAP
83
84
88
90
A0
D0
88
88
84
82
81
ENDCHAR
STARTCHAR 0139
ENCODING 313
SWIDTH 450 0
DWIDTH 10 0
BBX 7 21 2 0
BITMAP
20
40
80
80
00
80
80
80
80
80
80
80
80
80
80
80
80
80
80
80
FE
ENDCHAR
STARTCHAR 013A
ENCODING 314
SWIDTH 225 0
DWIDTH 5 0
BBX 2 21 2 0
BITMAP
40
40
80
00
00
80
80
80
80
80
80
80
80
80
80
80
80
80
80
80
C0
ENDCHAR
STARTCHAR 013B
ENCODING 315
SWIDTH 450 0
DWIDTH 10 0
BBX 7 20 2 -5
BITMAP
80
80
80
80
80
80
80
80
80
80
80
80
80
80
80
80
7E
08
08
08
ENDCHAR
STARTCHAR 013C
ENCODING 316
SWIDTH 225 0
DWIDTH 5 0
BBX 2 20 2 -5
BITMAP
80
80
80
80
80
80
80
80
80
80
80
80
80
80
80
80
40
40
40
40
ENDCHAR
STARTCHAR 013D
ENCODING 317
SWIDTH 450 0
DWIDTH 10 0
BBX 7 16 2 0
BITMAP
90
90
90
80
80
80
80
80
80
80
80
80
80
80
80
FE
ENDCHAR
STARTCHAR 013E
ENCODING 318
SWIDTH 225 0
DWIDTH 5 0
BBX 4 16 2 0
BITMAP
90
90
80
80
80
80
80
80
80
80
80
80
80
80
80
C0
ENDCHAR
STARTCHAR 013F
ENCODING 319
SWIDTH 450 0
DWIDTH 10 0
BBX 7 16 2 0
BITMAP
80
80
80
80
80
80
80
80
80
84
80
80
80
80
80
FE
ENDCHAR
STARTCHAR 0140
ENCODING 320
SWIDTH 270 0
DWIDTH 6 0
BBX 4 16 2 0
BITMAP
80
80
80
80
80
80
80
80
80
80
90
80
80
80
80
C0
ENDCHAR
STARTCHAR 0141
ENCODING 321
SWIDTH 450 0
DWIDTH 10 0
BBX 9 16 0 0
BITMAP
2000
2000
2000
2000
2000
2000
2000
2000
2C00
F000
2000
2000
2000
2000
2000
3F80
ENDCHAR
STARTCHAR 0142
ENCODING 322
SWIDTH 225 0
DWIDTH 5 0
BBX 3 16 2 0
BITMAP
80
80
80
80
80
80
80
E0
80
80
80
80
80
80
80
C0
ENDCHAR
STARTCHAR 0143
ENCODING 323
SWIDTH 675 0
DWIDTH 15 0
BBX 11 21 2 0
BITMAP
0100
0200
0400
0400
0000
8000
C020
C020
A020
9020
9020
8820
8820
8420
8220
8220
8120
80A0
80A0
8060
8020
ENDCHAR
STARTCHAR 0144
ENCODING 324
SWIDTH 540 0
DWIDTH 12 0
BBX 8 16 2 1
BITMAP
04
08
00
00
08
F6
81
81
81
81
81
81
81
81
81
80
ENDCHAR
STARTCHAR 0145
ENCODING 325
SWIDTH 675 0
DWIDTH 15 0
BBX 11 20 2 -5
BITMAP
8000
C020
C020
A020
9020
9020
8820
8820
8420
8220
8220
8120
80A0
80A0
8060
8020
0000
0400
0400
0400
ENDCHAR
STARTCHAR 0146
ENCODING 326
SWIDTH 540 0
DWIDTH 12 0
BBX 8 16 2 -5
BITMAP
08
F6
81
81
81
81
81
81
81
81
81
80
00
08
08
08
ENDCHAR
STARTCHAR 0147
ENCODING 327
SWIDTH 675 0
DWIDTH 15 0
BBX 11 21 2 0
BITMAP
0080
1100
0A00
0400
0000
8000
C020
C020
A020
9020
9020
8820
8820
8420
8220
8220
8120
80A0
80A0
8060
8020
ENDCHAR
STARTCHAR 0148
ENCODING 328
SWIDTH 540 0
DWIDTH 12 0
BBX 8 17 2 0
BITMAP
40
22
14
08
00
08
F6
81
81
81
81
81
81
81
81
81
80
ENDCHAR
STARTCHAR 0149
ENCODING 329
SWIDTH 720 0
DWIDTH 16 0
BBX 13 17 2 0
BITMAP
8000
8000
8000
8000
0000
0000
0370
0410
0808
0808
0808
0808
0808
0808
0808
0808
0008
ENDCHAR
STARTCHAR 014A
ENCODING 330
SWIDTH 675 0
DWIDTH 15 0
BBX 11 20 2 -4
BITMAP
8000
C020
C020
A020
9020
9020
8820
8820
8420
8220
8220
8120
80A0
80A0
8060
8020
0020
0020
0020
0020
ENDCHAR
STARTCHAR 014B
ENCODING 331
SWIDTH 540 0
DWIDTH 12 0
BBX 8 16 2 -4
BITMAP
08
F6
81
81
81
81
81
81
81
81
81
81
01
01
01
01
ENDCHAR
STARTCHAR 014C
ENCODING 332
SWIDTH 675 0
DWIDTH 15 0
BBX 12 19 2 0
BITMAP
0E00
0000
0000
0F00
3080
4040
8020
8020
8020
8020
8010
8010
8010
8020
8020
8020
8020
4040
3F80
ENDCHAR
STARTCHAR 014D
ENCODING 333
SWIDTH 540 0
DWIDTH 12 0
BBX 10 15 1 0
BITMAP
1E00
0000
0000
0000
3F00
4080
8080
8040
8040
8040
8040
8080
8080
4080
3F00
ENDCHAR
STARTCHAR 014E
ENCODING 334
SWIDTH 675 0
DWIDTH 15 0
BBX 12 19 2 1
BITMAP
1100
0E00
0000
0F00
3080
4040
8020
8020
8020
8020
8010
8010
8010
8020
8020
8020
8020
4040
3F80
ENDCHAR
STARTCHAR 014F
ENCODING 335
SWIDTH 540 0
DWIDTH 12 0
BBX 10 16 1 0
BITMAP
2100
1200
0C00
0000
0000
3F00
4080
8080
8040
8040
8040
8040
8080
8080
4080
3F00
ENDCHAR
STARTCHAR 0150
ENCODING 336
SWIDTH 675 0
DWIDTH 15 0
BBX 12 21 2 0
BITMAP
0040
0480
0900
0100
0000
0F00
3080
4040
8020
8020
8020
8020
8010
8010
8010
8020
8020
8020
8020
4040
3F80
ENDCHAR
STARTCHAR 0151
ENCODING 337
SWIDTH 540 0
DWIDTH 12 0
BBX 10 17 1 0
BITMAP
0400
0880
1100
1000
0000
0000
3F00
4080
8080
8040
8040
8040
8040
8080
8080
4080
3F00
ENDCHAR
STARTCHAR 0152
ENCODING 338
SWIDTH 945 0
DWIDTH 21 0
BBX 18 16 2 0
BITMAP
0FFFC0
304000
404000
804000
804000
804000
804000
804000
807F80
804000
804000
804000
804000
804000
404000
3FFF80
ENDCHAR
STARTCHAR 0153
ENCODING 339
SWIDTH 900 0
DWIDTH 20 0
BBX 18 11 1 1
BITMAP
3F1B80
40A080
80C040
804040
804040
807F80
804000
804000
80C000
40A0C0
3F1F00
ENDCHAR
STARTCHAR 0154
ENCODING 340
SWIDTH 630 0
DWIDTH 14 0
BBX 10 21 2 0
BITMAP
0200
0400
0800
0800
0000
FE00
8180
8040
8040
8040
8040
8040
8080
FF00
8200
8200
8100
8100
8080
8040
8040
ENDCHAR
STARTCHAR 0155
ENCODING 341
SWIDTH 315 0
DWIDTH 7 0
BBX 5 16 2 1
BITMAP
18
10
20
00
00
B0
C0
80
80
80
80
80
80
80
80
80
ENDCHAR
STARTCHAR 0156
ENCODING 342
SWIDTH 630 0
DWIDTH 14 0
BBX 10 20 2 -5
BITMAP
FE00
8180
8040
8040
8040
8040
8040
8080
FF00
8200
8200
8100
8100
8080
8040
8040
0000
0000
0800
0800
ENDCHAR
STARTCHAR 0157
ENCODING 343
SWIDTH 315 0
DWIDTH 7 0
BBX 4 15 2 -5
BITMAP
B0
C0
80
80
80
80
80
80
80
80
80
00
80
80
80
ENDCHAR
STARTCHAR 0158
ENCODING 344
SWIDTH 630 0
DWIDTH 14 0
BBX 10 21 2 0
BITMAP
0100
2200
1400
0800
0000
FE00
8180
8040
8040
8040
8040
8040
8080
FF00
8200
8200
8100
8100
8080
8040
8040
ENDCHAR
STARTCHAR 0159
ENCODING 345
SWIDTH 315 0
DWIDTH 7 0
BBX 6 16 2 1
BITMAP
8C
50
20
00
00
B0
C0
80
80
80
80
80
80
80
80
80
ENDCHAR
STARTCHAR 015A
ENCODING 346
SWIDTH 540 0
DWIDTH 12 0
BBX 10 20 1 1
BITMAP
0600
0400
0800
0000
1E00
6180
8000
8000
8000
8000
4000
3000
0F00
0080
0040
0040
0040
0040
8080
7F00
ENDCHAR
STARTCHAR 015B
ENCODING 347
SWIDTH 450 0
DWIDTH 10 0
BBX 8 16 1 1
BITMAP
0C
08
10
00
08
76
80
80
80
40
3C
02
01
01
81
7E
ENDCHAR
STARTCHAR 015C
ENCODING 348
SWIDTH 540 0
DWIDTH 12 0
BBX 10 20 1 1
BITMAP
1C00
2200
0100
0000
1E00
6180
8000
8000
8000
8000
4000
3000
0F00
0080
0040
0040
0040
0040
8080
7F00
ENDCHAR
STARTCHAR 015D
ENCODING 349
SWIDTH 450 0
DWIDTH 10 0
BBX 8 16 1 1
BITMAP
38
44
02
00
08
76
80
80
80
40
3C
02
01
01
81
7E
ENDCHAR
STARTCHAR 015E
ENCODING 350
SWIDTH 540 0
DWIDTH 12 0
BBX 10 20 1 -4
BITMAP
1E00
6180
8000
8000
8000
8000
4000
3000
0F00
0080
0040
0040
0040
0040
8080
6100
1E00
0800
0600
0E00
ENDCHAR
STARTCHAR 015F
ENCODING 351
SWIDTH 450 0
DWIDTH 10 0
BBX 8 16 1 -4
BITMAP
08
76
80
80
80
40
3C
02
01
01
81
42
3C
10
0C
0C
ENDCHAR
STARTCHAR 0160
ENCODING 352
SWIDTH 540 0
DWIDTH 12 0
BBX 10 20 1 1
BITMAP
2300
1400
0800
0000
1E00
6180
8000
8000
8000
8000
4000
3000
0F00
0080
0040
0040
0040
0040
8080
7F00
ENDCHAR
STARTCHAR 0161
ENCODING 353
SWIDTH 450 0
DWIDTH 10 0
BBX 8 16 1 1
BITMAP
46
28
10
00
08
76
80
80
80
40
3C
02
01
01
81
7E
ENDCHAR
STARTCHAR 0162
ENCODING 354
SWIDTH 540 0
DWIDTH 12 0
BBX 12 20 0 -5
BITMAP
FFF0
0400
0400
0400
0400
0400
0400
0400
0400
0400
0400
0400
0400
0400
0400
0000
0000
0000
0200
0400
ENDCHAR
STARTCHAR 0163
ENCODING 355
SWIDTH 270 0
DWIDTH 6 0
BBX 3 17 2 -4
BITMAP
80
80
E0
80
80
80
80
80
80
80
80
80
00
60
00
20
40
ENDCHAR
STARTCHAR 0164
ENCODING 356
SWIDTH 540 0
DWIDTH 12 0
BBX 12 20 0 0
BITMAP
1000
0880
0500
0200
0000
FFF0
0400
0400
0400
0400
0400
0400
0400
0400
0400
0400
0400
0400
0400
0400
ENDCHAR
STARTCHAR 0165
ENCODING 357
SWIDTH 270 0
DWIDTH 6 0
BBX 4 16 2 0
BITMAP
10
10
00
80
80
E0
80
80
80
80
80
80
80
80
80
60
ENDCHAR
STARTCHAR 0166
ENCODING 358
SWIDTH 540 0
DWIDTH 12 0
BBX 12 15 0 0
BITMAP
FFF0
0400
0400
0400
0400
0400
0400
3FE0
0400
0400
0400
0400
0400
0400
0400
ENDCHAR
STARTCHAR 0167
ENCODING 359
SWIDTH 315 0
DWIDTH 7 0
BBX 5 13 1 1
BITMAP
40
40
70
40
40
40
F8
40
40
40
40
40
30
ENDCHAR
STARTCHAR 0168
ENCODING 360
SWIDTH 630 0
DWIDTH 14 0
BBX 10 20 2 0
BITMAP
1000
0D00
0200
0000
8000
8040
8040
8040
8040
8040
8040
8040
8040
8040
8040
8040
8040
8040
4080
3F00
ENDCHAR
STARTCHAR 0169
ENCODING 361
SWIDTH 540 0
DWIDTH 12 0
BBX 8 16 2 0
BITMAP
20
1A
04
00
00
80
81
81
81
81
81
81
81
81
83
7E
ENDCHAR
STARTCHAR 016A
ENCODING 362
SWIDTH 630 0
DWIDTH 14 0
BBX 10 19 2 0
BITMAP
1E00
0000
0000
8000
8040
8040
8040
8040
8040
8040
8040
8040
8040
8040
8040
8040
8040
4080
3F00
ENDCHAR
STARTCHAR 016B
ENCODING 363
SWIDTH 540 0
DWIDTH 12 0
BBX 8 15 2 0
BITMAP
3C
00
00
00
80
81
81
81
81
81
81
81
81
83
7E
ENDCHAR
STARTCHAR 016C
ENCODING 364
SWIDTH 630 0
DWIDTH 14 0
BBX 10 20 2 0
BITMAP
0100
1200
0C00
0000
8000
8040
8040
8040
8040
8040
8040
8040
8040
8040
8040
8040
8040
8040
4080
3F00
ENDCHAR
STARTCHAR 016D
ENCODING 365
SWIDTH 540 0
DWIDTH 12 0
BBX 8 16 2 0
BITMAP
42
24
10
00
00
80
81
81
81
81
81
81
81
81
83
7E
ENDCHAR
STARTCHAR 016E
ENCODING 366
SWIDTH 630 0
DWIDTH 14 0
BBX 10 21 2 0
BITMAP
1E00
1200
1200
0E00
0000
8000
8040
8040
8040
8040
8040
8040
8040
8040
8040
8040
8040
8040
8040
4080
3F00
ENDCHAR
STARTCHAR 016F
ENCODING 367
SWIDTH 540 0
DWIDTH 12 0
BBX 8 17 2 0
BITMAP
3C
24
24
18
00
00
80
81
81
81
81
81
81
81
81
83
7E
ENDCHAR
STARTCHAR 0170
ENCODING 368
SWIDTH 630 0
DWIDTH 14 0
BBX 10 21 2 0
BITMAP
0400
0880
0900
1000
0000
8000
8040
8040
8040
8040
8040
8040
8040
8040
8040
8040
8040
8040
8040
4080
3F00
ENDCHAR
STARTCHAR 0171
ENCODING 369
SWIDTH 540 0
DWIDTH 12 0
BBX 8 17 2 0
BITMAP
08
11
22
20
00
00
80
81
81
81
81
81
81
81
81
83
7E
ENDCHAR
STARTCHAR 0172
ENCODING 370
SWIDTH 630 0
DWIDTH 14 0
BBX 10 20 2 -4
BITMAP
8000
8040
8040
8040
8040
8040
8040
8040
8040
8040
8040
8040
8040
8040
4080
2100
1E00
0400
0800
0F00
ENDCHAR
STARTCHAR 0173
ENCODING 371
SWIDTH 540 0
DWIDTH 12 0
BBX 8 15 2 -4
BITMAP
80
81
81
81
81
81
81
81
81
83
43
3E
04
04
07
ENDCHAR
STARTCHAR 0174
ENCODING 372
SWIDTH 855 0
DWIDTH 19 0
BBX 18 21 1 0
BITMAP
008000
014000
022000
001000
000000
008040
808080
814080
814080
814080
424100
422100
422100
422100
241200
241200
241200
281200
180C00
180C00
080400
ENDCHAR
STARTCHAR 0175
ENCODING 373
SWIDTH 720 0
DWIDTH 16 0
BBX 14 16 1 1
BITMAP
0700
0880
0040
0000
0000
0100
8304
8508
8508
4488
4888
4890
2850
2850
3060
1020
ENDCHAR
STARTCHAR 0176
ENCODING 374
SWIDTH 540 0
DWIDTH 12 0
BBX 12 19 0 1
BITMAP
0E00
1100
0080
0000
8010
4020
4040
2040
2080
1080
0900
0A00
0600
0400
0400
0400
0400
0400
0400
ENDCHAR
STARTCHAR 0177
ENCODING 375
SWIDTH 450 0
DWIDTH 10 0
BBX 8 20 1 -3
BITMAP
38
44
02
00
00
00
81
82
82
42
44
24
24
28
18
08
10
10
20
60
ENDCHAR
STARTCHAR 0178
ENCODING 376
SWIDTH 540 0
DWIDTH 12 0
BBX 12 18 0 0
BITMAP
0880
0000
0000
8010
4020
4040
2040
2080
1080
0900
0A00
0600
0400
0400
0400
0400
0400
0400
ENDCHAR
STARTCHAR 0179
ENCODING 377
SWIDTH 540 0
DWIDTH 12 0
BBX 10 20 1 1
BITMAP
0200
0400
0000
0000
FFC0
0040
0080
0080
0100
0200
0200
0400
0800
0800
1000
2000
4000
4000
8000
FFC0
ENDCHAR
STARTCHAR 017A
ENCODING 378
SWIDTH 405 0
DWIDTH 9 0
BBX 7 17 1 0
BITMAP
04
08
10
10
00
00
7E
02
04
08
10
10
20
40
40
80
FE
ENDCHAR
STARTCHAR 017B
ENCODING 379
SWIDTH 540 0
DWIDTH 12 0
BBX 10 19 1 0
BITMAP
0400
0000
0000
FFC0
0040
0080
0080
0100
0200
0200
0400
0800
0800
1000
2000
4000
4000
8000
FFC0
ENDCHAR
STARTCHAR 017C
ENCODING 380
SWIDTH 405 0
DWIDTH 9 0
BBX 7 15 1 0
BITMAP
10
00
00
00
7E
02
04
08
10
10
20
40
40
80
FE
ENDCHAR
STARTCHAR 017D
ENCODING 381
SWIDTH 540 0
DWIDTH 12 0
BBX 10 21 1 0
BITMAP
2000
1100
0A00
0400
0000
FFC0
0040
0080
0080
0100
0200
0200
0400
0800
0800
1000
2000
4000
4000
8000
FFC0
ENDCHAR
STARTCHAR 017E
ENCODING 382
SWIDTH 405 0
DWIDTH 9 0
BBX 7 17 1 0
BITMAP
02
44
28
10
00
00
7E
02
04
08
10
10
20
40
40
80
FE
ENDCHAR
STARTCHAR 018F
ENCODING 399
SWIDTH 675 0
DWIDTH 15 0
BBX 12 16 2 0
BITMAP
0F00
3080
4040
8020
8020
0020
0020
0010
FFF0
8010
8020
8020
8020
8020
4040
3F80
ENDCHAR
STARTCHAR 0192
ENCODING 402
SWIDTH 450 0
DWIDTH 10 0
BBX 10 19 0 -3
BITMAP
03C0
0400
0400
0400
0400
0400
0400
0800
0800
3F80
0800
0800
0800
0800
0800
0800
0800
0800
F000
ENDCHAR
STARTCHAR 01A0
ENCODING 416
SWIDTH 675 0
DWIDTH 15 0
BBX 12 18 2 0
BITMAP
0010
0010
0FE0
3080
4040
8020
8020
8020
8020
8010
8010
8010
8020
8020
8020
8020
4040
3F80
ENDCHAR
STARTCHAR 01A1
ENCODING 417
SWIDTH 540 0
DWIDTH 12 0
BBX 10 12 1 1
BITMAP
0080
3F00
4080
8080
8040
8040
8040
8040
8080
8080
4080
3F00
ENDCHAR
STARTCHAR 01AF
ENCODING 431
SWIDTH 630 0
DWIDTH 14 0
BBX 12 17 2 1
BITMAP
0010
8030
8040
8040
8040
8040
8040
8040
8040
8040
8040
8040
8040
8040
8040
4080
3F00
ENDCHAR
STARTCHAR 01B0
ENCODING 432
SWIDTH 540 0
DWIDTH 12 0
BBX 10 14 2 0
BITMAP
0040
0040
0040
8180
8100
8100
8100
8100
8100
8100
8100
8100
8300
7E00
ENDCHAR
STARTCHAR 01FA
ENCODING 506
SWIDTH 585 0
DWIDTH 13 0
BBX 11 24 1 0
BITMAP
0200
0400
0000
0E00
1100
1100
0A00
0400
0400
0C00
0A00
0A00
1200
1100
1100
2080
2080
2080
3FC0
4040
8040
8020
8020
8020
ENDCHAR
STARTCHAR 01FB
ENCODING 507
SWIDTH 495 0
DWIDTH 11 0
BBX 9 20 1 0
BITMAP
0400
0800
0000
1C00
2200
2400
1400
0800
0800
7600
0100
0100
0100
0100
3F00
C100
8100
8100
8100
7E80
ENDCHAR
STARTCHAR 01FC
ENCODING 508
SWIDTH 855 0
DWIDTH 19 0
BBX 18 20 0 1
BITMAP
000200
000400
000000
000000
007FC0
00C000
014000
024000
024000
044000
044000
084000
087F00
104000
1FC000
204000
204000
404000
804000
807F80
ENDCHAR
STARTCHAR 01FD
ENCODING 509
SWIDTH 855 0
DWIDTH 19 0
BBX 17 17 1 0
BITMAP
002000
004000
008000
000000
000000
080800
767600
018100
010100
010080
010080
3FFF00
C10000
810000
808080
818100
7E7E00
ENDCHAR
STARTCHAR 01FE
ENCODING 510
SWIDTH 675 0
DWIDTH 15 0
BBX 12 22 2 -1
BITMAP
0100
0200
0400
0400
0000
0F20
30A0
4040
80A0
8120
8120
8220
8410
8410
8810
9020
9020
A020
C020
4040
B080
0F00
ENDCHAR
STARTCHAR 01FF
ENCODING 511
SWIDTH 540 0
DWIDTH 12 0
BBX 10 17 1 0
BITMAP
0200
0400
0000
0000
0440
3B80
4080
8180
8240
8440
8840
9040
9040
A080
4080
A100
1E00
ENDCHAR
STARTCHAR 0218
ENCODING 536
SWIDTH 540 0
DWIDTH 12 0
BBX 10 21 1 -5
BITMAP
1E00
6180
8000
8000
8000
8000
4000
3000
0F00
0080
0040
0040
0040
0040
8080
6100
1E00
0000
0400
0800
0800
ENDCHAR
STARTCHAR 0219
ENCODING 537
SWIDTH 450 0
DWIDTH 10 0
BBX 8 16 1 -5
BITMAP
08
76
80
80
80
40
3C
02
01
01
81
42
3C
08
08
08
ENDCHAR
STARTCHAR 021A
ENCODING 538
SWIDTH 540 0
DWIDTH 12 0
BBX 12 20 0 -5
BITMAP
FFF0
0400
0400
0400
0400
0400
0400
0400
0400
0400
0400
0400
0400
0400
0400
0000
0000
0000
0200
0400
ENDCHAR
STARTCHAR 021B
ENCODING 539
SWIDTH 270 0
DWIDTH 6 0
BBX 3 17 2 -4
BITMAP
80
80
E0
80
80
80
80
80
80
80
80
80
00
60
00
20
40
ENDCHAR
STARTCHAR 0237
ENCODING 567
SWIDTH 225 0
DWIDTH 5 0
BBX 2 15 1 -4
BITMAP
40
40
40
40
40
40
40
40
40
40
40
40
40
40
C0
ENDCHAR
STARTCHAR 0259
ENCODING 601
SWIDTH 495 0
DWIDTH 11 0
BBX 10 11 1 1
BITMAP
3700
4080
0080
0080
0080
FFC0
8080
8080
8080
4080
3F00
ENDCHAR
STARTCHAR 02BB
ENCODING 699
SWIDTH 585 0
DWIDTH 13 0
BBX 2 4 6 13
BITMAP
40
80
80
80
ENDCHAR
STARTCHAR 02BC
ENCODING 700
SWIDTH 585 0
DWIDTH 13 0
BBX 1 3 5 13
BITMAP
80
80
80
ENDCHAR
STARTCHAR 02C6
ENCODING 710
SWIDTH 585 0
DWIDTH 13 0
BBX 6 4 4 13
BITMAP
20
50
88
04
ENDCHAR
STARTCHAR 02C7
ENCODING 711
SWIDTH 585 0
DWIDTH 13 0
BBX 6 4 4 13
BITMAP
04
88
50
20
ENDCHAR
STARTCHAR 02D8
ENCODING 728
SWIDTH 585 0
DWIDTH 13 0
BBX 5 2 4 14
BITMAP
88
70
ENDCHAR
STARTCHAR 02D9
ENCODING 729
SWIDTH 585 0
DWIDTH 13 0
BBX 1 1 6 14
BITMAP
80
ENDCHAR
STARTCHAR 02DA
ENCODING 730
SWIDTH 585 0
DWIDTH 13 0
BBX 4 4 5 13
BITMAP
E0
90
90
E0
ENDCHAR
STARTCHAR 02DB
ENCODING 731
SWIDTH 585 0
DWIDTH 13 0
BBX 2 4 4 -4
BITMAP
40
80
80
C0
ENDCHAR
STARTCHAR 02DC
ENCODING 732
SWIDTH 585 0
DWIDTH 13 0
BBX 6 2 4 14
BITMAP
C0
3C
ENDCHAR
STARTCHAR 02DD
ENCODING 733
SWIDTH 585 0
DWIDTH 13 0
BBX 6 4 5 13
BITMAP
04
48
88
10
ENDCHAR
STARTCHAR 0300
ENCODING 768
SWIDTH 0 0
DWIDTH 0 0
BBX 3 3 -2 14
BITMAP
80
40
20
ENDCHAR
STARTCHAR 0301
ENCODING 769
SWIDTH 0 0
DWIDTH 0 0
BBX 3 3 -1 14
BITMAP
60
40
80
ENDCHAR
STARTCHAR 0302
ENCODING 770
SWIDTH 0 0
DWIDTH 0 0
BBX 6 3 -3 14
BITMAP
70
88
04
ENDCHAR
STARTCHAR 0303
ENCODING 771
SWIDTH 0 0
DWIDTH 0 0
BBX 5 2 -2 14
BITMAP
80
78
ENDCHAR
STARTCHAR 0304
ENCODING 772
SWIDTH 0 0
DWIDTH 0 0
BBX 4 1 -2 14
BITMAP
F0
ENDCHAR
STARTCHAR 0306
ENCODING 774
SWIDTH 0 0
DWIDTH 0 0
BBX 6 3 -3 13
BITMAP
84
48
30
ENDCHAR
STARTCHAR 0307
ENCODING 775
SWIDTH 0 0
DWIDTH 0 0
BBX 0 0 0 14
BITMAP
ENDCHAR
STARTCHAR 0308
ENCODING 776
SWIDTH 0 0
DWIDTH 0 0
BBX 1 1 2 14
BITMAP
80
ENDCHAR
STARTCHAR 0309
ENCODING 777
SWIDTH 0 0
DWIDTH 0 0
BBX 3 2 -1 13
BITMAP
E0
40
ENDCHAR
STARTCHAR 030A
ENCODING 778
SWIDTH 0 0
DWIDTH 0 0
BBX 4 4 -2 13
BITMAP
F0
90
90
60
ENDCHAR
STARTCHAR 030B
ENCODING 779
SWIDTH 0 0
DWIDTH 0 0
BBX 6 4 -2 13
BITMAP
20
44
88
80
ENDCHAR
STARTCHAR 030C
ENCODING 780
SWIDTH 0 0
DWIDTH 0 0
BBX 6 3 -3 14
BITMAP
8C
50
20
ENDCHAR
STARTCHAR 0312
ENCODING 786
SWIDTH 0 0
DWIDTH 0 0
BBX 1 3 0 13
BITMAP
80
80
80
ENDCHAR
STARTCHAR 0315
ENCODING 789
SWIDTH 0 0
DWIDTH 0 0
BBX 1 3 0 13
BITMAP
80
80
80
ENDCHAR
STARTCHAR 031B
ENCODING 795
SWIDTH 0 0
DWIDTH 0 0
BBX 2 3 -1 11
BITMAP
40
40
C0
ENDCHAR
STARTCHAR 0323
ENCODING 803
SWIDTH 0 0
DWIDTH 0 0
BBX 2 1 -1 -3
BITMAP
C0
ENDCHAR
STARTCHAR 0326
ENCODING 806
SWIDTH 0 0
DWIDTH 0 0
BBX 1 3 -1 -4
BITMAP
80
80
80
ENDCHAR
STARTCHAR 0327
ENCODING 807
SWIDTH 0 0
DWIDTH 0 0
BBX 3 3 -1 -3
BITMAP
80
60
E0
ENDCHAR
STARTCHAR 0328
ENCODING 808
SWIDTH 0 0
DWIDTH 0 0
BBX 3 4 -3 -4
BITMAP
60
80
80
C0
ENDCHAR
STARTCHAR 037E
ENCODING 894
SWIDTH 225 0
DWIDTH 5 0
BBX 1 13 2 -3
BITMAP
80
00
00
00
00
00
00
00
00
00
80
80
80
ENDCHAR
STARTCHAR 0384
ENCODING 900
SWIDTH 585 0
DWIDTH 13 0
BBX 2 2 6 14
BITMAP
40
80
ENDCHAR
STARTCHAR 0385
ENCODING 901
SWIDTH 585 0
DWIDTH 13 0
BBX 5 3 4 13
BITMAP
10
20
A8
ENDCHAR
STARTCHAR 0386
ENCODING 902
SWIDTH 585 0
DWIDTH 13 0
BBX 11 17 1 0
BITMAP
2000
4400
4C00
4A00
0A00
1200
1100
1100
2080
2080
2080
3FC0
4040
8040
8020
8020
8020
ENDCHAR
STARTCHAR 0387
ENCODING 903
SWIDTH 225 0
DWIDTH 5 0
BBX 1 1 2 10
BITMAP
80
ENDCHAR
STARTCHAR 0388
ENCODING 904
SWIDTH 540 0
DWIDTH 12 0
BBX 11 17 0 0
BITMAP
4000
9FE0
A000
2000
2000
2000
2000
2000
2000
3FC0
2000
2000
2000
2000
2000
2000
1FC0
ENDCHAR
STARTCHAR 0389
ENCODING 905
SWIDTH 675 0
DWIDTH 15 0
BBX 13 16 0 0
BITMAP
4000
8000
A008
2008
2008
2008
2008
2008
2008
2FF8
2008
2008
2008
2008
2008
2008
ENDCHAR
STARTCHAR 038A
ENCODING 906
SWIDTH 405 0
DWIDTH 9 0
BBX 8 17 0 0
BITMAP
40
9F
84
04
04
04
04
04
04
04
04
04
04
04
04
04
0E
ENDCHAR
STARTCHAR 038C
ENCODING 908
SWIDTH 675 0
DWIDTH 15 0
BBX 14 17 0 0
BITMAP
4000
83C0
8C20
1010
2008
2008
4008
4008
4004
4004
4004
4008
4008
2008
2008
1010
0FE0
ENDCHAR
STARTCHAR 038E
ENCODING 910
SWIDTH 585 0
DWIDTH 13 0
BBX 13 16 0 0
BITMAP
4000
A000
A008
1010
0810
0820
0440
0440
0280
0180
0100
0100
0100
0100
0100
0100
ENDCHAR
STARTCHAR 038F
ENCODING 911
SWIDTH 675 0
DWIDTH 15 0
BBX 14 17 0 0
BITMAP
4000
83C0
8C30
1008
2008
2008
4004
4004
4004
4004
4004
4004
2008
2008
1010
0820
1C78
ENDCHAR
STARTCHAR 0390
ENCODING 912
SWIDTH 225 0
DWIDTH 5 0
BBX 5 17 0 0
BITMAP
10
20
A8
20
00
00
20
20
20
20
20
20
20
20
20
20
30
ENDCHAR
STARTCHAR 0391
ENCODING 913
SWIDTH 585 0
DWIDTH 13 0
BBX 11 16 1 0
BITMAP
0400
0C00
0A00
0A00
1200
1100
1100
2080
2080
2080
3FC0
4040
8040
8020
8020
8020
ENDCHAR
STARTCHAR 0392
ENCODING 914
SWIDTH 585 0
DWIDTH 13 0
BBX 10 16 2 0
BITMAP
FC00
8380
8080
8080
8040
8080
8080
8100
FE80
8040
8040
8040
8040
8040
8040
FF80
ENDCHAR
STARTCHAR 0393
ENCODING 915
SWIDTH 495 0
DWIDTH 11 0
BBX 8 16 2 0
BITMAP
FF
80
80
80
80
80
80
80
80
80
80
80
80
80
80
80
ENDCHAR
STARTCHAR 0394
ENCODING 916
SWIDTH 585 0
DWIDTH 13 0
BBX 11 16 1 0
BITMAP
0400
0C00
0A00
0A00
1200
1100
1100
2080
2080
2080
4040
4040
8040
8020
8020
FFE0
ENDCHAR
STARTCHAR 0395
ENCODING 917
SWIDTH 540 0
DWIDTH 12 0
BBX 9 16 2 0
BITMAP
FF80
8000
8000
8000
8000
8000
8000
8000
FF00
8000
8000
8000
8000
8000
8000
FF00
ENDCHAR
STARTCHAR 0396
ENCODING 918
SWIDTH 540 0
DWIDTH 12 0
BBX 10 16 1 0
BITMAP
FFC0
0040
0080
0080
0100
0200
0200
0400
0800
0800
1000
2000
4000
4000
8000
FFC0
ENDCHAR
STARTCHAR 0397
ENCODING 919
SWIDTH 675 0
DWIDTH 15 0
BBX 11 16 2 0
BITMAP
8020
8020
8020
8020
8020
8020
8020
8020
FFE0
8020
8020
8020
8020
8020
8020
8020
ENDCHAR
STARTCHAR 0398
ENCODING 920
SWIDTH 675 0
DWIDTH 15 0
BBX 12 16 2 0
BITMAP
0F00
3080
4040
8020
8020
8020
8020
8010
9F10
8010
8020
8020
8020
8020
4040
3F80
ENDCHAR
STARTCHAR 0399
ENCODING 921
SWIDTH 360 0
DWIDTH 8 0
BBX 5 16 2 0
BITMAP
F8
40
40
40
40
40
40
40
40
40
40
40
40
40
40
70
ENDCHAR
STARTCHAR 039A
ENCODING 922
SWIDTH 540 0
DWIDTH 12 0
BBX 10 16 2 0
BITMAP
8000
80C0
8100
8200
8200
8400
8800
9800
A800
C400
8200
8200
8100
8080
8080
8040
ENDCHAR
STARTCHAR 039B
ENCODING 923
SWIDTH 585 0
DWIDTH 13 0
BBX 11 15 1 0
BITMAP
0400
0C00
0A00
0A00
1200
1100
1100
2100
2080
2080
4080
4040
8040
8020
8020
ENDCHAR
STARTCHAR 039C
ENCODING 924
SWIDTH 765 0
DWIDTH 17 0
BBX 13 16 2 0
BITMAP
8000
C018
C018
A028
9028
9048
8888
8888
8508
8308
8008
8008
8008
8008
8008
8000
ENDCHAR
STARTCHAR 039D
ENCODING 925
SWIDTH 675 0
DWIDTH 15 0
BBX 11 16 2 0
BITMAP
8000
C020
C020
A020
9020
9020
8820
8820
8420
8220
8220
8120
80A0
80A0
8060
8020
ENDCHAR
STARTCHAR 039E
ENCODING 926
SWIDTH 540 0
DWIDTH 12 0
BBX 9 16 2 0
BITMAP
FF80
0000
0000
0000
0000
0000
0000
0000
7E00
0000
0000
0000
0000
0000
0000
7F00
ENDCHAR
STARTCHAR 039F
ENCODING 927
SWIDTH 675 0
DWIDTH 15 0
BBX 12 16 2 0
BITMAP
0F00
3080
4040
8020
8020
8020
8020
8010
8010
8010
8020
8020
8020
8020
4040
3F80
ENDCHAR
STARTCHAR 03A0
ENCODING 928
SWIDTH 675 0
DWIDTH 15 0
BBX 11 16 2 0
BITMAP
FFE0
8020
8020
8020
8020
8020
8020
8020
8020
8020
8020
8020
8020
8020
8020
8020
ENDCHAR
STARTCHAR 03A1
ENCODING 929
SWIDTH 585 0
DWIDTH 13 0
BBX 10 16 2 0
BITMAP
FE00
8180
8040
8040
8040
8040
8040
8080
FF00
8000
8000
8000
8000
8000
8000
8000
ENDCHAR
STARTCHAR 03A3
ENCODING 931
SWIDTH 540 0
DWIDTH 12 0
BBX 10 16 1 0
BITMAP
FFC0
8000
4000
2000
1000
0800
0800
0400
0200
0400
0800
1000
2000
4000
4000
FF80
ENDCHAR
STARTCHAR 03A4
ENCODING 932
SWIDTH 540 0
DWIDTH 12 0
BBX 12 15 0 0
BITMAP
FFF0
0400
0400
0400
0400
0400
0400
0400
0400
0400
0400
0400
0400
0400
0400
ENDCHAR
STARTCHAR 03A5
ENCODING 933
SWIDTH 540 0
DWIDTH 12 0
BBX 12 15 0 0
BITMAP
8010
4020
4040
2040
2080
1080
0900
0A00
0600
0400
0400
0400
0400
0400
0400
ENDCHAR
STARTCHAR 03A6
ENCODING 934
SWIDTH 810 0
DWIDTH 18 0
BBX 16 15 1 0
BITMAP
07F0
190C
6102
4102
8101
8101
8101
8101
8101
8101
4102
4102
2104
1918
07E0
ENDCHAR
STARTCHAR 03A7
ENCODING 935
SWIDTH 540 0
DWIDTH 12 0
BBX 11 16 1 0
BITMAP
0020
8040
4080
4080
2100
1200
1200
0C00
0400
0C00
1200
2100
2100
4080
8040
8040
ENDCHAR
STARTCHAR 03A8
ENCODING 936
SWIDTH 720 0
DWIDTH 16 0
BBX 13 16 2 0
BITMAP
0208
8208
8208
8208
8208
8208
8208
8208
8210
4210
2220
1FC0
0200
0200
0200
0200
ENDCHAR
STARTCHAR 03A9
ENCODING 937
SWIDTH 675 0
DWIDTH 15 0
BBX 12 16 2 0
BITMAP
0F00
30C0
4020
8020
8020
8010
8010
8010
8010
8010
8010
8020
8020
4040
2080
71E0
ENDCHAR
STARTCHAR 03AA
ENCODING 938
SWIDTH 360 0
DWIDTH 8 0
BBX 5 19 2 0
BITMAP
88
00
00
F8
40
40
40
40
40
40
40
40
40
40
40
40
40
40
70
ENDCHAR
STARTCHAR 03AB
ENCODING 939
SWIDTH 540 0
DWIDTH 12 0
BBX 12 18 0 0
BITMAP
0880
0000
0000
8010
4020
4040
2040
2080
1080
0900
0A00
0600
0400
0400
0400
0400
0400
0400
ENDCHAR
STARTCHAR 03AC
ENCODING 940
SWIDTH 630 0
DWIDTH 14 0
BBX 11 17 1 0
BITMAP
0200
0400
0400
0000
0000
0800
3600
4120
80C0
80C0
8040
8080
8040
80C0
8140
4140
3E20
ENDCHAR
STARTCHAR 03AD
ENCODING 941
SWIDTH 495 0
DWIDTH 11 0
BBX 8 17 2 0
BITMAP
04
08
08
00
00
08
77
80
80
80
40
78
80
80
80
81
7E
ENDCHAR
STARTCHAR 03AE
ENCODING 942
SWIDTH 540 0
DWIDTH 12 0
BBX 8 19 2 -3
BITMAP
04
08
08
00
08
F6
81
81
81
81
81
81
81
81
81
01
01
01
01
ENDCHAR
STARTCHAR 03AF
ENCODING 943
SWIDTH 225 0
DWIDTH 5 0
BBX 2 16 2 1
BITMAP
40
80
00
00
00
80
80
80
80
80
80
80
80
80
80
C0
ENDCHAR
STARTCHAR 03B0
ENCODING 944
SWIDTH 540 0
DWIDTH 12 0
BBX 8 16 2 1
BITMAP
08
32
10
00
00
80
81
81
81
81
81
81
81
81
82
7E
ENDCHAR
STARTCHAR 03B1
ENCODING 945
SWIDTH 630 0
DWIDTH 14 0
BBX 11 12 1 0
BITMAP
0800
3600
4120
80C0
80C0
8040
8080
8040
80C0
8140
4140
3E20
ENDCHAR
STARTCHAR 03B2
ENCODING 946
SWIDTH 540 0
DWIDTH 12 0
BBX 9 21 2 -4
BITMAP
1C00
6200
8100
8100
8100
8100
8100
8200
8E00
8100
8080
8080
8080
8080
8080
8100
E200
9C00
8000
8000
8000
ENDCHAR
STARTCHAR 03B3
ENCODING 947
SWIDTH 450 0
DWIDTH 10 0
BBX 9 15 1 -4
BITMAP
8080
8100
4100
4200
4200
2200
2400
2400
1400
1800
0800
0800
0800
0800
0800
ENDCHAR
STARTCHAR 03B4
ENCODING 948
SWIDTH 540 0
DWIDTH 12 0
BBX 10 16 1 0
BITMAP
7F00
3000
0800
0400
0200
1D00
6100
4080
8080
8040
8040
8040
8040
8080
4080
3F00
ENDCHAR
STARTCHAR 03B5
ENCODING 949
SWIDTH 495 0
DWIDTH 11 0
BBX 8 12 2 0
BITMAP
08
77
80
80
80
40
78
80
80
80
81
7E
ENDCHAR
STARTCHAR 03B6
ENCODING 950
SWIDTH 405 0
DWIDTH 9 0
BBX 8 20 1 -4
BITMAP
3F
02
04
08
10
20
20
40
80
80
80
80
80
40
20
1C
02
02
02
02
ENDCHAR
STARTCHAR 03B7
ENCODING 951
SWIDTH 540 0
DWIDTH 12 0
BBX 8 15 2 -4
BITMAP
08
F6
81
81
81
81
81
81
81
81
81
01
01
01
01
ENDCHAR
STARTCHAR 03B8
ENCODING 952
SWIDTH 540 0
DWIDTH 12 0
BBX 9 17 2 0
BITMAP
1800
6600
8100
8100
8100
8100
8080
8080
8080
FF80
8080
8080
8100
8100
8100
8200
7E00
ENDCHAR
STARTCHAR 03B9
ENCODING 953
SWIDTH 225 0
DWIDTH 5 0
BBX 2 11 2 0
BITMAP
80
80
80
80
80
80
80
80
80
80
C0
ENDCHAR
STARTCHAR 03BA
ENCODING 954
SWIDTH 450 0
DWIDTH 10 0
BBX 8 11 2 0
BITMAP
82
84
88
90
A0
D0
88
84
84
82
81
ENDCHAR
STARTCHAR 03BB
ENCODING 955
SWIDTH 450 0
DWIDTH 10 0
BBX 9 16 0 0
BITMAP
1000
1000
1000
0800
0800
0800
1400
1400
1400
2200
2200
2200
4100
4100
8100
0080
ENDCHAR
STARTCHAR 03BC
ENCODING 956
SWIDTH 540 0
DWIDTH 12 0
BBX 9 15 2 -4
BITMAP
8000
8100
8100
8100
8100
8100
8100
8100
8100
8100
E200
9C80
8000
8000
8000
ENDCHAR
STARTCHAR 03BD
ENCODING 957
SWIDTH 450 0
DWIDTH 10 0
BBX 9 11 1 0
BITMAP
8080
8100
4100
4200
4200
2200
2400
2400
1400
1800
0800
ENDCHAR
STARTCHAR 03BE
ENCODING 958
SWIDTH 450 0
DWIDTH 10 0
BBX 8 19 1 -4
BITMAP
3E
40
40
40
40
40
30
2C
40
80
80
80
80
40
20
1C
03
01
02
ENDCHAR
STARTCHAR 03BF
ENCODING 959
SWIDTH 540 0
DWIDTH 12 0
BBX 10 11 1 1
BITMAP
3F00
4080
8080
8040
8040
8040
8040
8080
8080
4080
3F00
ENDCHAR
STARTCHAR 03C0
ENCODING 960
SWIDTH 585 0
DWIDTH 13 0
BBX 9 11 2 0
BITMAP
FF80
8100
8100
8100
8100
8100
8100
8100
8100
8100
0180
ENDCHAR
STARTCHAR 03C1
ENCODING 961
SWIDTH 495 0
DWIDTH 11 0
BBX 9 14 2 -3
BITMAP
7600
8100
8100
8100
8080
8080
8100
8100
8100
8100
C200
BC00
8000
8000
ENDCHAR
STARTCHAR 03C2
ENCODING 962
SWIDTH 450 0
DWIDTH 10 0
BBX 9 14 1 -3
BITMAP
3F00
4080
8000
8000
8000
8000
8000
8000
4000
2000
1C00
0300
0100
0200
ENDCHAR
STARTCHAR 03C3
ENCODING 963
SWIDTH 540 0
DWIDTH 12 0
BBX 10 11 1 0
BITMAP
3FC0
4080
8080
8080
8040
8040
8040
8080
8080
4080
3F00
ENDCHAR
STARTCHAR 03C4
ENCODING 964
SWIDTH 450 0
DWIDTH 10 0
BBX 7 11 2 0
BITMAP
FE
20
20
20
20
20
20
20
20
20
18
ENDCHAR
STARTCHAR 03C5
ENCODING 965
SWIDTH 540 0
DWIDTH 12 0
BBX 8 11 2 0
BITMAP
80
81
81
81
81
81
81
81
81
82
7E
ENDCHAR
STARTCHAR 03C6
ENCODING 966
SWIDTH 675 0
DWIDTH 15 0
BBX 13 15 1 -4
BITMAP
0040
61B0
4210
8210
8208
8408
8408
8410
8410
8410
4420
3440
0F80
0400
0400
ENDCHAR
STARTCHAR 03C7
ENCODING 967
SWIDTH 450 0
DWIDTH 10 0
BBX 8 15 1 -4
BITMAP
80
43
42
44
24
28
18
10
18
28
24
44
42
82
03
ENDCHAR
STARTCHAR 03C8
ENCODING 968
SWIDTH 675 0
DWIDTH 15 0
BBX 11 20 2 -4
BITMAP
0400
0400
0400
0400
0400
8400
8420
8420
8420
8420
8420
8420
8420
8420
8440
6480
1F00
0400
0400
0400
ENDCHAR
STARTCHAR 03C9
ENCODING 969
SWIDTH 675 0
DWIDTH 15 0
BBX 13 11 1 1
BITMAP
2010
4010
8008
8008
8208
8208
8208
8208
8208
4510
7DF0
ENDCHAR
STARTCHAR 03CA
ENCODING 970
SWIDTH 225 0
DWIDTH 5 0
BBX 5 15 0 0
BITMAP
88
00
00
00
20
20
20
20
20
20
20
20
20
20
30
ENDCHAR
STARTCHAR 03CB
ENCODING 971
SWIDTH 540 0
DWIDTH 12 0
BBX 8 15 2 0
BITMAP
22
00
00
00
80
81
81
81
81
81
81
81
81
82
7E
ENDCHAR
STARTCHAR 03CC
ENCODING 972
SWIDTH 540 0
DWIDTH 12 0
BBX 10 17 1 0
BITMAP
0200
0400
0400
0000
0000
0000
3F00
4080
8080
8040
8040
8040
8040
8080
8080
4080
3F00
ENDCHAR
STARTCHAR 03CD
ENCODING 973
SWIDTH 540 0
DWIDTH 12 0
BBX 8 17 2 0
BITMAP
04
08
08
00
00
00
80
81
81
81
81
81
81
81
81
82
7E
ENDCHAR
STARTCHAR 03CE
ENCODING 974
SWIDTH 675 0
DWIDTH 15 0
BBX 13 16 1 1
BITMAP
0100
0200
0000
0000
0000
2010
4010
8008
8008
8208
8208
8208
8208
8208
4510
7DF0
ENDCHAR
STARTCHAR 0400
ENCODING 1024
SWIDTH 540 0
DWIDTH 12 0
BBX 9 20 2 1
BITMAP
1000
1000
0800
0000
FF80
8000
8000
8000
8000
8000
8000
8000
FF00
8000
8000
8000
8000
8000
8000
FF00
ENDCHAR
STARTCHAR 0401
ENCODING 1025
SWIDTH 540 0
DWIDTH 12 0
BBX 9 19 2 0
BITMAP
2200
0000
0000
FF80
8000
8000
8000
8000
8000
8000
8000
FF00
8000
8000
8000
8000
8000
8000
FF00
ENDCHAR
STARTCHAR 0402
ENCODING 1026
SWIDTH 765 0
DWIDTH 17 0
BBX 16 20 0 -4
BITMAP
FFF0
0400
0400
0400
0400
0400
0400
03FC
0402
0402
0401
0401
0401
0401
0401
0001
0001
0002
0002
001C
ENDCHAR
STARTCHAR 0403
ENCODING 1027
SWIDTH 495 0
DWIDTH 11 0
BBX 8 20 2 1
BITMAP
04
08
00
00
FF
80
80
80
80
80
80
80
80
80
80
80
80
80
80
80
ENDCHAR
STARTCHAR 0404
ENCODING 1028
SWIDTH 585 0
DWIDTH 13 0
BBX 10 16 2 0
BITMAP
1E00
6180
8040
8000
8000
8000
8000
8000
FE00
8000
8000
8000
8000
8040
4080
3F00
ENDCHAR
STARTCHAR 0405
ENCODING 1029
SWIDTH 540 0
DWIDTH 12 0
BBX 10 16 1 0
BITMAP
1E00
6180
8000
8000
8000
8000
4000
3000
0F00
0080
0040
0040
0040
0040
8080
7F00
ENDCHAR
STARTCHAR 0406
ENCODING 1030
SWIDTH 360 0
DWIDTH 8 0
BBX 5 16 2 0
BITMAP
F8
40
40
40
40
40
40
40
40
40
40
40
40
40
40
70
ENDCHAR
STARTCHAR 0407
ENCODING 1031
SWIDTH 360 0
DWIDTH 8 0
BBX 5 19 2 0
BITMAP
88
00
00
F8
40
40
40
40
40
40
40
40
40
40
40
40
40
40
70
ENDCHAR
STARTCHAR 0408
ENCODING 1032
SWIDTH 450 0
DWIDTH 10 0
BBX 8 16 0 0
BITMAP
3F
01
01
01
01
01
01
01
01
01
01
01
01
81
81
7E
ENDCHAR
STARTCHAR 0409
ENCODING 1033
SWIDTH 945 0
DWIDTH 21 0
BBX 19 16 1 0
BITMAP
1FC000
104000
104000
104000
104000
104000
204000
203F80
204060
204020
204020
204020
204020
404020
404020
807FC0
ENDCHAR
STARTCHAR 040A
ENCODING 1034
SWIDTH 990 0
DWIDTH 22 0
BBX 20 16 2 0
BITMAP
800000
804000
804000
804000
804000
804000
804000
804000
FFFFC0
804020
804020
804010
804010
804020
804020
807FC0
ENDCHAR
STARTCHAR 040B
ENCODING 1035
SWIDTH 765 0
DWIDTH 17 0
BBX 16 16 0 0
BITMAP
FFF0
0400
0400
0400
0400
0400
0400
03FC
0402
0401
0401
0401
0401
0401
0401
0001
ENDCHAR
STARTCHAR 040C
ENCODING 1036
SWIDTH 585 0
DWIDTH 13 0
BBX 10 21 2 0
BITMAP
0200
0400
0400
0800
0000
8040
8080
8100
8100
8200
8400
8400
8800
F800
8400
8400
8200
8100
8100
8080
80C0
ENDCHAR
STARTCHAR 040D
ENCODING 1037
SWIDTH 675 0
DWIDTH 15 0
BBX 11 20 2 1
BITMAP
0800
0800
0400
0000
8000
8060
8060
80A0
8120
8120
8220
8420
8420
8820
9020
9020
A020
C020
C020
8000
ENDCHAR
STARTCHAR 040E
ENCODING 1038
SWIDTH 540 0
DWIDTH 12 0
BBX 11 20 1 0
BITMAP
1100
1100
0E00
0000
0000
8020
8040
4040
4080
2080
2080
1100
1100
0A00
0A00
0600
0400
0400
0800
0800
ENDCHAR
STARTCHAR 040F
ENCODING 1039
SWIDTH 675 0
DWIDTH 15 0
BBX 11 19 2 -3
BITMAP
8020
8020
8020
8020
8020
8020
8020
8020
8020
8020
8020
8020
8020
8020
8020
8020
7FC0
0400
0400
ENDCHAR
STARTCHAR 0410
ENCODING 1040
SWIDTH 585 0
DWIDTH 13 0
BBX 11 16 1 0
BITMAP
0400
0C00
0A00
0A00
1200
1100
1100
2080
2080
2080
3FC0
4040
8040
8020
8020
8020
ENDCHAR
STARTCHAR 0411
ENCODING 1041
SWIDTH 585 0
DWIDTH 13 0
BBX 10 16 2 0
BITMAP
FF80
8000
8000
8000
8000
8000
8000
FF00
8080
8040
8040
8040
8040
8040
8080
FF00
ENDCHAR
STARTCHAR 0412
ENCODING 1042
SWIDTH 585 0
DWIDTH 13 0
BBX 10 16 2 0
BITMAP
FC00
8380
8080
8080
8040
8080
8080
8100
FE80
8040
8040
8040
8040
8040
8040
FF80
ENDCHAR
STARTCHAR 0413
ENCODING 1043
SWIDTH 495 0
DWIDTH 11 0
BBX 8 16 2 0
BITMAP
FF
80
80
80
80
80
80
80
80
80
80
80
80
80
80
80
ENDCHAR
STARTCHAR 0414
ENCODING 1044
SWIDTH 630 0
DWIDTH 14 0
BBX 14 19 0 -3
BITMAP
0FF0
1010
1010
1010
1010
1010
1010
1010
1010
1010
1010
1010
1010
2010
2010
4010
BFEC
8004
8004
ENDCHAR
STARTCHAR 0415
ENCODING 1045
SWIDTH 540 0
DWIDTH 12 0
BBX 9 16 2 0
BITMAP
FF80
8000
8000
8000
8000
8000
8000
8000
FF00
8000
8000
8000
8000
8000
8000
FF00
ENDCHAR
STARTCHAR 0416
ENCODING 1046
SWIDTH 900 0
DWIDTH 20 0
BBX 18 16 1 0
BITMAP
800040
408180
208100
208200
108200
088400
088400
048800
07F800
088800
088400
108200
108200
208100
408100
400080
ENDCHAR
STARTCHAR 0417
ENCODING 1047
SWIDTH 540 0
DWIDTH 12 0
BBX 10 16 1 0
BITMAP
1E00
6180
0040
0040
0040
0040
0080
0100
0F00
00C0
0040
0040
0040
0040
8040
7F80
ENDCHAR
STARTCHAR 0418
ENCODING 1048
SWIDTH 675 0
DWIDTH 15 0
BBX 11 16 2 0
BITMAP
8000
8060
8060
80A0
8120
8120
8220
8420
8420
8820
9020
9020
A020
C020
C020
8000
ENDCHAR
STARTCHAR 0419
ENCODING 1049
SWIDTH 675 0
DWIDTH 15 0
BBX 11 20 2 0
BITMAP
1100
1100
0E00
0000
8000
8060
8060
80A0
8120
8120
8220
8420
8420
8820
9020
9020
A020
C020
C020
8000
ENDCHAR
STARTCHAR 041A
ENCODING 1050
SWIDTH 585 0
DWIDTH 13 0
BBX 10 16 2 0
BITMAP
8040
8080
8100
8100
8200
8400
8400
8800
F800
8400
8400
8200
8100
8100
8080
80C0
ENDCHAR
STARTCHAR 041B
ENCODING 1051
SWIDTH 630 0
DWIDTH 14 0
BBX 11 16 1 0
BITMAP
1FE0
1020
1020
1020
1020
1020
2020
2020
2020
2020
2020
2020
2020
4020
4020
8020
ENDCHAR
STARTCHAR 041C
ENCODING 1052
SWIDTH 765 0
DWIDTH 17 0
BBX 13 16 2 0
BITMAP
8000
C018
C018
A028
9028
9048
8888
8888
8508
8308
8008
8008
8008
8008
8008
8000
ENDCHAR
STARTCHAR 041D
ENCODING 1053
SWIDTH 675 0
DWIDTH 15 0
BBX 11 16 2 0
BITMAP
8020
8020
8020
8020
8020
8020
8020
8020
FFE0
8020
8020
8020
8020
8020
8020
8020
ENDCHAR
STARTCHAR 041E
ENCODING 1054
SWIDTH 675 0
DWIDTH 15 0
BBX 12 16 2 0
BITMAP
0F00
3080
4040
8020
8020
8020
8020
8010
8010
8010
8020
8020
8020
8020
4040
3F80
ENDCHAR
STARTCHAR 041F
ENCODING 1055
SWIDTH 675 0
DWIDTH 15 0
BBX 11 16 2 0
BITMAP
FFE0
8020
8020
8020
8020
8020
8020
8020
8020
8020
8020
8020
8020
8020
8020
8020
ENDCHAR
STARTCHAR 0420
ENCODING 1056
SWIDTH 585 0
DWIDTH 13 0
BBX 10 16 2 0
BITMAP
FE00
8180
8040
8040
8040
8040
8040
8080
FF00
8000
8000
8000
8000
8000
8000
8000
ENDCHAR
STARTCHAR 0421
ENCODING 1057
SWIDTH 585 0
DWIDTH 13 0
BBX 10 16 2 0
BITMAP
1E00
6180
8040
8000
8000
8000
8000
8000
8000
8000
8000
8000
8000
8040
4080
3F00
ENDCHAR
STARTCHAR 0422
ENCODING 1058
SWIDTH 540 0
DWIDTH 12 0
BBX 12 15 0 0
BITMAP
FFF0
0400
0400
0400
0400
0400
0400
0400
0400
0400
0400
0400
0400
0400
0400
ENDCHAR
STARTCHAR 0423
ENCODING 1059
SWIDTH 540 0
DWIDTH 12 0
BBX 11 15 1 1
BITMAP
8020
8040
4040
4080
2080
2080
1100
1100
0A00
0A00
0600
0400
0400
0800
0800
ENDCHAR
STARTCHAR 0424
ENCODING 1060
SWIDTH 810 0
DWIDTH 18 0
BBX 16 15 1 0
BITMAP
0100
0FF0
310C
4102
8102
8101
8101
8101
8101
8102
4102
4104
3108
0FF0
0100
ENDCHAR
STARTCHAR 0425
ENCODING 1061
SWIDTH 540 0
DWIDTH 12 0
BBX 11 16 1 0
BITMAP
0020
8040
4080
4080
2100
1200
1200
0C00
0400
0C00
1200
2100
2100
4080
8040
8040
ENDCHAR
STARTCHAR 0426
ENCODING 1062
SWIDTH 675 0
DWIDTH 15 0
BBX 13 19 2 -3
BITMAP
8020
8020
8020
8020
8020
8020
8020
8020
8020
8020
8020
8020
8020
8020
8020
8020
7FD8
0008
0008
ENDCHAR
STARTCHAR 0427
ENCODING 1063
SWIDTH 585 0
DWIDTH 13 0
BBX 9 14 2 1
BITMAP
8080
8080
8080
8080
8080
8080
8080
8080
7F80
0080
0080
0080
0080
0080
ENDCHAR
STARTCHAR 0428
ENCODING 1064
SWIDTH 900 0
DWIDTH 20 0
BBX 16 16 2 0
BITMAP
8001
8101
8101
8101
8101
8101
8101
8101
8101
8101
8101
8101
8101
8101
8101
FFFF
ENDCHAR
STARTCHAR 0429
ENCODING 1065
SWIDTH 900 0
DWIDTH 20 0
BBX 18 19 2 -3
BITMAP
800100
810100
810100
810100
810100
810100
810100
810100
810100
810100
810100
810100
810100
810100
810100
810100
7EFEC0
000040
000040
ENDCHAR
STARTCHAR 042A
ENCODING 1066
SWIDTH 720 0
DWIDTH 16 0
BBX 15 16 0 0
BITMAP
F800
0800
0800
0800
0800
0800
0800
07F8
0804
0804
0802
0802
0802
0802
0804
0FF8
ENDCHAR
STARTCHAR 042B
ENCODING 1067
SWIDTH 810 0
DWIDTH 18 0
BBX 14 16 2 0
BITMAP
8004
8004
8004
8004
8004
8004
8004
FF04
8084
8044
8044
8044
8044
8044
8084
FF04
ENDCHAR
STARTCHAR 042C
ENCODING 1068
SWIDTH 585 0
DWIDTH 13 0
BBX 10 16 2 0
BITMAP
8000
8000
8000
8000
8000
8000
8000
FF00
8080
8040
8040
8040
8040
8040
8080
FF00
ENDCHAR
STARTCHAR 042D
ENCODING 1069
SWIDTH 585 0
DWIDTH 13 0
BBX 11 16 1 0
BITMAP
1E00
2180
C040
0040
0020
0020
0020
0020
0FE0
0020
0020
0020
0040
8040
4080
3F00
ENDCHAR
STARTCHAR 042E
ENCODING 1070
SWIDTH 900 0
DWIDTH 20 0
BBX 17 16 2 0
BITMAP
807800
818400
820200
840100
840100
880100
880100
880080
F80080
880080
880100
840100
840100
840100
820200
81FC00
ENDCHAR
STARTCHAR 042F
ENCODING 1071
SWIDTH 630 0
DWIDTH 14 0
BBX 11 16 1 0
BITMAP
0FE0
3020
4020
8020
8020
8020
4020
4020
3FE0
0820
1020
1020
2020
2020
4020
4020
ENDCHAR
STARTCHAR 0430
ENCODING 1072
SWIDTH 495 0
DWIDTH 11 0
BBX 9 12 1 0
BITMAP
0800
7600
0100
0100
0100
0100
3F00
C100
8100
8100
8100
7E80
ENDCHAR
STARTCHAR 0431
ENCODING 1073
SWIDTH 540 0
DWIDTH 12 0
BBX 10 17 1 0
BITMAP
0080
1F00
2000
4000
4000
8000
BF00
C080
8080
8040
8040
8040
8040
8040
8080
4080
3F00
ENDCHAR
STARTCHAR 0432
ENCODING 1074
SWIDTH 540 0
DWIDTH 12 0
BBX 8 11 2 0
BITMAP
FE
81
81
81
82
FE
81
81
81
81
FE
ENDCHAR
STARTCHAR 0433
ENCODING 1075
SWIDTH 405 0
DWIDTH 9 0
BBX 6 11 2 0
BITMAP
FC
80
80
80
80
80
80
80
80
80
80
ENDCHAR
STARTCHAR 0434
ENCODING 1076
SWIDTH 540 0
DWIDTH 12 0
BBX 11 14 0 -3
BITMAP
1FC0
1040
1040
1040
1040
2040
2040
2040
2040
4040
4040
BFA0
8020
8000
ENDCHAR
STARTCHAR 0435
ENCODING 1077
SWIDTH 495 0
DWIDTH 11 0
BBX 9 11 1 1
BITMAP
3F00
4080
8080
8080
8080
FF00
8000
8000
8000
4080
3F00
ENDCHAR
STARTCHAR 0436
ENCODING 1078
SWIDTH 720 0
DWIDTH 16 0
BBX 12 11 2 0
BITMAP
8010
4420
4420
2440
2440
3FC0
2440
4420
4420
8410
8010
ENDCHAR
STARTCHAR 0437
ENCODING 1079
SWIDTH 450 0
DWIDTH 10 0
BBX 8 12 1 0
BITMAP
08
76
81
01
01
02
1E
01
01
01
81
7E
ENDCHAR
STARTCHAR 0438
ENCODING 1080
SWIDTH 540 0
DWIDTH 12 0
BBX 8 11 2 0
BITMAP
81
83
83
85
89
89
91
A1
C1
C1
80
ENDCHAR
STARTCHAR 0439
ENCODING 1081
SWIDTH 540 0
DWIDTH 12 0
BBX 8 16 2 0
BITMAP
42
24
18
00
00
81
83
83
85
89
89
91
A1
C1
C1
80
ENDCHAR
STARTCHAR 043A
ENCODING 1082
SWIDTH 495 0
DWIDTH 11 0
BBX 8 11 2 0
BITMAP
82
84
84
88
90
F0
88
88
84
82
83
ENDCHAR
STARTCHAR 043B
ENCODING 1083
SWIDTH 495 0
DWIDTH 11 0
BBX 9 11 1 0
BITMAP
3F80
2080
2080
2080
2080
2080
4080
4080
4080
4080
8080
ENDCHAR
STARTCHAR 043C
ENCODING 1084
SWIDTH 675 0
DWIDTH 15 0
BBX 11 11 2 0
BITMAP
C020
C060
A0A0
A120
9120
8A20
8C20
8420
8020
8020
8020
ENDCHAR
STARTCHAR 043D
ENCODING 1085
SWIDTH 540 0
DWIDTH 12 0
BBX 8 11 2 0
BITMAP
80
81
81
81
81
FF
81
81
81
81
80
ENDCHAR
STARTCHAR 043E
ENCODING 1086
SWIDTH 540 0
DWIDTH 12 0
BBX 10 11 1 1
BITMAP
3F00
4080
8080
8040
8040
8040
8040
8080
8080
4080
3F00
ENDCHAR
STARTCHAR 043F
ENCODING 1087
SWIDTH 540 0
DWIDTH 12 0
BBX 8 11 2 0
BITMAP
FF
81
81
81
81
81
81
81
81
81
80
ENDCHAR
STARTCHAR 0440
ENCODING 1088
SWIDTH 540 0
DWIDTH 12 0
BBX 9 16 2 -4
BITMAP
0800
F700
8100
8080
8080
8080
8080
8080
8080
8080
8100
E200
9C00
8000
8000
8000
ENDCHAR
STARTCHAR 0441
ENCODING 1089
SWIDTH 450 0
DWIDTH 10 0
BBX 9 11 1 1
BITMAP
3F00
4080
8000
8000
8000
8000
8000
8000
8000
4080
3F00
ENDCHAR
STARTCHAR 0442
ENCODING 1090
SWIDTH 450 0
DWIDTH 10 0
BBX 7 11 2 0
BITMAP
FE
10
10
10
10
10
10
10
10
10
10
ENDCHAR
STARTCHAR 0443
ENCODING 1091
SWIDTH 450 0
DWIDTH 10 0
BBX 8 14 1 -3
BITMAP
81
82
82
42
44
24
24
28
18
08
10
10
20
60
ENDCHAR
STARTCHAR 0444
ENCODING 1092
SWIDTH 720 0
DWIDTH 16 0
BBX 14 18 1 -3
BITMAP
0200
0200
0200
0200
7FF8
4108
8208
8204
8204
8204
8204
8204
8208
4308
2690
1A60
0200
0200
ENDCHAR
STARTCHAR 0445
ENCODING 1093
SWIDTH 450 0
DWIDTH 10 0
BBX 8 11 1 0
BITMAP
81
42
42
24
18
08
18
24
42
81
81
ENDCHAR
STARTCHAR 0446
ENCODING 1094
SWIDTH 540 0
DWIDTH 12 0
BBX 10 14 2 -3
BITMAP
8000
8100
8100
8100
8100
8100
8100
8100
8100
8100
8100
7EC0
0040
0040
ENDCHAR
STARTCHAR 0447
ENCODING 1095
SWIDTH 495 0
DWIDTH 11 0
BBX 8 10 1 0
BITMAP
80
81
81
81
81
43
3D
01
01
01
ENDCHAR
STARTCHAR 0448
ENCODING 1096
SWIDTH 765 0
DWIDTH 17 0
BBX 13 11 2 0
BITMAP
8200
8208
8208
8208
8208
8208
8208
8208
8208
8208
FFF8
ENDCHAR
STARTCHAR 0449
ENCODING 1097
SWIDTH 765 0
DWIDTH 17 0
BBX 15 14 2 -3
BITMAP
8200
8208
8208
8208
8208
8208
8208
8208
8208
8208
8208
7DF6
0002
0002
ENDCHAR
STARTCHAR 044A
ENCODING 1098
SWIDTH 585 0
DWIDTH 13 0
BBX 10 11 2 0
BITMAP
E000
2000
2000
2000
3E00
2180
2040
2040
2040
2080
3F00
ENDCHAR
STARTCHAR 044B
ENCODING 1099
SWIDTH 630 0
DWIDTH 14 0
BBX 11 11 2 0
BITMAP
8020
8020
8020
8020
F020
8620
8220
8120
8120
8220
FC20
ENDCHAR
STARTCHAR 044C
ENCODING 1100
SWIDTH 495 0
DWIDTH 11 0
BBX 8 11 2 0
BITMAP
80
80
80
80
F8
86
81
81
81
81
FE
ENDCHAR
STARTCHAR 044D
ENCODING 1101
SWIDTH 495 0
DWIDTH 11 0
BBX 9 11 1 1
BITMAP
7E00
8100
0100
0080
0080
3F80
0080
0080
0100
8100
7E00
ENDCHAR
STARTCHAR 044E
ENCODING 1102
SWIDTH 720 0
DWIDTH 16 0
BBX 13 12 2 0
BITMAP
0080
8760
8810
8808
8808
9008
F008
9008
8808
8810
8810
87E0
ENDCHAR
STARTCHAR 044F
ENCODING 1103
SWIDTH 495 0
DWIDTH 11 0
BBX 8 11 1 0
BITMAP
7F
81
81
81
81
41
3F
21
21
41
40
ENDCHAR
STARTCHAR 0450
ENCODING 1104
SWIDTH 495 0
DWIDTH 11 0
BBX 9 16 1 1
BITMAP
1000
0800
0400
0000
0000
3F00
4080
8080
8080
8080
FF00
8000
8000
8000
4080
3F00
ENDCHAR
STARTCHAR 0451
ENCODING 1105
SWIDTH 495 0
DWIDTH 11 0
BBX 9 15 1 0
BITMAP
2000
0000
0000
0000
3F00
4080
8080
8080
8080
FF00
8000
8000
8000
4080
3F00
ENDCHAR
STARTCHAR 0452
ENCODING 1106
SWIDTH 540 0
DWIDTH 12 0
BBX 8 20 2 -4
BITMAP
80
80
E0
80
88
F6
81
81
81
81
81
81
81
81
81
81
01
01
01
01
ENDCHAR
STARTCHAR 0453
ENCODING 1107
SWIDTH 405 0
DWIDTH 9 0
BBX 6 17 2 0
BITMAP
04
08
10
10
00
00
FC
80
80
80
80
80
80
80
80
80
80
ENDCHAR
STARTCHAR 0454
ENCODING 1108
SWIDTH 495 0
DWIDTH 11 0
BBX 9 11 1 1
BITMAP
3F00
4080
8000
8000
8000
FE00
8000
8000
8000
4080
3F00
ENDCHAR
STARTCHAR 0455
ENCODING 1109
SWIDTH 450 0
DWIDTH 10 0
BBX 8 12 1 0
BITMAP
08
76
80
80
80
40
3C
02
01
01
81
7E
ENDCHAR
STARTCHAR 0456
ENCODING 1110
SWIDTH 225 0
DWIDTH 5 0
BBX 1 16 2 0
BITMAP
80
00
00
00
00
80
80
80
80
80
80
80
80
80
80
80
ENDCHAR
STARTCHAR 0457
ENCODING 1111
SWIDTH 225 0
DWIDTH 5 0
BBX 5 15 0 0
BITMAP
88
00
00
00
20
20
20
20
20
20
20
20
20
20
20
ENDCHAR
STARTCHAR 0458
ENCODING 1112
SWIDTH 225 0
DWIDTH 5 0
BBX 2 20 1 -4
BITMAP
40
00
00
00
00
40
40
40
40
40
40
40
40
40
40
40
40
40
40
C0
ENDCHAR
STARTCHAR 0459
ENCODING 1113
SWIDTH 765 0
DWIDTH 17 0
BBX 15 11 1 0
BITMAP
3F00
2100
2100
2100
21E0
210C
4102
4102
4102
4104
81F8
ENDCHAR
STARTCHAR 045A
ENCODING 1114
SWIDTH 765 0
DWIDTH 17 0
BBX 15 11 2 0
BITMAP
8100
8100
8100
8100
8100
FFFC
8104
8102
8102
8104
81F8
ENDCHAR
STARTCHAR 045B
ENCODING 1115
SWIDTH 540 0
DWIDTH 12 0
BBX 8 16 2 0
BITMAP
80
80
E0
80
88
F6
81
81
81
81
81
81
81
81
81
80
ENDCHAR
STARTCHAR 045C
ENCODING 1116
SWIDTH 495 0
DWIDTH 11 0
BBX 8 16 2 1
BITMAP
0C
08
10
00
00
82
84
84
88
90
F0
88
88
84
82
83
ENDCHAR
STARTCHAR 045D
ENCODING 1117
SWIDTH 540 0
DWIDTH 12 0
BBX 8 17 2 0
BITMAP
20
20
10
08
00
00
81
83
83
85
89
89
91
A1
C1
C1
80
ENDCHAR
STARTCHAR 045E
ENCODING 1118
SWIDTH 450 0
DWIDTH 10 0
BBX 8 20 1 -4
BITMAP
42
24
10
00
00
00
81
82
82
42
44
24
24
28
18
08
10
10
20
60
ENDCHAR
STARTCHAR 045F
ENCODING 1119
SWIDTH 540 0
DWIDTH 12 0
BBX 8 14 2 -3
BITMAP
80
81
81
81
81
81
81
81
81
81
81
7E
08
08
ENDCHAR
STARTCHAR 0472
ENCODING 1138
SWIDTH 675 0
DWIDTH 15 0
BBX 12 16 2 0
BITMAP
0F00
3080
4040
8020
8020
8020
8020
8010
FFF0
8010
8020
8020
8020
8020
4040
3F80
ENDCHAR
STARTCHAR 0473
ENCODING 1139
SWIDTH 540 0
DWIDTH 12 0
BBX 10 11 1 1
BITMAP
3F00
4080
8080
8040
8040
FFC0
8040
8080
8080
4080
3F00
ENDCHAR
STARTCHAR 0490
ENCODING 1168
SWIDTH 495 0
DWIDTH 11 0
BBX 8 18 2 1
BITMAP
01
01
FF
80
80
80
80
80
80
80
80
80
80
80
80
80
80
80
ENDCHAR
STARTCHAR 0491
ENCODING 1169
SWIDTH 405 0
DWIDTH 9 0
BBX 7 14 2 0
BITMAP
02
02
02
FC
80
80
80
80
80
80
80
80
80
80
ENDCHAR
STARTCHAR 0492
ENCODING 1170
SWIDTH 495 0
DWIDTH 11 0
BBX 10 15 1 0
BITMAP
3FC0
4000
4000
4000
4000
4000
4000
FE00
4000
4000
4000
4000
4000
4000
4000
ENDCHAR
STARTCHAR 0493
ENCODING 1171
SWIDTH 450 0
DWIDTH 10 0
BBX 6 10 2 0
BITMAP
7C
80
80
80
80
F0
80
80
80
80
ENDCHAR
STARTCHAR 0494
ENCODING 1172
SWIDTH 585 0
DWIDTH 13 0
BBX 10 20 2 -4
BITMAP
FF00
8000
8000
8000
8000
8000
8000
8800
F380
8080
8040
8040
8040
8040
8040
8040
0040
0040
0080
0300
ENDCHAR
STARTCHAR 0495
ENCODING 1173
SWIDTH 495 0
DWIDTH 11 0
BBX 8 15 2 -4
BITMAP
FC
80
80
80
80
BE
C1
81
81
81
81
01
01
01
03
ENDCHAR
STARTCHAR 0496
ENCODING 1174
SWIDTH 900 0
DWIDTH 20 0
BBX 18 18 1 -3
BITMAP
800040
408180
208100
208200
108200
088400
088400
048800
07F800
088800
088400
108200
108200
208100
408100
400080
000040
000040
ENDCHAR
STARTCHAR 0497
ENCODING 1175
SWIDTH 720 0
DWIDTH 16 0
BBX 14 14 2 -3
BITMAP
8010
4420
4420
2440
2440
3FC0
2440
4420
4420
8410
8010
000C
0004
0004
ENDCHAR
STARTCHAR 0498
ENCODING 1176
SWIDTH 540 0
DWIDTH 12 0
BBX 10 19 1 -3
BITMAP
1E00
6180
0040
0040
0040
0040
0080
0100
0F00
00C0
0040
0040
0040
0040
8040
6180
1E00
0400
0400
ENDCHAR
STARTCHAR 0499
ENCODING 1177
SWIDTH 450 0
DWIDTH 10 0
BBX 8 14 1 -3
BITMAP
08
76
81
01
01
02
1E
01
01
01
81
42
3C
10
ENDCHAR
STARTCHAR 049A
ENCODING 1178
SWIDTH 585 0
DWIDTH 13 0
BBX 11 19 2 -3
BITMAP
8040
8080
8100
8100
8200
8400
8400
8800
F800
8400
8400
8200
8100
8100
8080
8080
0060
0020
0020
ENDCHAR
STARTCHAR 049B
ENCODING 1179
SWIDTH 495 0
DWIDTH 11 0
BBX 9 14 2 -3
BITMAP
8200
8400
8400
8800
9000
F000
8800
8800
8400
8200
8200
0180
0080
0080
ENDCHAR
STARTCHAR 049C
ENCODING 1180
SWIDTH 585 0
DWIDTH 13 0
BBX 11 16 2 0
BITMAP
8060
8080
8100
8100
8200
A200
A400
A800
F800
A400
A200
8200
8100
8100
8080
8040
ENDCHAR
STARTCHAR 049D
ENCODING 1181
SWIDTH 540 0
DWIDTH 12 0
BBX 8 11 2 0
BITMAP
83
82
A4
A8
A8
F8
A8
A4
82
82
81
ENDCHAR
STARTCHAR 04A0
ENCODING 1184
SWIDTH 720 0
DWIDTH 16 0
BBX 15 16 0 0
BITMAP
F802
080C
0808
0810
0810
0820
0840
0840
0FC0
0840
0820
0810
0810
0808
0808
0004
ENDCHAR
STARTCHAR 04A1
ENCODING 1185
SWIDTH 585 0
DWIDTH 13 0
BBX 9 11 2 0
BITMAP
E080
2100
2200
2200
2400
3C00
2200
2200
2100
2100
2080
ENDCHAR
STARTCHAR 04A2
ENCODING 1186
SWIDTH 720 0
DWIDTH 16 0
BBX 13 19 2 -3
BITMAP
8020
8020
8020
8020
8020
8020
8020
8020
FFE0
8020
8020
8020
8020
8020
8020
8020
0018
0008
0008
ENDCHAR
STARTCHAR 04A3
ENCODING 1187
SWIDTH 585 0
DWIDTH 13 0
BBX 10 13 2 -3
BITMAP
8000
8100
8100
8100
8100
FF00
8100
8100
8100
8100
8100
00C0
0040
ENDCHAR
STARTCHAR 04A4
ENCODING 1188
SWIDTH 900 0
DWIDTH 20 0
BBX 18 16 2 0
BITMAP
803FC0
804000
804000
804000
804000
804000
804000
804000
FFC000
804000
804000
804000
804000
804000
804000
800000
ENDCHAR
STARTCHAR 04A5
ENCODING 1189
SWIDTH 720 0
DWIDTH 16 0
BBX 13 11 2 0
BITMAP
81F8
8100
8100
8100
8100
FF00
8100
8100
8100
8100
8100
ENDCHAR
STARTCHAR 04AA
ENCODING 1194
SWIDTH 585 0
DWIDTH 13 0
BBX 10 19 2 -3
BITMAP
1E00
6180
8040
8000
8000
8000
8000
8000
8000
8000
8000
8000
8000
8040
4080
2100
1E00
0400
0400
ENDCHAR
STARTCHAR 04AB
ENCODING 1195
SWIDTH 450 0
DWIDTH 10 0
BBX 9 13 1 -2
BITMAP
3F00
4080
8000
8000
8000
8000
8000
8000
8000
4080
2100
1E00
0800
ENDCHAR
STARTCHAR 04AE
ENCODING 1198
SWIDTH 540 0
DWIDTH 12 0
BBX 12 15 0 0
BITMAP
8010
4020
4040
2040
2080
1080
0900
0A00
0600
0400
0400
0400
0400
0400
0400
ENDCHAR
STARTCHAR 04AF
ENCODING 1199
SWIDTH 450 0
DWIDTH 10 0
BBX 8 13 1 -3
BITMAP
81
82
82
42
44
24
24
28
18
10
10
10
10
ENDCHAR
STARTCHAR 04B0
ENCODING 1200
SWIDTH 540 0
DWIDTH 12 0
BBX 12 15 0 0
BITMAP
8010
4020
4040
2040
2080
1080
0900
0A00
0600
3FC0
0400
0400
0400
0400
0400
ENDCHAR
STARTCHAR 04B1
ENCODING 1201
SWIDTH 450 0
DWIDTH 10 0
BBX 8 13 1 -3
BITMAP
81
82
82
42
44
24
24
28
18
10
3C
10
10
ENDCHAR
STARTCHAR 04B2
ENCODING 1202
SWIDTH 585 0
DWIDTH 13 0
BBX 12 18 1 -3
BITMAP
0020
8040
4080
4080
2100
1200
1200
0C00
0400
0C00
1200
2100
2100
4080
8040
8040
0030
0010
ENDCHAR
STARTCHAR 04B3
ENCODING 1203
SWIDTH 450 0
DWIDTH 10 0
BBX 10 14 1 -3
BITMAP
8100
4200
4200
2400
1800
0800
1800
2400
4200
8100
8100
00C0
0040
0040
ENDCHAR
STARTCHAR 04B6
ENCODING 1206
SWIDTH 630 0
DWIDTH 14 0
BBX 11 18 2 -2
BITMAP
8080
8080
8080
8080
8080
8080
8080
8080
7F80
0080
0080
0080
0080
0080
0080
0060
0020
0020
ENDCHAR
STARTCHAR 04B7
ENCODING 1207
SWIDTH 495 0
DWIDTH 11 0
BBX 10 14 1 -3
BITMAP
8000
8100
8100
8100
8100
4300
3D00
0100
0100
0100
0100
00C0
0040
0040
ENDCHAR
STARTCHAR 04B8
ENCODING 1208
SWIDTH 585 0
DWIDTH 13 0
BBX 9 14 2 1
BITMAP
8080
8080
8080
8080
8880
8880
8880
8880
7F80
0880
0880
0880
0080
0080
ENDCHAR
STARTCHAR 04B9
ENCODING 1209
SWIDTH 495 0
DWIDTH 11 0
BBX 8 10 1 0
BITMAP
80
81
81
81
91
53
3D
11
01
01
ENDCHAR
STARTCHAR 04BA
ENCODING 1210
SWIDTH 585 0
DWIDTH 13 0
BBX 10 16 2 0
BITMAP
8000
8000
8000
8000
8000
8000
8000
FF80
8040
8040
8040
8040
8040
8040
8040
8000
ENDCHAR
STARTCHAR 04BB
ENCODING 1211
SWIDTH 540 0
DWIDTH 12 0
BBX 8 16 2 0
BITMAP
80
80
80
80
88
F6
81
81
81
81
81
81
81
81
81
80
ENDCHAR
STARTCHAR 04C0
ENCODING 1216
SWIDTH 360 0
DWIDTH 8 0
BBX 5 16 2 0
BITMAP
F8
40
40
40
40
40
40
40
40
40
40
40
40
40
40
70
ENDCHAR
STARTCHAR 04C1
ENCODING 1217
SWIDTH 900 0
DWIDTH 20 0
BBX 18 20 1 0
BITMAP
021000
012000
00C000
000000
800040
408180
208100
208200
108200
088400
088400
048800
07F800
088800
088400
108200
108200
208100
408100
400080
ENDCHAR
STARTCHAR 04C2
ENCODING 1218
SWIDTH 720 0
DWIDTH 16 0
BBX 12 16 2 0
BITMAP
1080
0900
0600
0000
0000
8010
4420
4420
2440
2440
3FC0
2440
4420
4420
8410
8010
ENDCHAR
STARTCHAR 04CF
ENCODING 1231
SWIDTH 225 0
DWIDTH 5 0
BBX 1 16 2 0
BITMAP
80
80
80
80
80
80
80
80
80
80
80
80
80
80
80
80
ENDCHAR
STARTCHAR 04D0
ENCODING 1232
SWIDTH 585 0
DWIDTH 13 0
BBX 11 20 1 0
BITMAP
1100
1100
0E00
0000
0400
0C00
0A00
0A00
1200
1100
1100
2080
2080
2080
3FC0
4040
8040
8020
8020
8020
ENDCHAR
STARTCHAR 04D1
ENCODING 1233
SWIDTH 495 0
DWIDTH 11 0
BBX 9 16 1 0
BITMAP
4200
2200
1C00
0000
0800
7600
0100
0100
0100
0100
3F00
C100
8100
8100
8100
7E80
ENDCHAR
STARTCHAR 04D2
ENCODING 1234
SWIDTH 585 0
DWIDTH 13 0
BBX 11 19 1 0
BITMAP
1100
0000
0000
0400
0C00
0A00
0A00
1200
1100
1100
2080
2080
2080
3FC0
4040
8040
8020
8020
8020
ENDCHAR
STARTCHAR 04D3
ENCODING 1235
SWIDTH 495 0
DWIDTH 11 0
BBX 9 15 1 0
BITMAP
2200
0000
0000
0800
7600
0100
0100
0100
0100
3F00
C100
8100
8100
8100
7E80
ENDCHAR
STARTCHAR 04D4
ENCODING 1236
SWIDTH 855 0
DWIDTH 19 0
BBX 18 16 0 0
BITMAP
007FC0
00C000
014000
024000
024000
044000
044000
084000
087F00
104000
1FC000
204000
204000
404000
804000
807F80
ENDCHAR
STARTCHAR 04D5
ENCODING 1237
SWIDTH 855 0
DWIDTH 19 0
BBX 17 12 1 0
BITMAP
080800
767600
018100
010100
010080
010080
3FFF00
C10000
810000
808080
818100
7E7E00
ENDCHAR
STARTCHAR 04D6
ENCODING 1238
SWIDTH 540 0
DWIDTH 12 0
BBX 9 20 2 0
BITMAP
2200
2200
1C00
0000
FF80
8000
8000
8000
8000
8000
8000
8000
FF00
8000
8000
8000
8000
8000
8000
FF00
ENDCHAR
STARTCHAR 04D7
ENCODING 1239
SWIDTH 495 0
DWIDTH 11 0
BBX 9 16 1 0
BITMAP
2100
2200
1C00
0000
0000
3F00
4080
8080
8080
8080
FF00
8000
8000
8000
4080
3F00
ENDCHAR
STARTCHAR 04D8
ENCODING 1240
SWIDTH 675 0
DWIDTH 15 0
BBX 12 16 2 0
BITMAP
0F00
3080
4040
8020
8020
0020
0020
0010
FFF0
8010
8020
8020
8020
8020
4040
3F80
ENDCHAR
STARTCHAR 04D9
ENCODING 1241
SWIDTH 495 0
DWIDTH 11 0
BBX 10 11 1 1
BITMAP
3700
4080
0080
0080
0080
FFC0
8080
8080
8080
4080
3F00
ENDCHAR
STARTCHAR 04DC
ENCODING 1244
SWIDTH 900 0
DWIDTH 20 0
BBX 18 19 1 0
BITMAP
011000
000000
000000
800040
408180
208100
208200
108200
088400
088400
048800
07F800
088800
088400
108200
108200
208100
408100
400080
ENDCHAR
STARTCHAR 04DD
ENCODING 1245
SWIDTH 720 0
DWIDTH 16 0
BBX 12 15 2 0
BITMAP
0880
0000
0000
0000
8010
4420
4420
2440
2440
3FC0
2440
4420
4420
8410
8010
ENDCHAR
STARTCHAR 04DE
ENCODING 1246
SWIDTH 540 0
DWIDTH 12 0
BBX 10 19 1 0
BITMAP
1100
0000
0000
1E00
6180
0040
0040
0040
0040
0080
0100
0F00
00C0
0040
0040
0040
0040
8040
7F80
ENDCHAR
STARTCHAR 04DF
ENCODING 1247
SWIDTH 450 0
DWIDTH 10 0
BBX 8 15 1 0
BITMAP
22
00
00
08
76
81
01
01
02
1E
01
01
01
81
7E
ENDCHAR
STARTCHAR 04E2
ENCODING 1250
SWIDTH 675 0
DWIDTH 15 0
BBX 11 19 2 0
BITMAP
0F00
0000
0000
8000
8060
8060
80A0
8120
8120
8220
8420
8420
8820
9020
9020
A020
C020
C020
8000
ENDCHAR
STARTCHAR 04E3
ENCODING 1251
SWIDTH 540 0
DWIDTH 12 0
BBX 8 15 2 0
BITMAP
1C
00
00
00
81
83
83
85
89
89
91
A1
C1
C1
80
ENDCHAR
STARTCHAR 04E4
ENCODING 1252
SWIDTH 675 0
DWIDTH 15 0
BBX 11 19 2 0
BITMAP
1100
0000
0000
8000
8060
8060
80A0
8120
8120
8220
8420
8420
8820
9020
9020
A020
C020
C020
8000
ENDCHAR
STARTCHAR 04E5
ENCODING 1253
SWIDTH 540 0
DWIDTH 12 0
BBX 8 15 2 0
BITMAP
22
00
00
00
81
83
83
85
89
89
91
A1
C1
C1
80
ENDCHAR
STARTCHAR 04E6
ENCODING 1254
SWIDTH 675 0
DWIDTH 15 0
BBX 12 19 2 0
BITMAP
1100
0000
0000
0F00
3080
4040
8020
8020
8020
8020
8010
8010
8010
8020
8020
8020
8020
4040
3F80
ENDCHAR
STARTCHAR 04E7
ENCODING 1255
SWIDTH 540 0
DWIDTH 12 0
BBX 10 15 1 0
BITMAP
0100
0000
0000
0000
3F00
4080
8080
8040
8040
8040
8040
8080
8080
4080
3F00
ENDCHAR
STARTCHAR 04E8
ENCODING 1256
SWIDTH 675 0
DWIDTH 15 0
BBX 12 16 2 0
BITMAP
0F00
3080
4040
8020
8020
8020
8020
8010
FFF0
8010
8020
8020
8020
8020
4040
3F80
ENDCHAR
STARTCHAR 04E9
ENCODING 1257
SWIDTH 540 0
DWIDTH 12 0
BBX 10 11 1 1
BITMAP
3F00
4080
8080
8040
8040
FFC0
8040
8080
8080
4080
3F00
ENDCHAR
STARTCHAR 04EE
ENCODING 1262
SWIDTH 540 0
DWIDTH 12 0
BBX 11 19 1 0
BITMAP
0F00
0000
0000
0000
8020
8040
4040
4080
2080
2080
1100
1100
0A00
0A00
0600
0400
0400
0800
0800
ENDCHAR
STARTCHAR 04EF
ENCODING 1263
SWIDTH 450 0
DWIDTH 10 0
BBX 8 19 1 -4
BITMAP
3C
00
00
00
00
81
82
82
42
44
24
24
28
18
08
10
10
20
60
ENDCHAR
STARTCHAR 04F0
ENCODING 1264
SWIDTH 540 0
DWIDTH 12 0
BBX 11 19 1 0
BITMAP
1100
0000
0000
0000
8020
8040
4040
4080
2080
2080
1100
1100
0A00
0A00
0600
0400
0400
0800
0800
ENDCHAR
STARTCHAR 04F1
ENCODING 1265
SWIDTH 450 0
DWIDTH 10 0
BBX 8 19 1 -4
BITMAP
22
00
00
00
00
81
82
82
42
44
24
24
28
18
08
10
10
20
60
ENDCHAR
STARTCHAR 04F2
ENCODING 1266
SWIDTH 540 0
DWIDTH 12 0
BBX 11 21 1 0
BITMAP
0040
0480
0880
0100
0000
0000
8020
8040
4040
4080
2080
2080
1100
1100
0A00
0A00
0600
0400
0400
0800
0800
ENDCHAR
STARTCHAR 04F3
ENCODING 1267
SWIDTH 450 0
DWIDTH 10 0
BBX 8 21 1 -4
BITMAP
08
11
22
20
00
00
00
81
82
82
42
44
24
24
28
18
08
10
10
20
60
ENDCHAR
STARTCHAR 04F4
ENCODING 1268
SWIDTH 585 0
DWIDTH 13 0
BBX 9 18 2 0
BITMAP
2200
0000
0000
0000
8080
8080
8080
8080
8080
8080
8080
8080
7F80
0080
0080
0080
0080
0080
ENDCHAR
STARTCHAR 04F5
ENCODING 1269
SWIDTH 495 0
DWIDTH 11 0
BBX 8 14 1 0
BITMAP
22
00
00
00
80
81
81
81
81
43
3D
01
01
01
ENDCHAR
STARTCHAR 04F8
ENCODING 1272
SWIDTH 810 0
DWIDTH 18 0
BBX 14 19 2 0
BITMAP
0440
0000
0000
8004
8004
8004
8004
8004
8004
8004
FF04
8084
8044
8044
8044
8044
8044
8084
FF04
ENDCHAR
STARTCHAR 04F9
ENCODING 1273
SWIDTH 630 0
DWIDTH 14 0
BBX 11 15 2 0
BITMAP
1100
0000
0000
0000
8020
8020
8020
8020
F020
8620
8220
8120
8120
8220
FC20
ENDCHAR
STARTCHAR 0E3F
ENCODING 3647
SWIDTH 585 0
DWIDTH 13 0
BBX 10 19 2 -2
BITMAP
0800
0800
FF00
8880
8880
8880
8880
8880
8900
FE80
8840
8840
8840
8840
8840
8880
FF00
0800
0800
ENDCHAR
STARTCHAR 1E80
ENCODING 7808
SWIDTH 855 0
DWIDTH 19 0
BBX 18 20 1 1
BITMAP
010000
010000
008000
000000
008040
808080
814080
814080
814080
424100
422100
422100
422100
241200
241200
241200
281200
180C00
180C00
080400
ENDCHAR
STARTCHAR 1E81
ENCODING 7809
SWIDTH 720 0
DWIDTH 16 0
BBX 14 16 1 1
BITMAP
0400
0200
0100
0000
0000
0100
8304
8508
8508
4488
4888
4890
2850
2850
3060
1020
ENDCHAR
STARTCHAR 1E82
ENCODING 7810
SWIDTH 855 0
DWIDTH 19 0
BBX 18 21 1 0
BITMAP
002000
004000
008000
008000
000000
008040
808080
814080
814080
814080
424100
422100
422100
422100
241200
241200
241200
281200
180C00
180C00
080400
ENDCHAR
STARTCHAR 1E83
ENCODING 7811
SWIDTH 720 0
DWIDTH 16 0
BBX 14 16 1 1
BITMAP
0080
0100
0000
0000
0000
0100
8304
8508
8508
4488
4888
4890
2850
2850
3060
1020
ENDCHAR
STARTCHAR 1E84
ENCODING 7812
SWIDTH 855 0
DWIDTH 19 0
BBX 18 19 1 0
BITMAP
022000
000000
000000
008040
808080
814080
814080
814080
424100
422100
422100
422100
241200
241200
241200
281200
180C00
180C00
080400
ENDCHAR
STARTCHAR 1E85
ENCODING 7813
SWIDTH 720 0
DWIDTH 16 0
BBX 14 15 1 0
BITMAP
0440
0000
0000
0000
0100
8304
8508
8508
4488
4888
4890
2850
2850
3060
1020
ENDCHAR
STARTCHAR 1E9E
ENCODING 7838
SWIDTH 675 0
DWIDTH 15 0
BBX 12 16 2 0
BITMAP
FFE0
8040
8040
8080
8100
8100
8200
8380
8060
8020
8010
8010
8010
8010
9020
8FC0
ENDCHAR
STARTCHAR 1EA0
ENCODING 7840
SWIDTH 585 0
DWIDTH 13 0
BBX 11 19 1 -3
BITMAP
0400
0C00
0A00
0A00
1200
1100
1100
2080
2080
2080
3FC0
4040
8040
8020
8020
8020
0000
0000
0400
ENDCHAR
STARTCHAR 1EA1
ENCODING 7841
SWIDTH 495 0
DWIDTH 11 0
BBX 9 15 1 -3
BITMAP
0800
7600
0100
0100
0100
0100
3F00
C100
8100
8100
8100
4200
3C80
0000
1800
ENDCHAR
STARTCHAR 1EA2
ENCODING 7842
SWIDTH 585 0
DWIDTH 13 0
BBX 11 20 1 0
BITMAP
0600
0200
0000
0000
0400
0C00
0A00
0A00
1200
1100
1100
2080
2080
2080
3FC0
4040
8040
8020
8020
8020
ENDCHAR
STARTCHAR 1EA3
ENCODING 7843
SWIDTH 495 0
DWIDTH 11 0
BBX 9 16 1 0
BITMAP
0C00
0400
0000
0000
0800
7600
0100
0100
0100
0100
3F00
C100
8100
8100
8100
7E80
ENDCHAR
STARTCHAR 1EA4
ENCODING 7844
SWIDTH 585 0
DWIDTH 13 0
BBX 11 23 1 0
BITMAP
0040
0040
0080
0E00
1100
0080
0000
0400
0C00
0A00
0A00
1200
1100
1100
2080
2080
2080
3FC0
4040
8040
8020
8020
8020
ENDCHAR
STARTCHAR 1EA5
ENCODING 7845
SWIDTH 495 0
DWIDTH 11 0
BBX 9 19 1 0
BITMAP
0080
0080
0100
1C00
2200
0100
0000
0800
7600
0100
0100
0100
0100
3F00
C100
8100
8100
8100
7E80
ENDCHAR
STARTCHAR 1EA6
ENCODING 7846
SWIDTH 585 0
DWIDTH 13 0
BBX 11 22 1 1
BITMAP
4000
2000
0E00
1100
0080
0000
0400
0C00
0A00
0A00
1200
1100
1100
2080
2080
2080
3FC0
4040
8040
8020
8020
8020
ENDCHAR
STARTCHAR 1EA7
ENCODING 7847
SWIDTH 495 0
DWIDTH 11 0
BBX 9 18 1 1
BITMAP
8000
4000
1C00
2200
0100
0000
0800
7600
0100
0100
0100
0100
3F00
C100
8100
8100
8100
7E80
ENDCHAR
STARTCHAR 1EA8
ENCODING 7848
SWIDTH 585 0
DWIDTH 13 0
BBX 11 23 1 0
BITMAP
03C0
0040
0080
0E00
1100
0080
0000
0400
0C00
0A00
0A00
1200
1100
1100
2080
2080
2080
3FC0
4040
8040
8020
8020
8020
ENDCHAR
STARTCHAR 1EA9
ENCODING 7849
SWIDTH 495 0
DWIDTH 11 0
BBX 9 19 1 0
BITMAP
0780
0080
0100
1C00
2200
0100
0000
0800
7600
0100
0100
0100
0100
3F00
C100
8100
8100
8100
7E80
ENDCHAR
STARTCHAR 1EAA
ENCODING 7850
SWIDTH 585 0
DWIDTH 13 0
BBX 11 23 1 0
BITMAP
1800
0700
0000
0E00
1100
0080
0000
0400
0C00
0A00
0A00
1200
1100
1100
2080
2080
2080
3FC0
4040
8040
8020
8020
8020
ENDCHAR
STARTCHAR 1EAB
ENCODING 7851
SWIDTH 495 0
DWIDTH 11 0
BBX 9 19 1 0
BITMAP
3000
0E00
0000
1C00
2200
0100
0000
0800
7600
0100
0100
0100
0100
3F00
C100
8100
8100
8100
7E80
ENDCHAR
STARTCHAR 1EAC
ENCODING 7852
SWIDTH 585 0
DWIDTH 13 0
BBX 11 24 1 -3
BITMAP
0400
0A00
1100
0080
0000
0400
0C00
0A00
0A00
1200
1100
1100
2080
2080
2080
3FC0
4040
8040
8020
8020
8020
0000
0000
0400
ENDCHAR
STARTCHAR 1EAD
ENCODING 7853
SWIDTH 495 0
DWIDTH 11 0
BBX 9 20 1 -3
BITMAP
0800
1400
2200
0100
0000
0800
7600
0100
0100
0100
0100
3F00
C100
8100
8100
8100
4200
3C80
0000
1800
ENDCHAR
STARTCHAR 1EAE
ENCODING 7854
SWIDTH 585 0
DWIDTH 13 0
BBX 11 23 1 0
BITMAP
0100
0200
0400
0080
1100
0E00
0000
0400
0C00
0A00
0A00
1200
1100
1100
2080
2080
2080
3FC0
4040
8040
8020
8020
8020
ENDCHAR
STARTCHAR 1EAF
ENCODING 7855
SWIDTH 495 0
DWIDTH 11 0
BBX 9 19 1 0
BITMAP
0200
0400
0800
0000
2200
1C00
0000
0800
7600
0100
0100
0100
0100
3F00
C100
8100
8100
8100
7E80
ENDCHAR
STARTCHAR 1EB0
ENCODING 7856
SWIDTH 585 0
DWIDTH 13 0
BBX 11 22 1 1
BITMAP
0800
0400
0080
1100
0E00
0000
0400
0C00
0A00
0A00
1200
1100
1100
2080
2080
2080
3FC0
4040
8040
8020
8020
8020
ENDCHAR
STARTCHAR 1EB1
ENCODING 7857
SWIDTH 495 0
DWIDTH 11 0
BBX 9 19 1 0
BITMAP
2000
1000
1000
0800
2200
1C00
0000
0800
7600
0100
0100
0100
0100
3F00
C100
8100
8100
8100
7E80
ENDCHAR
STARTCHAR 1EB2
ENCODING 7858
SWIDTH 585 0
DWIDTH 13 0
BBX 11 23 1 0
BITMAP
0F00
0200
0400
0080
1100
0E00
0000
0400
0C00
0A00
0A00
1200
1100
1100
2080
2080
2080
3FC0
4040
8040
8020
8020
8020
ENDCHAR
STARTCHAR 1EB3
ENCODING 7859
SWIDTH 495 0
DWIDTH 11 0
BBX 9 19 1 0
BITMAP
1C00
0400
0800
0000
2200
1C00
0000
0800
7600
0100
0100
0100
0100
3F00
C100
8100
8100
8100
7E80
ENDCHAR
STARTCHAR 1EB4
ENCODING 7860
SWIDTH 585 0
DWIDTH 13 0
BBX 11 23 1 0
BITMAP
1800
0680
0100
0080
1100
0E00
0000
0400
0C00
0A00
0A00
1200
1100
1100
2080
2080
2080
3FC0
4040
8040
8020
8020
8020
ENDCHAR
STARTCHAR 1EB5
ENCODING 7861
SWIDTH 495 0
DWIDTH 11 0
BBX 9 19 1 0
BITMAP
3000
4900
0600
0000
2200
1C00
0000
0800
7600
0100
0100
0100
0100
3F00
C100
8100
8100
8100
7E80
ENDCHAR
STARTCHAR 1EB6
ENCODING 7862
SWIDTH 585 0
DWIDTH 13 0
BBX 11 22 1 -2
BITMAP
1100
0E00
0000
0400
0C00
0A00
0A00
1200
1100
1100
2080
2080
2080
3FC0
4040
8040
8020
8020
8020
0000
0000
0400
ENDCHAR
STARTCHAR 1EB7
ENCODING 7863
SWIDTH 495 0
DWIDTH 11 0
BBX 9 18 1 -2
BITMAP
2200
1C00
0000
0800
7600
0100
0100
0100
0100
3F00
C100
8100
8100
8100
4200
3C80
0000
1800
ENDCHAR
STARTCHAR 1EB8
ENCODING 7864
SWIDTH 540 0
DWIDTH 12 0
BBX 9 19 2 -3
BITMAP
FF80
8000
8000
8000
8000
8000
8000
8000
FF00
8000
8000
8000
8000
8000
8000
8000
7F00
0000
0800
ENDCHAR
STARTCHAR 1EB9
ENCODING 7865
SWIDTH 495 0
DWIDTH 11 0
BBX 9 14 1 -2
BITMAP
3F00
4080
8080
8080
8080
FF00
8000
8000
8000
4080
2100
1E00
0000
0400
ENDCHAR
STARTCHAR 1EBA
ENCODING 7866
SWIDTH 540 0
DWIDTH 12 0
BBX 9 20 2 0
BITMAP
0C00
0400
0000
0000
FF80
8000
8000
8000
8000
8000
8000
8000
FF00
8000
8000
8000
8000
8000
8000
FF00
ENDCHAR
STARTCHAR 1EBB
ENCODING 7867
SWIDTH 495 0
DWIDTH 11 0
BBX 9 16 1 0
BITMAP
0E00
0400
0000
0000
0000
3F00
4080
8080
8080
8080
FF00
8000
8000
8000
4080
3F00
ENDCHAR
STARTCHAR 1EBC
ENCODING 7868
SWIDTH 540 0
DWIDTH 12 0
BBX 9 20 2 0
BITMAP
3000
0D00
0200
0000
FF80
8000
8000
8000
8000
8000
8000
8000
FF00
8000
8000
8000
8000
8000
8000
FF00
ENDCHAR
STARTCHAR 1EBD
ENCODING 7869
SWIDTH 495 0
DWIDTH 11 0
BBX 9 16 1 0
BITMAP
1000
0D00
0200
0000
0000
3F00
4080
8080
8080
8080
FF00
8000
8000
8000
4080
3F00
ENDCHAR
STARTCHAR 1EBE
ENCODING 7870
SWIDTH 540 0
DWIDTH 12 0
BBX 9 23 2 0
BITMAP
0080
0080
0100
1C00
2200
0100
0000
FF80
8000
8000
8000
8000
8000
8000
8000
FF00
8000
8000
8000
8000
8000
8000
FF00
ENDCHAR
STARTCHAR 1EBF
ENCODING 7871
SWIDTH 495 0
DWIDTH 11 0
BBX 10 19 1 0
BITMAP
0040
0080
0100
0C00
1200
2100
0000
0000
3F00
4080
8080
8080
8080
FF00
8000
8000
8000
4080
3F00
ENDCHAR
STARTCHAR 1EC0
ENCODING 7872
SWIDTH 540 0
DWIDTH 12 0
BBX 9 22 2 1
BITMAP
8000
4000
1C00
2200
0100
0000
FF80
8000
8000
8000
8000
8000
8000
8000
FF00
8000
8000
8000
8000
8000
8000
FF00
ENDCHAR
STARTCHAR 1EC1
ENCODING 7873
SWIDTH 495 0
DWIDTH 11 0
BBX 9 19 1 0
BITMAP
8000
8000
4000
0C00
1200
2100
0000
0000
3F00
4080
8080
8080
8080
FF00
8000
8000
8000
4080
3F00
ENDCHAR
STARTCHAR 1EC2
ENCODING 7874
SWIDTH 540 0
DWIDTH 12 0
BBX 9 23 2 0
BITMAP
0780
0080
0100
1C00
2200
0100
0000
FF80
8000
8000
8000
8000
8000
8000
8000
FF00
8000
8000
8000
8000
8000
8000
FF00
ENDCHAR
STARTCHAR 1EC3
ENCODING 7875
SWIDTH 495 0
DWIDTH 11 0
BBX 9 19 1 0
BITMAP
0380
0080
0100
0D00
1200
2100
0000
0000
3F00
4080
8080
8080
8080
FF00
8000
8000
8000
4080
3F00
ENDCHAR
STARTCHAR 1EC4
ENCODING 7876
SWIDTH 540 0
DWIDTH 12 0
BBX 9 23 2 0
BITMAP
3000
0E00
0000
1C00
2200
0100
0000
FF80
8000
8000
8000
8000
8000
8000
8000
FF00
8000
8000
8000
8000
8000
8000
FF00
ENDCHAR
STARTCHAR 1EC5
ENCODING 7877
SWIDTH 495 0
DWIDTH 11 0
BBX 9 19 1 0
BITMAP
3800
0700
0000
0C00
1200
2100
0000
0000
3F00
4080
8080
8080
8080
FF00
8000
8000
8000
4080
3F00
ENDCHAR
STARTCHAR 1EC6
ENCODING 7878
SWIDTH 540 0
DWIDTH 12 0
BBX 9 24 2 -3
BITMAP
0800
1400
2200
0100
0000
FF80
8000
8000
8000
8000
8000
8000
8000
FF00
8000
8000
8000
8000
8000
8000
8000
7F00
0000
0800
ENDCHAR
STARTCHAR 1EC7
ENCODING 7879
SWIDTH 495 0
DWIDTH 11 0
BBX 9 19 1 -2
BITMAP
1C00
2200
0100
0000
0000
3F00
4080
8080
8080
8080
FF00
8000
8000
8000
4080
2100
1E00
0000
0400
ENDCHAR
STARTCHAR 1EC8
ENCODING 7880
SWIDTH 360 0
DWIDTH 8 0
BBX 5 20 2 0
BITMAP
70
20
20
00
F8
40
40
40
40
40
40
40
40
40
40
40
40
40
40
70
ENDCHAR
STARTCHAR 1EC9
ENCODING 7881
SWIDTH 225 0
DWIDTH 5 0
BBX 2 16 2 0
BITMAP
C0
40
00
00
00
80
80
80
80
80
80
80
80
80
80
80
ENDCHAR
STARTCHAR 1ECA
ENCODING 7882
SWIDTH 360 0
DWIDTH 8 0
BBX 5 19 2 -3
BITMAP
F8
40
40
40
40
40
40
40
40
40
40
40
40
40
40
00
70
00
20
ENDCHAR
STARTCHAR 1ECB
ENCODING 7883
SWIDTH 225 0
DWIDTH 5 0
BBX 1 19 2 -3
BITMAP
80
00
00
00
00
80
80
80
80
80
80
80
80
80
80
80
00
00
80
ENDCHAR
STARTCHAR 1ECC
ENCODING 7884
SWIDTH 675 0
DWIDTH 15 0
BBX 12 19 2 -3
BITMAP
0F00
3080
4040
8020
8020
8020
8020
8010
8010
8010
8020
8020
8020
8020
4040
3080
0F00
0000
0400
ENDCHAR
STARTCHAR 1ECD
ENCODING 7885
SWIDTH 540 0
DWIDTH 12 0
BBX 10 14 1 -2
BITMAP
3F00
4080
8080
8040
8040
8040
8040
8080
8080
4080
2100
1E00
0000
0C00
ENDCHAR
STARTCHAR 1ECE
ENCODING 7886
SWIDTH 675 0
DWIDTH 15 0
BBX 12 20 2 0
BITMAP
0600
0200
0000
0000
0F00
3080
4040
8020
8020
8020
8020
8010
8010
8010
8020
8020
8020
8020
4040
3F80
ENDCHAR
STARTCHAR 1ECF
ENCODING 7887
SWIDTH 540 0
DWIDTH 12 0
BBX 10 16 1 0
BITMAP
0E00
0400
0000
0000
0000
3F00
4080
8080
8040
8040
8040
8040
8080
8080
4080
3F00
ENDCHAR
STARTCHAR 1ED0
ENCODING 7888
SWIDTH 675 0
DWIDTH 15 0
BBX 12 23 2 0
BITMAP
0040
0040
0080
0E00
1100
0080
0000
0F00
3080
4040
8020
8020
8020
8020
8010
8010
8010
8020
8020
8020
8020
4040
3F80
ENDCHAR
STARTCHAR 1ED1
ENCODING 7889
SWIDTH 540 0
DWIDTH 12 0
BBX 10 19 1 0
BITMAP
0040
0080
0100
0C00
1200
2100
0000
0000
3F00
4080
8080
8040
8040
8040
8040
8080
8080
4080
3F00
ENDCHAR
STARTCHAR 1ED2
ENCODING 7890
SWIDTH 675 0
DWIDTH 15 0
BBX 12 22 2 1
BITMAP
4000
2000
0E00
1100
0080
0000
0F00
3080
4040
8020
8020
8020
8020
8010
8010
8010
8020
8020
8020
8020
4040
3F80
ENDCHAR
STARTCHAR 1ED3
ENCODING 7891
SWIDTH 540 0
DWIDTH 12 0
BBX 10 19 1 0
BITMAP
8000
4000
4000
0C00
1200
2100
0000
0000
3F00
4080
8080
8040
8040
8040
8040
8080
8080
4080
3F00
ENDCHAR
STARTCHAR 1ED4
ENCODING 7892
SWIDTH 675 0
DWIDTH 15 0
BBX 12 23 2 0
BITMAP
03C0
0040
0080
0E00
1100
0080
0000
0F00
3080
4040
8020
8020
8020
8020
8010
8010
8010
8020
8020
8020
8020
4040
3F80
ENDCHAR
STARTCHAR 1ED5
ENCODING 7893
SWIDTH 540 0
DWIDTH 12 0
BBX 10 19 1 0
BITMAP
0380
0080
0100
0C00
1200
2100
0000
0000
3F00
4080
8080
8040
8040
8040
8040
8080
8080
4080
3F00
ENDCHAR
STARTCHAR 1ED6
ENCODING 7894
SWIDTH 675 0
DWIDTH 15 0
BBX 12 23 2 0
BITMAP
1800
0700
0000
0E00
1100
0080
0000
0F00
3080
4040
8020
8020
8020
8020
8010
8010
8010
8020
8020
8020
8020
4040
3F80
ENDCHAR
STARTCHAR 1ED7
ENCODING 7895
SWIDTH 540 0
DWIDTH 12 0
BBX 10 19 1 0
BITMAP
3800
0700
0000
0C00
1200
2100
0000
0000
3F00
4080
8080
8040
8040
8040
8040
8080
8080
4080
3F00
ENDCHAR
STARTCHAR 1ED8
ENCODING 7896
SWIDTH 675 0
DWIDTH 15 0
BBX 12 24 2 -3
BITMAP
0400
0A00
1100
0080
0000
0F00
3080
4040
8020
8020
8020
8020
8010
8010
8010
8020
8020
8020
8020
4040
3080
0F00
0000
0400
ENDCHAR
STARTCHAR 1ED9
ENCODING 7897
SWIDTH 540 0
DWIDTH 12 0
BBX 10 19 1 -2
BITMAP
1C00
2200
0100
0000
0000
3F00
4080
8080
8040
8040
8040
8040
8080
8080
4080
2100
1E00
0000
0C00
ENDCHAR
STARTCHAR 1EDA
ENCODING 7898
SWIDTH 675 0
DWIDTH 15 0
BBX 12 21 2 0
BITMAP
0100
0200
0400
0410
0010
0FE0
3080
4040
8020
8020
8020
8020
8010
8010
8010
8020
8020
8020
8020
4040
3F80
ENDCHAR
STARTCHAR 1EDB
ENCODING 7899
SWIDTH 540 0
DWIDTH 12 0
BBX 10 16 1 1
BITMAP
0600
0400
0800
0000
0080
3F00
4080
8080
8040
8040
8040
8040
8080
8080
4080
3F00
ENDCHAR
STARTCHAR 1EDC
ENCODING 7900
SWIDTH 675 0
DWIDTH 15 0
BBX 12 21 2 0
BITMAP
1000
0800
0800
0410
0010
0FE0
3080
4040
8020
8020
8020
8020
8010
8010
8010
8020
8020
8020
8020
4040
3F80
ENDCHAR
STARTCHAR 1EDD
ENCODING 7901
SWIDTH 540 0
DWIDTH 12 0
BBX 10 16 1 1
BITMAP
1000
0800
0400
0000
0080
3F00
4080
8080
8040
8040
8040
8040
8080
8080
4080
3F00
ENDCHAR
STARTCHAR 1EDE
ENCODING 7902
SWIDTH 675 0
DWIDTH 15 0
BBX 12 20 2 0
BITMAP
0600
0200
0010
0010
0FE0
3080
4040
8020
8020
8020
8020
8010
8010
8010
8020
8020
8020
8020
4040
3F80
ENDCHAR
STARTCHAR 1EDF
ENCODING 7903
SWIDTH 540 0
DWIDTH 12 0
BBX 10 16 1 0
BITMAP
0E00
0400
0000
0000
0080
3F00
4080
8080
8040
8040
8040
8040
8080
8080
4080
3F00
ENDCHAR
STARTCHAR 1EE0
ENCODING 7904
SWIDTH 675 0
DWIDTH 15 0
BBX 12 20 2 0
BITMAP
1800
0680
0110
0010
0FE0
3080
4040
8020
8020
8020
8020
8010
8010
8010
8020
8020
8020
8020
4040
3F80
ENDCHAR
STARTCHAR 1EE1
ENCODING 7905
SWIDTH 540 0
DWIDTH 12 0
BBX 10 16 1 0
BITMAP
1000
0D00
0200
0000
0080
3F00
4080
8080
8040
8040
8040
8040
8080
8080
4080
3F00
ENDCHAR
STARTCHAR 1EE2
ENCODING 7906
SWIDTH 675 0
DWIDTH 15 0
BBX 12 21 2 -3
BITMAP
0010
0010
0FE0
3080
4040
8020
8020
8020
8020
8010
8010
8010
8020
8020
8020
8020
4040
3080
0F00
0000
0400
ENDCHAR
STARTCHAR 1EE3
ENCODING 7907
SWIDTH 540 0
DWIDTH 12 0
BBX 10 15 1 -2
BITMAP
0080
3F00
4080
8080
8040
8040
8040
8040
8080
8080
4080
2100
1E00
0000
0C00
ENDCHAR
STARTCHAR 1EE4
ENCODING 7908
SWIDTH 630 0
DWIDTH 14 0
BBX 10 19 2 -3
BITMAP
8000
8040
8040
8040
8040
8040
8040
8040
8040
8040
8040
8040
8040
8040
4080
2100
1E00
0000
0400
ENDCHAR
STARTCHAR 1EE5
ENCODING 7909
SWIDTH 540 0
DWIDTH 12 0
BBX 8 14 2 -3
BITMAP
80
81
81
81
81
81
81
81
81
83
42
3C
00
18
ENDCHAR
STARTCHAR 1EE6
ENCODING 7910
SWIDTH 630 0
DWIDTH 14 0
BBX 10 20 2 0
BITMAP
0600
0400
0400
0000
8000
8040
8040
8040
8040
8040
8040
8040
8040
8040
8040
8040
8040
8040
4080
3F00
ENDCHAR
STARTCHAR 1EE7
ENCODING 7911
SWIDTH 540 0
DWIDTH 12 0
BBX 8 16 2 0
BITMAP
1C
08
08
00
00
80
81
81
81
81
81
81
81
81
83
7E
ENDCHAR
STARTCHAR 1EE8
ENCODING 7912
SWIDTH 630 0
DWIDTH 14 0
BBX 12 20 2 1
BITMAP
0200
0400
0000
0010
8030
8040
8040
8040
8040
8040
8040
8040
8040
8040
8040
8040
8040
8040
4080
3F00
ENDCHAR
STARTCHAR 1EE9
ENCODING 7913
SWIDTH 540 0
DWIDTH 12 0
BBX 10 16 2 1
BITMAP
0400
0800
0040
0040
0040
8180
8100
8100
8100
8100
8100
8100
8100
8100
8300
7E00
ENDCHAR
STARTCHAR 1EEA
ENCODING 7914
SWIDTH 630 0
DWIDTH 14 0
BBX 12 21 2 0
BITMAP
1000
1000
0800
0400
0010
8030
8040
8040
8040
8040
8040
8040
8040
8040
8040
8040
8040
8040
8040
4080
3F00
ENDCHAR
STARTCHAR 1EEB
ENCODING 7915
SWIDTH 540 0
DWIDTH 12 0
BBX 10 16 2 1
BITMAP
2000
1000
0840
0040
0040
8180
8100
8100
8100
8100
8100
8100
8100
8100
8300
7E00
ENDCHAR
STARTCHAR 1EEC
ENCODING 7916
SWIDTH 630 0
DWIDTH 14 0
BBX 12 20 2 0
BITMAP
0600
0400
0400
0010
8030
8040
8040
8040
8040
8040
8040
8040
8040
8040
8040
8040
8040
8040
4080
3F00
ENDCHAR
STARTCHAR 1EED
ENCODING 7917
SWIDTH 540 0
DWIDTH 12 0
BBX 10 16 2 0
BITMAP
1C00
0800
0840
0040
0040
8180
8100
8100
8100
8100
8100
8100
8100
8100
8300
7E00
ENDCHAR
STARTCHAR 1EEE
ENCODING 7918
SWIDTH 630 0
DWIDTH 14 0
BBX 12 20 2 0
BITMAP
1000
0D00
0200
0010
8030
8040
8040
8040
8040
8040
8040
8040
8040
8040
8040
8040
8040
8040
4080
3F00
ENDCHAR
STARTCHAR 1EEF
ENCODING 7919
SWIDTH 540 0
DWIDTH 12 0
BBX 10 16 2 0
BITMAP
2000
1A00
0440
0040
0040
8180
8100
8100
8100
8100
8100
8100
8100
8100
8300
7E00
ENDCHAR
STARTCHAR 1EF0
ENCODING 7920
SWIDTH 630 0
DWIDTH 14 0
BBX 12 20 2 -2
BITMAP
0010
8030
8040
8040
8040
8040
8040
8040
8040
8040
8040
8040
8040
8040
8040
4080
2100
1E00
0000
0400
ENDCHAR
STARTCHAR 1EF1
ENCODING 7921
SWIDTH 540 0
DWIDTH 12 0
BBX 10 17 2 -3
BITMAP
0040
0040
0040
8180
8100
8100
8100
8100
8100
8100
8100
8100
8300
4200
3C00
0000
1000
ENDCHAR
STARTCHAR 1EF2
ENCODING 7922
SWIDTH 540 0
DWIDTH 12 0
BBX 12 19 0 1
BITMAP
0800
0400
0200
0000
8010
4020
4040
2040
2080
1080
0900
0A00
0600
0400
0400
0400
0400
0400
0400
ENDCHAR
STARTCHAR 1EF3
ENCODING 7923
SWIDTH 450 0
DWIDTH 10 0
BBX 8 20 1 -3
BITMAP
20
10
08
00
00
00
81
82
82
42
44
24
24
28
18
08
10
10
20
60
ENDCHAR
STARTCHAR 1EF4
ENCODING 7924
SWIDTH 540 0
DWIDTH 12 0
BBX 12 19 0 -3
BITMAP
8010
4020
4040
2040
2080
1080
0900
0A00
0600
0400
0400
0400
0400
0400
0400
0000
0000
0000
0200
ENDCHAR
STARTCHAR 1EF5
ENCODING 7925
SWIDTH 450 0
DWIDTH 10 0
BBX 8 14 1 -3
BITMAP
81
82
82
42
44
24
24
28
18
08
10
10
22
60
ENDCHAR
STARTCHAR 1EF6
ENCODING 7926
SWIDTH 540 0
DWIDTH 12 0
BBX 12 19 0 0
BITMAP
0700
0200
0200
0000
8010
4020
4040
2040
2080
1080
0900
0A00
0600
0400
0400
0400
0400
0400
0400
ENDCHAR
STARTCHAR 1EF7
ENCODING 7927
SWIDTH 450 0
DWIDTH 10 0
BBX 8 20 1 -4
BITMAP
1C
08
08
00
00
00
81
82
82
42
44
24
24
28
18
08
10
10
20
60
ENDCHAR
STARTCHAR 1EF8
ENCODING 7928
SWIDTH 540 0
DWIDTH 12 0
BBX 12 19 0 0
BITMAP
0800
0680
0100
0000
8010
4020
4040
2040
2080
1080
0900
0A00
0600
0400
0400
0400
0400
0400
0400
ENDCHAR
STARTCHAR 1EF9
ENCODING 7929
SWIDTH 450 0
DWIDTH 10 0
BBX 8 20 1 -4
BITMAP
20
1A
04
00
00
00
81
82
82
42
44
24
24
28
18
08
10
10
20
60
ENDCHAR
STARTCHAR 2013
ENCODING 8211
SWIDTH 585 0
DWIDTH 13 0
BBX 9 1 2 6
BITMAP
FF80
ENDCHAR
STARTCHAR 2014
ENCODING 8212
SWIDTH 765 0
DWIDTH 17 0
BBX 14 1 2 6
BITMAP
FFFC
ENDCHAR
STARTCHAR 2018
ENCODING 8216
SWIDTH 225 0
DWIDTH 5 0
BBX 2 4 2 12
BITMAP
40
80
80
80
ENDCHAR
STARTCHAR 2019
ENCODING 8217
SWIDTH 225 0
DWIDTH 5 0
BBX 1 4 2 12
BITMAP
80
80
80
80
ENDCHAR
STARTCHAR 201A
ENCODING 8218
SWIDTH 225 0
DWIDTH 5 0
BBX 1 3 2 -3
BITMAP
80
80
80
ENDCHAR
STARTCHAR 201C
ENCODING 8220
SWIDTH 360 0
DWIDTH 8 0
BBX 5 4 2 12
BITMAP
48
90
90
88
ENDCHAR
STARTCHAR 201D
ENCODING 8221
SWIDTH 360 0
DWIDTH 8 0
BBX 5 5 2 12
BITMAP
88
88
88
90
10
ENDCHAR
STARTCHAR 201E
ENCODING 8222
SWIDTH 360 0
DWIDTH 8 0
BBX 5 4 2 -3
BITMAP
88
88
90
10
ENDCHAR
STARTCHAR 2020
ENCODING 8224
SWIDTH 540 0
DWIDTH 12 0
BBX 8 18 2 -3
BITMAP
10
10
10
10
FF
10
10
10
10
10
10
10
10
10
10
10
10
10
ENDCHAR
STARTCHAR 2021
ENCODING 8225
SWIDTH 540 0
DWIDTH 12 0
BBX 8 18 2 -3
BITMAP
10
10
10
10
FF
10
10
10
10
10
10
10
10
10
FF
10
10
10
ENDCHAR
STARTCHAR 2022
ENCODING 8226
SWIDTH 315 0
DWIDTH 7 0
BBX 4 4 2 5
BITMAP
60
F0
F0
E0
ENDCHAR
STARTCHAR 2026
ENCODING 8230
SWIDTH 720 0
DWIDTH 16 0
BBX 12 1 2 0
BITMAP
8610
ENDCHAR
STARTCHAR 2030
ENCODING 8240
SWIDTH 1215 0
DWIDTH 27 0
BBX 24 16 2 0
BITMAP
300000
C80800
841000
842000
842000
844000
848000
888000
713E3E
022222
044141
044141
084141
104141
102222
203E3E
ENDCHAR
STARTCHAR 2032
ENCODING 8242
SWIDTH 180 0
DWIDTH 4 0
BBX 1 5 2 10
BITMAP
80
80
80
80
80
ENDCHAR
STARTCHAR 2033
ENCODING 8243
SWIDTH 360 0
DWIDTH 8 0
BBX 5 7 2 9
BITMAP
08
88
90
90
90
90
10
ENDCHAR
STARTCHAR 2039
ENCODING 8249
SWIDTH 270 0
DWIDTH 6 0
BBX 4 8 1 3
BITMAP
30
40
80
80
80
40
20
10
ENDCHAR
STARTCHAR 203A
ENCODING 8250
SWIDTH 270 0
DWIDTH 6 0
BBX 5 8 1 2
BITMAP
80
40
20
10
08
10
20
40
ENDCHAR
STARTCHAR 2044
ENCODING 8260
SWIDTH 135 0
DWIDTH 3 0
BBX 10 15 -3 0
BITMAP
0040
0080
0080
0100
0200
0200
0400
0800
0800
1000
2000
2000
4000
4000
8000
ENDCHAR
STARTCHAR 2070
ENCODING 8304
SWIDTH 360 0
DWIDTH 8 0
BBX 6 9 1 7
BITMAP
30
CC
84
84
84
84
84
84
78
ENDCHAR
STARTCHAR 2074
ENCODING 8308
SWIDTH 315 0
DWIDTH 7 0
BBX 7 9 0 7
BITMAP
04
0C
14
24
44
44
FE
04
04
ENDCHAR
STARTCHAR 2075
ENCODING 8309
SWIDTH 315 0
DWIDTH 7 0
BBX 5 9 1 7
BITMAP
78
80
80
80
F8
08
08
08
F0
ENDCHAR
STARTCHAR 2076
ENCODING 8310
SWIDTH 360 0
DWIDTH 8 0
BBX 6 8 1 8
BITMAP
20
40
80
78
84
84
84
78
ENDCHAR
STARTCHAR 2077
ENCODING 8311
SWIDTH 315 0
DWIDTH 7 0
BBX 6 8 1 7
BITMAP
FC
88
08
10
10
10
20
20
ENDCHAR
STARTCHAR 2078
ENCODING 8312
SWIDTH 360 0
DWIDTH 8 0
BBX 6 9 1 7
BITMAP
38
C4
84
84
78
C4
84
84
78
ENDCHAR
STARTCHAR 2079
ENCODING 8313
SWIDTH 360 0
DWIDTH 8 0
BBX 6 9 1 7
BITMAP
30
C8
84
84
84
78
08
10
20
ENDCHAR
STARTCHAR 2080
ENCODING 8320
SWIDTH 360 0
DWIDTH 8 0
BBX 6 8 1 0
BITMAP
78
84
84
84
84
84
84
78
ENDCHAR
STARTCHAR 2081
ENCODING 8321
SWIDTH 360 0
DWIDTH 8 0
BBX 5 8 1 0
BITMAP
30
D0
10
10
10
10
10
78
ENDCHAR
STARTCHAR 2082
ENCODING 8322
SWIDTH 315 0
DWIDTH 7 0
BBX 5 8 1 0
BITMAP
F8
08
08
08
10
20
40
F8
ENDCHAR
STARTCHAR 2083
ENCODING 8323
SWIDTH 315 0
DWIDTH 7 0
BBX 5 8 1 0
BITMAP
F8
08
08
10
08
08
08
F8
ENDCHAR
STARTCHAR 2084
ENCODING 8324
SWIDTH 315 0
DWIDTH 7 0
BBX 6 8 0 0
BITMAP
0C
14
24
24
44
84
7C
04
ENDCHAR
STARTCHAR 2085
ENCODING 8325
SWIDTH 315 0
DWIDTH 7 0
BBX 5 8 1 0
BITMAP
F0
80
80
F8
08
08
08
F8
ENDCHAR
STARTCHAR 2086
ENCODING 8326
SWIDTH 360 0
DWIDTH 8 0
BBX 6 8 1 0
BITMAP
20
40
40
F8
84
84
84
78
ENDCHAR
STARTCHAR 2087
ENCODING 8327
SWIDTH 315 0
DWIDTH 7 0
BBX 6 7 1 0
BITMAP
FC
08
08
10
10
20
20
ENDCHAR
STARTCHAR 2088
ENCODING 8328
SWIDTH 360 0
DWIDTH 8 0
BBX 6 8 1 0
BITMAP
7C
84
84
68
D4
84
84
7C
ENDCHAR
STARTCHAR 2089
ENCODING 8329
SWIDTH 360 0
DWIDTH 8 0
BBX 6 8 1 0
BITMAP
F8
84
84
84
78
08
10
20
ENDCHAR
STARTCHAR 20A1
ENCODING 8353
SWIDTH 585 0
DWIDTH 13 0
BBX 10 18 2 -2
BITMAP
0900
0D00
3300
5280
9240
9200
9200
9200
9200
9200
A400
A400
A400
A400
A440
6480
3700
2C00
ENDCHAR
STARTCHAR 20A4
ENCODING 8356
SWIDTH 540 0
DWIDTH 12 0
BBX 9 16 2 0
BITMAP
1E00
6100
4080
8000
8000
8000
8000
7C00
4000
4000
7C00
4000
4000
4000
8000
FF00
ENDCHAR
STARTCHAR 20A6
ENCODING 8358
SWIDTH 630 0
DWIDTH 14 0
BBX 14 16 0 0
BITMAP
2000
3010
3010
2810
2810
2410
FFFC
2210
2110
2110
7EF8
2050
2050
2030
2030
2010
ENDCHAR
STARTCHAR 20A8
ENCODING 8360
SWIDTH 675 0
DWIDTH 15 0
BBX 13 16 2 0
BITMAP
E000
9C00
8400
8200
8200
8200
84D8
8480
F880
8840
8820
8410
8408
8208
8208
81F0
ENDCHAR
STARTCHAR 20A9
ENCODING 8361
SWIDTH 900 0
DWIDTH 20 0
BBX 18 15 1 1
BITMAP
80C040
80C080
814080
414080
412080
FFFFC0
422100
221100
221100
7DFE80
241200
140A00
180A00
180C00
080400
ENDCHAR
STARTCHAR 20AA
ENCODING 8362
SWIDTH 765 0
DWIDTH 17 0
BBX 13 16 2 0
BITMAP
FC08
8308
8088
8888
8888
8888
8888
8888
8888
8888
8888
8888
8888
8808
8810
8FE0
ENDCHAR
STARTCHAR 20AB
ENCODING 8363
SWIDTH 540 0
DWIDTH 12 0
BBX 10 15 2 1
BITMAP
0FC0
0100
0100
7D00
8300
8100
8100
8100
8100
8100
8100
8300
7C00
0000
7F00
ENDCHAR
STARTCHAR 20AC
ENCODING 8364
SWIDTH 585 0
DWIDTH 13 0
BBX 10 16 2 0
BITMAP
1E00
6180
8040
8000
8000
8000
FC00
8000
8000
8000
F800
8000
8000
8040
4080
3F00
ENDCHAR
STARTCHAR 20AD
ENCODING 8365
SWIDTH 540 0
DWIDTH 12 0
BBX 11 16 1 0
BITMAP
4020
4040
4080
4100
4200
4400
4400
4800
FF80
4400
4200
4200
4100
4080
4040
4020
ENDCHAR
STARTCHAR 20AE
ENCODING 8366
SWIDTH 540 0
DWIDTH 12 0
BBX 11 16 1 0
BITMAP
FFE0
0400
0400
0400
0400
0480
0700
0C00
3400
0700
0C00
3400
0400
0400
0400
0400
ENDCHAR
STARTCHAR 20B1
ENCODING 8369
SWIDTH 585 0
DWIDTH 13 0
BBX 11 16 1 0
BITMAP
7E00
4180
4040
4040
FFE0
4040
4040
FFE0
4040
4080
7F00
4000
4000
4000
4000
4000
ENDCHAR
STARTCHAR 20B2
ENCODING 8370
SWIDTH 630 0
DWIDTH 14 0
BBX 11 18 2 -2
BITMAP
0200
0600
3380
4440
8400
8400
8400
8400
8400
8400
8BE0
8820
8820
8840
8840
4880
3300
1C00
ENDCHAR
STARTCHAR 20B4
ENCODING 8372
SWIDTH 585 0
DWIDTH 13 0
BBX 11 16 1 0
BITMAP
0E00
3180
0080
0040
0040
0080
FFE0
0200
0C00
1000
6FC0
4000
4000
4000
2040
1F80
ENDCHAR
STARTCHAR 20B5
ENCODING 8373
SWIDTH 585 0
DWIDTH 13 0
BBX 10 19 2 -2
BITMAP
0200
0E00
3580
4480
8440
8400
8400
8400
8800
8800
8800
8800
8800
8800
8840
5080
3300
1C00
1000
ENDCHAR
STARTCHAR 20B8
ENCODING 8376
SWIDTH 585 0
DWIDTH 13 0
BBX 12 16 1 0
BITMAP
FFF0
0000
0000
0000
7FE0
0400
0400
0400
0400
0400
0400
0400
0400
0400
0400
0400
ENDCHAR
STARTCHAR 20B9
ENCODING 8377
SWIDTH 585 0
DWIDTH 13 0
BBX 11 16 2 0
BITMAP
FFE0
0200
0100
0100
FFE0
0100
0100
0100
FE00
1000
0800
0400
0200
0100
0100
0080
ENDCHAR
STARTCHAR 20BA
ENCODING 8378
SWIDTH 585 0
DWIDTH 13 0
BBX 11 16 1 0
BITMAP
2000
2000
2000
2000
2E00
3000
E100
2600
3800
6000
2020
2020
2020
2040
2040
3F80
ENDCHAR
STARTCHAR 20BD
ENCODING 8381
SWIDTH 585 0
DWIDTH 13 0
BBX 12 16 0 0
BITMAP
3F80
2060
2010
2010
2010
2010
2010
2020
FFC0
2000
2000
2000
7E00
2000
2000
2000
ENDCHAR
STARTCHAR 20BF
ENCODING 8383
SWIDTH 585 0
DWIDTH 13 0
BBX 10 17 2 -1
BITMAP
2400
DB00
8080
8080
8080
8080
8080
8100
FE80
8040
8040
8040
8040
8040
8080
FF00
2400
ENDCHAR
STARTCHAR 2113
ENCODING 8467
SWIDTH 450 0
DWIDTH 10 0
BBX 7 17 2 0
BITMAP
30
48
84
84
84
88
88
88
90
90
A0
40
80
80
80
42
7C
ENDCHAR
STARTCHAR 2116
ENCODING 8470
SWIDTH 990 0
DWIDTH 22 0
BBX 20 16 2 0
BITMAP
8001C0
C02620
C02410
A02410
902410
902410
882420
8823C0
842000
8227F0
822000
812000
80A000
80A000
806000
802000
ENDCHAR
STARTCHAR 2122
ENCODING 8482
SWIDTH 630 0
DWIDTH 14 0
BBX 11 6 1 10
BITMAP
FA00
4220
4360
4360
42A0
0200
ENDCHAR
STARTCHAR 2126
ENCODING 8486
SWIDTH 675 0
DWIDTH 15 0
BBX 12 16 2 0
BITMAP
0F00
30C0
4020
8020
8020
8010
8010
8010
8010
8010
8010
8020
8020
4040
2080
71E0
ENDCHAR
STARTCHAR 212E
ENCODING 8494
SWIDTH 675 0
DWIDTH 15 0
BBX 13 16 1 0
BITMAP
0780
1860
6010
4010
8008
8008
8008
8008
FFF0
8000
8000
8000
8000
4010
2010
1FE0
ENDCHAR
STARTCHAR 2150
ENCODING 8528
SWIDTH 855 0
DWIDTH 19 0
BBX 17 16 1 0
BITMAP
100000
700400
900800
100800
101000
102000
102000
104000
FC9780
008080
010080
020100
020100
040200
040200
080000
ENDCHAR
STARTCHAR 2151
ENCODING 8529
SWIDTH 855 0
DWIDTH 19 0
BBX 18 16 1 0
BITMAP
100000
700400
900800
100800
101000
102000
102000
104000
FC8F80
008880
010840
020840
020780
040080
040100
080200
ENDCHAR
STARTCHAR 2153
ENCODING 8531
SWIDTH 855 0
DWIDTH 19 0
BBX 17 16 1 0
BITMAP
100000
700400
900800
100800
101000
102000
102000
104000
FC8F80
008080
010080
020100
020280
040080
040080
080F80
ENDCHAR
STARTCHAR 2154
ENCODING 8532
SWIDTH 810 0
DWIDTH 18 0
BBX 17 16 1 0
BITMAP
300400
C80800
080800
081000
082000
102000
204000
C08000
FC9F00
010100
020100
020200
040100
040080
080080
000F00
ENDCHAR
STARTCHAR 2155
ENCODING 8533
SWIDTH 855 0
DWIDTH 19 0
BBX 17 16 1 0
BITMAP
100000
700400
900800
100800
101000
102000
102000
104000
FC8F00
008800
010800
020F00
020080
040080
040080
080F00
ENDCHAR
STARTCHAR 2156
ENCODING 8534
SWIDTH 810 0
DWIDTH 18 0
BBX 17 16 1 0
BITMAP
300400
C80800
080800
081000
082000
102000
204000
C08000
FC9E00
011000
021000
020F00
040100
040080
080080
001F00
ENDCHAR
STARTCHAR 2157
ENCODING 8535
SWIDTH 810 0
DWIDTH 18 0
BBX 16 16 1 0
BITMAP
3004
C808
0810
0810
3020
0840
0840
0880
F09E
0110
0210
021F
0401
0801
0801
001F
ENDCHAR
STARTCHAR 2158
ENCODING 8536
SWIDTH 810 0
DWIDTH 18 0
BBX 18 16 0 0
BITMAP
040200
0C0400
140400
240800
441000
441000
FE2000
044000
044F00
008800
010800
010780
020080
020040
040040
000F80
ENDCHAR
STARTCHAR 2159
ENCODING 8537
SWIDTH 855 0
DWIDTH 19 0
BBX 17 16 1 0
BITMAP
100000
700400
900800
100800
101000
102000
102000
104000
FC8200
008400
010800
021700
021880
041080
041080
080F80
ENDCHAR
STARTCHAR 215A
ENCODING 8538
SWIDTH 810 0
DWIDTH 18 0
BBX 16 16 1 0
BITMAP
7804
8008
8010
8010
F820
0840
0840
0880
F104
0108
0210
041E
0421
0821
0821
101F
ENDCHAR
STARTCHAR 215B
ENCODING 8539
SWIDTH 900 0
DWIDTH 20 0
BBX 18 16 1 0
BITMAP
100000
700400
900800
100800
101000
102000
102000
104000
FC8F80
008840
010840
020480
020B40
040840
040840
080780
ENDCHAR
STARTCHAR 215C
ENCODING 8540
SWIDTH 855 0
DWIDTH 19 0
BBX 17 16 1 0
BITMAP
300400
C80800
081000
081000
302000
084000
084000
088000
F08F80
011080
021080
020900
041680
081080
081080
000F80
ENDCHAR
STARTCHAR 215D
ENCODING 8541
SWIDTH 855 0
DWIDTH 19 0
BBX 17 16 1 0
BITMAP
780400
800800
801000
801000
F82000
084000
084000
088000
F11F80
011080
021080
040900
041680
081080
081080
100F80
ENDCHAR
STARTCHAR 215E
ENCODING 8542
SWIDTH 855 0
DWIDTH 19 0
BBX 17 16 1 0
BITMAP
FC0000
881800
081000
102000
104000
104000
208000
208000
011F00
022100
021100
040A00
081500
082080
102080
001F00
ENDCHAR
STARTCHAR 2190
ENCODING 8592
SWIDTH 720 0
DWIDTH 16 0
BBX 15 8 0 4
BITMAP
0800
1000
2000
4000
BFFE
4000
2000
1000
ENDCHAR
STARTCHAR 2191
ENCODING 8593
SWIDTH 720 0
DWIDTH 16 0
BBX 8 16 4 0
BITMAP
08
14
2A
49
88
08
08
08
08
08
08
08
08
08
08
08
ENDCHAR
STARTCHAR 2192
ENCODING 8594
SWIDTH 720 0
DWIDTH 16 0
BBX 15 7 1 5
BITMAP
0010
0008
0004
FFFA
0004
0008
0010
ENDCHAR
STARTCHAR 2193
ENCODING 8595
SWIDTH 720 0
DWIDTH 16 0
BBX 7 16 5 0
BITMAP
10
10
10
10
10
10
10
10
10
10
10
10
12
94
68
10
ENDCHAR
STARTCHAR 2194
ENCODING 8596
SWIDTH 720 0
DWIDTH 16 0
BBX 16 8 0 4
BITMAP
0800
1008
2004
4002
BFFD
4002
2004
1008
ENDCHAR
STARTCHAR 2195
ENCODING 8597
SWIDTH 720 0
DWIDTH 16 0
BBX 8 16 4 0
BITMAP
08
14
2A
49
88
08
08
08
08
08
08
08
09
4A
34
08
ENDCHAR
STARTCHAR 2196
ENCODING 8598
SWIDTH 720 0
DWIDTH 16 0
BBX 11 12 3 2
BITMAP
FC00
8000
C000
A000
9000
0800
0400
0200
0100
0080
0040
0020
ENDCHAR
STARTCHAR 2197
ENCODING 8599
SWIDTH 720 0
DWIDTH 16 0
BBX 12 12 2 2
BITMAP
03F0
0030
0050
0090
0110
0210
0400
0800
1000
2000
4000
8000
ENDCHAR
STARTCHAR 2198
ENCODING 8600
SWIDTH 720 0
DWIDTH 16 0
BBX 11 11 3 3
BITMAP
8000
4000
2000
1000
0800
0420
0220
0120
00A0
0060
07E0
ENDCHAR
STARTCHAR 2199
ENCODING 8601
SWIDTH 720 0
DWIDTH 16 0
BBX 11 11 3 3
BITMAP
0020
0040
0080
0100
0200
0400
8800
9000
A000
C000
FC00
ENDCHAR
STARTCHAR 21A9
ENCODING 8617
SWIDTH 720 0
DWIDTH 16 0
BBX 16 12 0 2
BITMAP
0008
0006
0001
0001
1001
2001
4001
8006
7FF8
2000
1000
0800
ENDCHAR
STARTCHAR 21AA
ENCODING 8618
SWIDTH 720 0
DWIDTH 16 0
BBX 16 11 0 3
BITMAP
6000
8000
8000
8008
8004
4002
2001
1FFF
0002
0004
0008
ENDCHAR
STARTCHAR 21B0
ENCODING 8624
SWIDTH 720 0
DWIDTH 16 0
BBX 11 15 2 1
BITMAP
1000
2000
4000
FFE0
4020
2020
1020
0020
0020
0020
0020
0020
0020
0020
0020
ENDCHAR
STARTCHAR 21B1
ENCODING 8625
SWIDTH 720 0
DWIDTH 16 0
BBX 10 15 4 0
BITMAP
0200
0100
0080
0040
FFC0
8080
8100
8200
8000
8000
8000
8000
8000
8000
8000
ENDCHAR
STARTCHAR 21B2
ENCODING 8626
SWIDTH 720 0
DWIDTH 16 0
BBX 11 16 2 0
BITMAP
0020
0020
0020
0020
0020
0020
0020
0020
1020
2020
4020
8020
FFC0
4000
2000
1000
ENDCHAR
STARTCHAR 21B3
ENCODING 8627
SWIDTH 720 0
DWIDTH 16 0
BBX 10 15 4 1
BITMAP
8000
8000
8000
8000
8000
8000
8000
8200
8100
8080
8040
7FC0
0080
0100
0200
ENDCHAR
STARTCHAR 21B6
ENCODING 8630
SWIDTH 765 0
DWIDTH 17 0
BBX 16 14 1 1
BITMAP
00F0
030C
0402
0802
1001
1001
1000
1000
1000
1000
9200
5400
3800
1000
ENDCHAR
STARTCHAR 21B7
ENCODING 8631
SWIDTH 765 0
DWIDTH 17 0
BBX 16 14 1 1
BITMAP
0F00
30C0
4020
8010
8010
8010
0010
0010
0010
0010
0091
0052
0034
0008
ENDCHAR
STARTCHAR 21BA
ENCODING 8634
SWIDTH 765 0
DWIDTH 17 0
BBX 14 16 2 0
BITMAP
01F8
0300
02C0
2120
4110
8108
8008
8008
8004
8004
8004
8008
8008
8010
4020
3FC0
ENDCHAR
STARTCHAR 21BB
ENCODING 8635
SWIDTH 765 0
DWIDTH 17 0
BBX 14 16 2 0
BITMAP
FC00
0C00
1400
2420
4410
8008
8008
8008
8004
8004
8004
8008
8008
8010
4020
3FC0
ENDCHAR
STARTCHAR 21C4
ENCODING 8644
SWIDTH 720 0
DWIDTH 16 0
BBX 16 15 0 1
BITMAP
0008
0004
0002
FFFF
0002
0004
0008
0800
1000
2000
4000
BFFE
4000
2000
1000
ENDCHAR
STARTCHAR 21C6
ENCODING 8646
SWIDTH 720 0
DWIDTH 16 0
BBX 15 16 1 0
BITMAP
1000
2000
4000
8000
FFFE
8000
4000
2000
0010
0008
0004
0002
FFFE
0004
0008
0010
ENDCHAR
STARTCHAR 2202
ENCODING 8706
SWIDTH 540 0
DWIDTH 12 0
BBX 9 15 2 1
BITMAP
1000
0800
0400
0200
3F00
C100
8080
8080
8080
8080
8080
8080
8100
8100
7E00
ENDCHAR
STARTCHAR 2206
ENCODING 8710
SWIDTH 585 0
DWIDTH 13 0
BBX 11 16 1 0
BITMAP
0400
0C00
0A00
0A00
1200
1100
1100
2080
2080
2080
4040
4040
8040
8020
8020
FFE0
ENDCHAR
STARTCHAR 220F
ENCODING 8719
SWIDTH 675 0
DWIDTH 15 0
BBX 12 20 2 -4
BITMAP
FFF0
4020
4020
4020
4020
4020
4020
4020
4020
4020
4020
4020
4020
4020
4020
4020
4020
4020
4020
4020
ENDCHAR
STARTCHAR 2211
ENCODING 8721
SWIDTH 450 0
DWIDTH 10 0
BBX 10 20 0 -4
BITMAP
FFC0
8000
4000
2000
2000
1000
0800
0400
0400
0200
0100
0200
0400
0400
0800
1000
2000
2000
4000
FF80
ENDCHAR
STARTCHAR 2212
ENCODING 8722
SWIDTH 585 0
DWIDTH 13 0
BBX 9 1 2 6
BITMAP
FF80
ENDCHAR
STARTCHAR 221A
ENCODING 8730
SWIDTH 585 0
DWIDTH 13 0
BBX 10 16 2 0
BITMAP
0040
0040
0080
0080
0080
C100
4100
4100
2200
2200
2200
1400
1400
1400
1800
0800
ENDCHAR
STARTCHAR 221E
ENCODING 8734
SWIDTH 720 0
DWIDTH 16 0
BBX 15 8 1 3
BITMAP
3838
C4C4
8304
8102
8202
8302
8504
78F8
ENDCHAR
STARTCHAR 222B
ENCODING 8747
SWIDTH 315 0
DWIDTH 7 0
BBX 4 20 2 -4
BITMAP
30
40
40
40
40
40
40
40
40
40
40
40
40
40
40
40
40
40
40
C0
ENDCHAR
STARTCHAR 2248
ENCODING 8776
SWIDTH 585 0
DWIDTH 13 0
BBX 10 6 2 4
BITMAP
6000
9840
0780
0000
F000
0F80
ENDCHAR
STARTCHAR 2260
ENCODING 8800
SWIDTH 585 0
DWIDTH 13 0
BBX 9 9 2 2
BITMAP
0100
0200
0200
FD80
0800
0800
1000
FF80
2000
ENDCHAR
STARTCHAR 2264
ENCODING 8804
SWIDTH 585 0
DWIDTH 13 0
BBX 9 13 2 0
BITMAP
0080
0300
0C00
1000
6000
8000
4000
3000
0C00
0300
0000
0000
7F00
ENDCHAR
STARTCHAR 2265
ENCODING 8805
SWIDTH 585 0
DWIDTH 13 0
BBX 9 13 2 0
BITMAP
8000
6000
1800
0400
0300
0080
0100
0600
1800
6000
0000
0000
7F00
ENDCHAR
STARTCHAR 25CA
ENCODING 9674
SWIDTH 585 0
DWIDTH 13 0
BBX 11 16 1 0
BITMAP
0400
0A00
0A00
1100
2080
2080
4040
8020
8020
4040
4040
2080
1100
1100
0A00
0400
ENDCHAR
STARTCHAR 2713
ENCODING 10003
SWIDTH 900 0
DWIDTH 20 0
BBX 14 15 3 1
BITMAP
0004
0008
0008
0010
0010
8020
4020
4040
2040
2080
1080
1100
0A00
0A00
0400
ENDCHAR
STARTCHAR 274C
ENCODING 10060
SWIDTH 900 0
DWIDTH 20 0
BBX 14 14 3 1
BITMAP
8000
400C
2010
1020
0840
0480
0300
0100
0680
0840
1020
2010
4008
8004
ENDCHAR
STARTCHAR 2B0E
ENCODING 11022
SWIDTH 720 0
DWIDTH 16 0
BBX 16 10 0 2
BITMAP
FFF0
0010
0010
0010
0010
0010
0010
0093
0054
0038
ENDCHAR
STARTCHAR 2B0F
ENCODING 11023
SWIDTH 720 0
DWIDTH 16 0
BBX 16 10 0 4
BITMAP
0038
0054
0092
0011
0010
0010
0010
0010
0010
FFF0
ENDCHAR
STARTCHAR 2B10
ENCODING 11024
SWIDTH 720 0
DWIDTH 16 0
BBX 16 11 0 2
BITMAP
0FFF
0800
0800
0800
0800
0800
8880
4900
2A00
1C00
0800
ENDCHAR
STARTCHAR 2B11
ENCODING 11025
SWIDTH 720 0
DWIDTH 16 0
BBX 15 11 1 3
BITMAP
1000
3800
5400
9200
1000
1000
1000
1000
1000
1000
1FFE
ENDCHAR
STARTCHAR ECE0
ENCODING 60640
SWIDTH 1170 0
DWIDTH 26 0
BBX 23 16 1 0
BITMAP
03800E
0F803E
1F807E
3800E0
7001C0
700180
600380
E003F8
E003F8
600380
600180
7001C0
3801C0
3C00F0
1F807E
07801E
ENDCHAR
STARTCHAR EFCC
ENCODING 61388
SWIDTH 1035 0
DWIDTH 23 0
BBX 19 16 3 0
BITMAP
FE1C00
FCFF80
81C1C0
8300E0
863E40
866700
84C000
FCC000
FCC000
84C000
86E300
867F00
831C40
8380C0
81F780
007F00
ENDCHAR
STARTCHAR F6D7
ENCODING 63191
SWIDTH 0 0
DWIDTH 0 0
BBX 6 5 -3 14
BITMAP
08
08
10
00
84
ENDCHAR
STARTCHAR F6D8
ENCODING 63192
SWIDTH 0 0
DWIDTH 0 0
BBX 6 4 -3 15
BITMAP
40
20
00
84
ENDCHAR
STARTCHAR FB01
ENCODING 64257
SWIDTH 495 0
DWIDTH 11 0
BBX 7 15 2 0
BITMAP
62
80
80
80
80
FE
82
82
82
82
82
82
82
82
82
ENDCHAR
STARTCHAR FB02
ENCODING 64258
SWIDTH 495 0
DWIDTH 11 0
BBX 7 15 2 0
BITMAP
60
82
82
82
82
E2
82
82
82
82
82
82
82
82
82
ENDCHAR
ENDFONT
